<?xml version="1.0" encoding="UTF-8" standalone="no"?>
<svg
xmlns:svg="http://www.w3.org/2000/svg"
xmlns="http://www.w3.org/2000/svg"
viewBox="0 0 727.21332 180.06667"
height="180.06667"
width="727.21332"
xml:space="preserve"
version="1.1"><g
transform="matrix(1.3333333,0,0,-1.3333333,0,180.06667)"
id="g10"><g
transform="scale(0.1)"
id="g12"><path
id="path14"
style="fill:#fff;fill-opacity:1;fill-rule:nonzero;stroke:none"
d="m 1328.92,564.301 v 58.449 c -37.82,-45.84 -103.14,-72.203 -175.35,-72.203 -88.24,0 -191.379,59.59 -191.379,183.363 0,130.649 103.139,178.774 191.379,178.774 74.5,0 138.68,-24.063 175.35,-67.614 v 69.918 c 0,56.145 -48.12,92.812 -121.47,92.812 -58.45,0 -113.47,-22.913 -159.3,-65.304 l -57.306,101.984 c 67.616,60.75 154.706,87.1 241.816,87.1 127.2,0 242.95,-50.43 242.95,-209.717 V 564.301 Z m 0,132.937 v 68.754 c -24.06,32.098 -69.9,49.285 -116.9,49.285 -57.3,0 -104.28,-30.941 -104.28,-83.652 0,-52.715 46.98,-82.512 104.28,-82.512 47,0 92.84,16.043 116.9,48.125" /><path
id="path16"
style="fill:#fff;fill-opacity:1;fill-rule:nonzero;stroke:none"
d="M 1707.05,635.359 V 353.426 H 1561.5 v 764.394 h 145.55 v -69.89 c 42.39,53.85 103.14,83.65 170.75,83.65 142.1,0 245.24,-105.43 245.24,-289.939 0,-184.508 -103.14,-291.094 -245.24,-291.094 -65.32,0 -124.91,27.508 -170.75,84.812 z m 265.87,206.282 c 0,95.121 -57.3,160.449 -140.96,160.449 -46.99,0 -99.71,-26.367 -124.91,-63.039 V 744.234 c 24.06,-35.527 77.92,-64.179 124.91,-64.179 83.66,0 140.96,65.324 140.96,161.586" /><path
id="path18"
style="fill:#fff;fill-opacity:1;fill-rule:nonzero;stroke:none"
d="M 2317.81,635.359 V 353.426 h -145.55 v 764.394 h 145.55 v -69.89 c 42.39,53.85 103.14,83.65 170.75,83.65 142.1,0 245.24,-105.43 245.24,-289.939 0,-184.508 -103.14,-291.094 -245.24,-291.094 -65.33,0 -124.92,27.508 -170.75,84.812 z m 265.87,206.282 c 0,95.121 -57.3,160.449 -140.96,160.449 -46.99,0 -99.7,-26.367 -124.91,-63.039 V 744.234 c 24.06,-35.527 77.92,-64.179 124.91,-64.179 83.66,0 140.96,65.324 140.96,161.586" /><path
id="path20"
style="fill:#fff;fill-opacity:1;fill-rule:nonzero;stroke:none"
d="M 2783.02,564.301 V 1328.7 h 145.55 V 564.301 h -145.55" /><path
id="path22"
style="fill:#fff;fill-opacity:1;fill-rule:nonzero;stroke:none"
d="m 3001.86,1264.52 c 0,48.13 38.96,85.95 85.96,85.95 48.13,0 87.1,-37.82 87.1,-85.95 0,-48.13 -38.97,-87.09 -87.1,-87.09 -47,0 -85.96,38.96 -85.96,87.09 z m 13.76,-700.219 v 553.519 h 145.55 V 564.301 h -145.55" /><path
id="path24"
style="fill:#fff;fill-opacity:1;fill-rule:nonzero;stroke:none"
d="m 3278.03,702.973 v 287.648 h -91.69 v 127.199 h 91.69 v 151.29 h 145.55 v -151.29 h 112.3 V 990.621 h -112.3 V 741.93 c 0,-35.528 18.33,-61.875 50.42,-61.875 21.78,0 42.39,8.015 50.43,17.183 l 30.94,-111.164 c -21.78,-19.484 -60.75,-35.527 -121.49,-35.527 -101.99,0 -155.85,52.715 -155.85,152.426" /><path
id="path26"
style="fill:#fff;fill-opacity:1;fill-rule:nonzero;stroke:none"
d="m 3542.73,841.641 c 0,157 110.02,289.939 292.23,289.939 183.37,0 293.39,-132.939 293.39,-289.939 0,-157.016 -110.02,-291.094 -293.39,-291.094 -182.21,0 -292.23,134.078 -292.23,291.094 z m 434.34,0 c 0,85.957 -50.43,160.449 -142.11,160.449 -90.53,0 -140.95,-74.492 -140.95,-160.449 0,-87.098 50.42,-161.586 140.95,-161.586 91.68,0 142.11,74.488 142.11,161.586" /><path
id="path28"
style="fill:#fff;fill-opacity:1;fill-rule:nonzero;stroke:none"
d="m 4144.32,841.641 c 0,157 110.02,289.939 292.24,289.939 183.37,0 293.39,-132.939 293.39,-289.939 0,-157.016 -110.02,-291.094 -293.39,-291.094 -182.22,0 -292.24,134.078 -292.24,291.094 z m 434.34,0 c 0,85.957 -50.42,160.449 -142.1,160.449 -90.54,0 -140.95,-74.492 -140.95,-160.449 0,-87.098 50.41,-161.586 140.95,-161.586 91.68,0 142.1,74.488 142.1,161.586" /><path
id="path30"
style="fill:#fff;fill-opacity:1;fill-rule:nonzero;stroke:none"
d="M 4781.43,564.301 V 1328.7 h 145.55 V 564.301 h -145.55" /><path
id="path32"
style="fill:#fff;fill-opacity:1;fill-rule:nonzero;stroke:none"
d="m 4965.91,636.504 63.04,105.426 c 41.24,-38.957 122.62,-76.774 191.38,-76.774 63.04,0 92.83,24.059 92.83,58.446 0,90.531 -327.77,16.043 -327.77,233.793 0,92.815 80.23,174.185 226.92,174.185 92.83,0 167.32,-32.08 222.32,-75.63 l -58.45,-103.145 c -33.22,34.383 -96.26,64.175 -163.87,64.175 -52.72,0 -87.1,-22.914 -87.1,-53.867 0,-81.371 328.91,-12.597 328.91,-236.082 0,-101.996 -87.1,-176.484 -240.67,-176.484 -96.26,0 -189.09,32.098 -247.54,85.957" /><path
id="path34"
style="fill:#a8afb9;fill-opacity:1;fill-rule:nonzero;stroke:none"
d="m 636.348,1098.6 v 126.03 c -1.196,-1.11 -2.438,-2.22 -3.782,-3.45 -0.332,-0.3 -0.746,-0.66 -1.078,-0.99 -1.023,-0.92 -2.004,-1.81 -3.113,-2.81 -0.445,-0.38 -0.977,-0.86 -1.426,-1.24 -1.109,-1.01 -2.203,-1.99 -3.332,-3.03 -0.465,-0.41 -0.926,-0.76 -1.39,-1.18 -1.258,-1.11 -2.551,-2.25 -3.911,-3.45 -0.398,-0.34 -0.796,-0.69 -1.195,-1.04 -1.539,-1.36 -3.113,-2.75 -4.738,-4.12 -0.25,-0.25 -0.531,-0.47 -0.793,-0.7 -22.043,-19.14 -52.52,-44.51 -87.5,-72.05 -9.164,-7.18 -18.625,-14.55 -28.336,-21.93 -44.481,66.82 -105.531,121.65 -177.582,158.13 51.57,-53.84 92.836,-122.53 119.996,-200.57 -11.371,-8.04 -22.852,-16.07 -34.355,-23.86 l -0.032,0.04 c -3.379,-2.33 -6.726,-4.58 -10.093,-6.82 -5.684,-3.79 -11.317,-7.45 -16.934,-11.08 -3.168,-2.06 -6.281,-4.02 -9.434,-6.04 -2.218,-1.39 -4.437,-2.78 -6.625,-4.15 -3.976,-2.47 -7.972,-4.94 -11.914,-7.38 -1.211,-0.68 -2.336,-1.43 -3.562,-2.17 -4.313,-2.63 -8.617,-5.236 -12.926,-7.771 -0.367,-0.168 -0.664,-0.403 -1.031,-0.598 -3.512,-1.957 -7.024,-3.894 -10.539,-5.801 C 208.137,928.809 100.637,879.457 0,846.695 78.5156,821.141 160.777,785.434 246.602,741.668 c 0.031,-0.234 0.113,-0.566 0.148,-0.848 11.449,-5.351 23.066,-11.136 34.816,-17.265 0.364,-0.27 0.731,-0.399 1.094,-0.617 35.543,-18.559 72.5,-40.567 111.028,-66.235 13.937,-9.23 27.789,-18.808 41.48,-28.484 -27.098,-74.723 -67.246,-140.395 -116.996,-192.348 69.566,35.215 128.879,87.582 172.906,151.246 66.09,-50.094 121.469,-97.57 145.27,-119.445 v 0.363 125.645 0.383 c -14.684,12.082 -31.887,26.05 -50.91,40.898 -0.067,-0.066 -0.184,-0.098 -0.25,-0.164 -14.961,11.699 -31.02,24.062 -47.942,36.641 23.25,55.363 36.324,116.097 36.324,179.847 0,60.785 -11.894,118.77 -33.074,171.985 33.324,24.9 63.434,48.77 87.66,68.59 2.821,2.33 5.539,4.59 8.192,6.74 z M 461.863,725.094 c -3.527,2.422 -7.078,4.804 -10.621,7.176 -9.531,6.312 -19.023,12.414 -28.371,18.425 0.067,0.071 0.067,0.184 0.164,0.317 -64.23,40.683 -125.148,72.351 -183.344,95.301 0.426,0.183 0.875,0.382 1.274,0.566 5.75,2.254 11.519,4.641 17.316,7.059 0.5,0.214 0.981,0.414 1.461,0.597 60.684,25.801 124.321,60.785 191.5,105.461 4.141,2.734 8.188,5.567 12.313,8.352 6.675,-37.7 10.242,-76.86 10.242,-117.063 0,-43.465 -4.195,-85.672 -11.934,-126.191" /></g></g></svg>