<svg width="247px" height="190px" viewBox="0 0 247 190" version="1.1" xmlns="http://www.w3.org/2000/svg" xmlns:xlink="http://www.w3.org/1999/xlink">
    <g id="Page-1" stroke="none" stroke-width="1" fill="none" fill-rule="evenodd">
        <g id="Artboard" transform="translate(-310.000000, -205.000000)">
            <g id="glints-logo-flushed-white" transform="translate(310.000000, 198.000000)">
                <path d="M26.1585703,167.417784 C34.5215911,167.417784 41.301159,160.588954 41.301159,152.165164 C41.301159,143.741375 34.5215911,136.912545 26.1585703,136.912545 C17.7955495,136.912545 11.0159816,143.741375 11.0159816,152.165164 C11.0159816,160.588954 17.7955495,167.417784 26.1585703,167.417784 Z M52.3904017,128.187174 L52.3904017,173.945957 C52.3904017,186.730472 42.1967203,197 26.3551884,197 C16.781393,197 10.4447802,193.437102 6.72546403,189.734483 L13.6130866,182.74841 C15.886002,184.983953 19.8808231,187.219497 25.8041786,187.219497 C34.0693256,187.219497 40.268186,181.84022 40.268186,173.945957 L40.268186,172.705428 C37.2520502,175.039202 33.1492137,177.334288 25.3162975,177.604561 C14.2249605,177.745456 0.434109967,168.568057 -3.12638804e-13,152.614514 C-3.12638804e-13,137.245152 11.8616142,126.650625 24.3911318,126.351405 C32.215612,126.351405 37.5124632,128.187174 40.6814433,131.73357 L40.6814433,128.187174 L52.3904017,128.187174 Z M77.805679,108.626168 L77.805679,178.486905 L65.7523395,178.486905 L65.7523395,108.626168 L77.805679,108.626168 Z M103.28986,128.187174 L103.28986,178.486905 L91.236521,178.486905 L91.236521,128.187174 L103.28986,128.187174 Z M160.491542,146.874906 L160.491542,178.312237 L148.438203,178.312237 L148.438203,148.621424 C148.438203,140.936743 144.787763,137.234124 138.795531,137.234124 C132.114537,137.234124 127.086573,142.264097 127.086573,153.162372 L127.086573,178.312237 L115.033233,178.312237 L115.033233,128.012507 L126.742192,128.012507 L126.742192,135.767049 C128.946231,130.597354 134.594081,126.964596 142.239342,126.964596 C152.984034,126.964596 160.491542,134.579416 160.491542,146.874906 Z M201.162908,168.357093 L201.162908,178.137597 C198.889993,178.766343 195.859439,179.185508 192.346751,179.185508 C182.70408,179.185508 176.987353,172.688459 176.987353,165.21336 L176.987353,137.967673 L167.55131,137.967673 L167.55131,128.18717 L176.987353,128.18717 L176.987353,113.865719 L189.040692,113.865719 L189.040692,128.18717 L200.611898,128.18717 L200.611898,137.967673 L189.040692,137.967673 L189.040692,163.466842 C189.040692,167.239322 190.900351,169.405005 195.721686,169.405005 C197.512468,169.405005 199.509879,168.98584 201.162908,168.357093 Z M247,164.619533 C247,172.374075 240.80114,180.058756 227.163647,180.058756 C219.931643,180.058756 213.595031,176.984883 209.737962,173.142543 L216.832213,166.016748 C218.829624,168.11257 222.686692,170.278252 227.163647,170.278252 C232.329364,170.278252 235.153289,167.902987 235.153289,164.898976 C235.153289,155.188333 211.184363,160.218306 211.184363,141.984654 C211.184363,134.579416 217.865357,126.964596 229.780944,126.964596 C237.1507,126.964596 242.660798,129.828886 246.724495,133.880809 L239.69912,141.006604 C237.426205,138.7012 234.257898,136.745099 230.056448,136.745099 C225.372865,136.745099 223.031073,139.539528 223.031073,141.984654 C223.031073,150.018639 247,146.106438 247,164.619533 Z" id="glints" fill="#FFFFFF"></path>
                <g id="star" transform="translate(121.196793, 57.751632) rotate(-9.500000) translate(-121.196793, -57.751632) translate(67.696793, 8.251632)" fill-rule="nonzero">
                    <polygon id="yellow" fill="#3C3C3C" points="44.5575426 3.91298057 58.2275148 33.3398572 88.9323753 38.0214058 66.8501126 60.7603559 71.8974869 93.085334 44.5575426 77.926034 17.2175983 93.085334 22.4752799 60.7603559 0.39301716 38.0214058 30.8875704 33.3398572"></polygon>
                    <polygon id="blue" fill="#646464" points="62.0313715 0.227294867 75.7338912 29.6541715 106.301051 34.3357201 84.166211 57.0746702 89.4364109 89.3996483 62.0313715 74.2403483 34.626332 89.3996483 39.8965319 57.0746702 17.7616924 34.3357201 48.3288517 29.6541715"></polygon>
                    <polygon id="pink" fill="#B8B8B8" points="49.548636 9.58017806 63.2511558 39.0070547 93.8183151 43.6886033 71.6834756 66.4275534 76.9536755 98.7525315 49.548636 83.5932315 22.1435966 98.7525315 27.4137965 66.4275534 5.27895696 43.6886033 35.8461163 39.0070547"></polygon>
                    <polygon id="white" fill="#FFFFFF" points="55.7823068 6.2019781 69.4848265 35.6288547 100.051986 40.3104033 77.9171464 63.0493534 83.1873463 95.3743316 55.7823068 80.2150315 28.3772674 95.3743316 33.6474673 63.0493534 11.5126277 40.3104033 42.0797871 35.6288547"></polygon>
                </g>
            </g>
        </g>
    </g>
</svg>