<?xml version="1.0" encoding="utf-8"?>
<!-- Generator: Adobe Illustrator 21.1.0, SVG Export Plug-In . SVG Version: 6.00 Build 0)  -->
<!DOCTYPE svg PUBLIC "-//W3C//DTD SVG 1.1//EN" "http://www.w3.org/Graphics/SVG/1.1/DTD/svg11.dtd">
<svg version="1.1" id="Ebene_1" xmlns="http://www.w3.org/2000/svg" xmlns:xlink="http://www.w3.org/1999/xlink" x="0px" y="0px"
	 width="600px" height="584.2px" viewBox="0 0 600 584.2" style="enable-background:new 0 0 600 584.2;" xml:space="preserve">
<style type="text/css">
	path { fill: white; }
</style>
<g>
	<g>
		<g>
			<path d="M263.3,81.9L263.3,81.9c0,7.8-6.3,14.1-14.1,14.1h-11.3c-7.8,0-14.1-6.3-14.1-14.1v0c0-7.8,6.3-14.1,14.1-14.1h11.3
				C257,67.8,263.3,74.1,263.3,81.9z"/>
			<path d="M319.8,127.1L319.8,127.1c0,7.8-6.3,14.1-14.1,14.1h-11.3c-7.8,0-14.1-6.3-14.1-14.1v0c0-7.8,6.3-14.1,14.1-14.1h11.3
				C313.4,112.9,319.8,119.3,319.8,127.1z"/>
			<path d="M376.2,53.6L376.2,53.6c0,7.8-6.3,14.1-14.1,14.1h-11.3c-7.8,0-14.1-6.3-14.1-14.1v0c0-7.8,6.3-14.1,14.1-14.1h11.3
				C369.9,39.5,376.2,45.8,376.2,53.6z"/>
			<path d="M432.7,14.1L432.7,14.1c0,7.8-6.3,14.1-14.1,14.1h-11.3c-7.8,0-14.1-6.3-14.1-14.1v0c0-7.8,6.3-14.1,14.1-14.1l11.3,0
				C426.4,0,432.7,6.3,432.7,14.1z"/>
			<path d="M489.2,117L489.2,117c0,7.8-6.3,14.1-14.1,14.1h-11.3c-7.8,0-14.1-6.3-14.1-14.1v0c0-7.8,6.3-14.1,14.1-14.1h11.3
				C482.8,102.9,489.2,109.2,489.2,117z"/>
			<path d="M206.8,64.9L206.8,64.9c0,7.8-6.3,14.1-14.1,14.1h-11.3c-7.8,0-14.1-6.3-14.1-14.1v0c0-7.8,6.3-14.1,14.1-14.1h11.3
				C200.5,50.8,206.8,57.1,206.8,64.9z"/>
			<path d="M150.4,112.9L150.4,112.9c0,7.8-6.3,14.1-14.1,14.1h-11.3c-7.8,0-14.1-6.3-14.1-14.1v0c0-7.8,6.3-14.1,14.1-14.1h11.3
				C144,98.8,150.4,105.1,150.4,112.9z"/>
			<path d="M468,150.9c-7.3,0.7-12.7,7.3-12.7,14.7v19.2c0,7.1-5.8,12.9-12.9,12.9H440c-7.1,0-12.9-5.8-12.9-12.9v-53
				c0-7.4-5.4-14-12.7-14.7c-8.4-0.8-15.5,5.8-15.5,14.1v25.4c0,7.1-5.8,12.9-12.9,12.9h-2.4c-7.1,0-12.9-5.8-12.9-12.9V143
				c0-7.4-5.4-14-12.7-14.7c-8.4-0.8-15.5,5.8-15.5,14.1v59.3c0,7.1-5.8,12.9-12.9,12.9H327c-7.1,0-12.9-5.8-12.9-12.9v-24.8
				c0-7.4-5.4-14-12.7-14.7c-8.4-0.8-15.5,5.8-15.5,14.1v8.5c0,7.1-5.8,12.9-12.9,12.9h-2.4c-7.1,0-12.9-5.8-12.9-12.9V143
				c0-7.4-5.4-14-12.7-14.7c-8.4-0.8-15.5,5.8-15.5,14.1v59.3c0,7.1-5.8,12.9-12.9,12.9h-2.4c-7.1,0-12.9-5.8-12.9-12.9l0-70
				c0-7.4-5.4-14-12.7-14.7c-8.4-0.8-15.5,5.8-15.5,14.1v45.2c0,7.1-5.8,12.9-12.9,12.9h-2.4c-7.1,0-12.9-5.8-12.9-12.9l0-10.7
				c0-7.4-5.4-14-12.7-14.7c-8.4-0.8-15.5,5.8-15.5,14.1l0,98.2c0,7.4,5.4,14,12.7,14.7c8.4,0.8,15.5-5.8,15.5-14.1l0,0
				c0-7.1,5.8-12.9,12.9-12.9h2.4c7.1,0,12.9,5.8,12.9,12.9l0,70c0,7.4,5.4,14,12.7,14.7c8.4,0.8,15.5-5.8,15.5-14.1v-11.3
				c0-7.1,5.8-12.9,12.9-12.9h2.4c7.1,0,12.9,5.8,12.9,12.9l0,58.7c0,7.4,5.4,14,12.7,14.7c8.4,0.8,15.5-5.8,15.5-14.1v-67.8
				c0-7.1,5.8-12.9,12.9-12.9h2.4c7.1,0,12.9,5.8,12.9,12.9v109.5c0,7.4,5.4,14,12.7,14.7c8.4,0.8,15.5-5.8,15.5-14.1v-76.2
				c0-7.1,5.8-12.9,12.9-12.9h2.4c7.1,0,12.9,5.8,12.9,12.9v33.3c0,7.4,5.4,14,12.7,14.7c8.4,0.8,15.5-5.8,15.5-14.1V280.8
				c0-7.1,5.8-12.9,12.9-12.9h2.4c7.1,0,12.9,5.8,12.9,12.9v53c0,7.4,5.4,14,12.7,14.7c8.4,0.8,15.5-5.8,15.5-14.1v-70.6
				c0-7.1,5.8-12.9,12.9-12.9h3c6.8,0,12.3,5.5,12.3,12.3l0,0c0,7.4,5.4,14,12.7,14.7c8.4,0.8,15.5-5.8,15.5-14.1V165
				C483.5,156.7,476.4,150.1,468,150.9z"/>
		</g>
		<g>
			<path d="M50,568.9c-10.8,0-29,0-29-36.1v-0.3c0-5.2,0-8.9-1.7-11.2c-1.8-2.4-5.7-3.4-12.8-3.4H2.3c-2.3,0-2.3-2.5-2.3-4.5
				c0-2,0-4.5,2.3-4.5h4.3c7.1,0,11-1.1,12.8-3.4c1.7-2.3,1.7-6,1.7-11.2v-0.3c0-36.1,18.1-36.1,29-36.1l1,0c2.3,0,2.3,3.1,2.3,4.5
				c0,1.6,0,4.7-2.3,4.7l-2.3,0c-7.4,0-18.5,0-18.5,26.9c0,8.6,0,15.1-6.6,19.5c6.6,4.3,6.6,11.1,6.6,19.5
				c0,26.9,11.1,26.9,18.5,26.9l2.3,0c2.3,0,2.3,3,2.3,4.7c0,1.5,0,4.5-2.3,4.5L50,568.9z"/>
			<path d="M109.8,560.4c-9.1,0-24.4,0-24.4-29.1v-50.9H70.4c-2.1,0-2.1-2.5-2.1-4.7c0-2.1,0-4.7,2.1-4.7h22.9
				c0.7,0,1.3,0.6,1.3,1.3v61.3c0,16.3,6.7,17.6,14.2,17.6l2.4,0h11.9c2.3,0,2.3,2.9,2.3,4.5c0,1.7,0,4.5-2.3,4.5H109.8z"/>
			<path d="M148.9,560.4c-2.3,0-2.3-2.9-2.3-4.5c0-1.5,0-4.5,2.3-4.5h23.2v-51.2h-31.2c-2.3,0-2.3-2.9-2.3-4.5c0-1.5,0-4.5,2.3-4.5
				h38.9c0.7,0,1.3,0.6,1.3,1.3v58.9h9.1c2.1,0,2.1,2.5,2.1,4.5c0,2.1,0,4.5-2.1,4.5H148.9z M165.4,480.3c-2.3,0-2.3-3.1-2.3-4.5
				c0-1.6,0-4.7,2.3-4.7h13.3c2.3,0,2.3,3,2.3,4.7c0,1.5,0,4.5-2.3,4.5H165.4z"/>
			<path d="M232.7,560.4c-2,0-3-0.3-4.4-3.1c-2.1-4.1-19.1-42.7-19.1-54.2v-9.7c0-2.3,3-2.3,4.7-2.3c1.5,0,4.5,0,4.5,2.3v9.9
				c0,8.1,12.1,36.8,15.9,45.3c4.2-8.3,17.9-37.8,17.9-45.4v-9.7c0-2.3,3-2.3,4.7-2.3c1.5,0,4.5,0,4.5,2.3v9.9
				c0,10.9-19.2,50.6-21.2,54.1c-1.6,2.7-2.4,3.1-4.2,3.1H232.7z"/>
			<path d="M303.6,560.4c-9.6,0-24,0-24-34.7c0-34.8,14.1-34.8,24.4-34.8c18,0,25.9,3.6,25.9,38.1c0,0.7-0.6,1.3-1.3,1.3h-39.6
				c0.5,20.9,7.6,20.9,13.9,20.9l1.7,0h21.2c2.3,0,2.3,2.8,2.3,4.5c0,1.7,0,4.5-2.3,4.5L303.6,560.4z M320.6,521.2
				C320,500,313.7,500,307.6,500c-0.8,0-1.7,0-2.5,0c-0.9,0-1.8,0-2.8,0c-7.8,0-13,1.5-13.4,21.1H320.6z"/>
			<path d="M374.2,550.7c-1.6,0-4.7,0-4.7-2.3v-8.1c0-2.1,2.5-2.1,4.7-2.1h1.1c3,0,3.5,1.3,3.5,2.1v8.1
				C378.7,550.7,375.7,550.7,374.2,550.7z M373.1,513.5c-1.2,0-3.6,0-3.6-2.1v-8.1c0-2.3,3-2.3,4.7-2.3c2.1,0,4.5,0.4,4.5,2.3v8.1
				c0,2.1-2.5,2.1-4.5,2.1H373.1z"/>
			<path d="M408.2,584.2c-2.3,0-2.3-3-2.3-4.7c0-1.7,0-4.7,2.3-4.7h21.4c6.9,0,14.7,0,14.7-17.2v-57.5h-29.6c-2.3,0-2.3-2.6-2.3-4.5
				c0-2,0-4.7,2.3-4.7H452c0.7,0,1.3,0.6,1.3,1.3v65.3c0,26.5-16.8,26.5-24,26.5H408.2z M437.5,480.3c-2.1,0-2.1-2.5-2.1-4.5
				c0-2.1,0-4.7,2.1-4.7H451c2.3,0,2.3,3,2.3,4.7c0,1.5,0,4.5-2.3,4.5H437.5z"/>
			<path d="M502,560.5c-7,0-23.5,0-23.5-19.6c0-2.3,2.7-2.3,4.5-2.3c1.9,0,4.5,0,4.5,2.3c0,9.7,5.5,10.4,14.7,10.4h0.5
				c11,0,16.3-0.4,16.3-10.3c0-7.6-6.2-9.7-16.4-12.3l-1.4-0.4c-9.7-2.7-21.8-6-21.8-19.6c0-17.9,15.1-17.9,24.1-17.9h0.3
				c6.4,0,23.3,0,23.3,19.2c0,2.3-2.8,2.3-4.7,2.3c-2,0-4.7,0-4.7-2.3c0-9.3-5.5-10-14.5-10c-10.6,0-14.7,0.7-14.7,8.7
				c0,6.9,7.3,8.7,15,10.7l1.9,0.5l1.2,0.3c8.6,2.3,21.5,5.8,21.5,20.8c0,19.3-16.6,19.3-24.6,19.3L502,560.5z"/>
			<path d="M548.9,568.9c-2.3,0-2.3-3.1-2.3-4.5c0-1.6,0-4.7,2.3-4.7l2.3,0c9.7,0,18.4-2.1,18.4-26.9c0-8.4,0-15.1,6.7-19.5
				c-6.7-4.4-6.7-11.1-6.7-19.4c0-24.9-8.7-26.9-18.4-26.9l-2.3,0c-2.3,0-2.3-3-2.3-4.7c0-1.5,0-4.5,2.3-4.5l1,0
				c10.8,0,29,0,29,36.1v0.3c0,5.2,0,8.9,1.7,11.2c1.8,2.4,5.7,3.4,12.8,3.4h4.4c2.1,0,2.1,2.4,2.1,4.5c0,2.1,0,4.5-2.1,4.5h-4.4
				c-7.1,0-11,1.1-12.8,3.4c-1.7,2.3-1.7,6-1.7,11.2v0.3c0,36.1-18.1,36.1-29,36.1L548.9,568.9z"/>
		</g>
	</g>
	<g>
		<g>
			<path class="st0" d="M263.3,81.9L263.3,81.9c0,7.8-6.3,14.1-14.1,14.1h-11.3c-7.8,0-14.1-6.3-14.1-14.1v0
				c0-7.8,6.3-14.1,14.1-14.1h11.3C257,67.8,263.3,74.1,263.3,81.9z"/>
			<path class="st0" d="M319.8,127.1L319.8,127.1c0,7.8-6.3,14.1-14.1,14.1h-11.3c-7.8,0-14.1-6.3-14.1-14.1v0
				c0-7.8,6.3-14.1,14.1-14.1h11.3C313.4,112.9,319.8,119.3,319.8,127.1z"/>
			<path class="st0" d="M376.2,53.6L376.2,53.6c0,7.8-6.3,14.1-14.1,14.1h-11.3c-7.8,0-14.1-6.3-14.1-14.1v0
				c0-7.8,6.3-14.1,14.1-14.1h11.3C369.9,39.5,376.2,45.8,376.2,53.6z"/>
			<path class="st0" d="M432.7,14.1L432.7,14.1c0,7.8-6.3,14.1-14.1,14.1h-11.3c-7.8,0-14.1-6.3-14.1-14.1v0
				c0-7.8,6.3-14.1,14.1-14.1l11.3,0C426.4,0,432.7,6.3,432.7,14.1z"/>
			<path class="st0" d="M489.2,117L489.2,117c0,7.8-6.3,14.1-14.1,14.1h-11.3c-7.8,0-14.1-6.3-14.1-14.1v0c0-7.8,6.3-14.1,14.1-14.1
				h11.3C482.8,102.9,489.2,109.2,489.2,117z"/>
			<path class="st0" d="M206.8,64.9L206.8,64.9c0,7.8-6.3,14.1-14.1,14.1h-11.3c-7.8,0-14.1-6.3-14.1-14.1v0
				c0-7.8,6.3-14.1,14.1-14.1h11.3C200.5,50.8,206.8,57.1,206.8,64.9z"/>
			<path class="st0" d="M150.4,112.9L150.4,112.9c0,7.8-6.3,14.1-14.1,14.1h-11.3c-7.8,0-14.1-6.3-14.1-14.1v0
				c0-7.8,6.3-14.1,14.1-14.1h11.3C144,98.8,150.4,105.1,150.4,112.9z"/>
			<path class="st0" d="M468,150.9c-7.3,0.7-12.7,7.3-12.7,14.7v19.2c0,7.1-5.8,12.9-12.9,12.9H440c-7.1,0-12.9-5.8-12.9-12.9v-53
				c0-7.4-5.4-14-12.7-14.7c-8.4-0.8-15.5,5.8-15.5,14.1v25.4c0,7.1-5.8,12.9-12.9,12.9h-2.4c-7.1,0-12.9-5.8-12.9-12.9V143
				c0-7.4-5.4-14-12.7-14.7c-8.4-0.8-15.5,5.8-15.5,14.1v59.3c0,7.1-5.8,12.9-12.9,12.9H327c-7.1,0-12.9-5.8-12.9-12.9v-24.8
				c0-7.4-5.4-14-12.7-14.7c-8.4-0.8-15.5,5.8-15.5,14.1v8.5c0,7.1-5.8,12.9-12.9,12.9h-2.4c-7.1,0-12.9-5.8-12.9-12.9V143
				c0-7.4-5.4-14-12.7-14.7c-8.4-0.8-15.5,5.8-15.5,14.1v59.3c0,7.1-5.8,12.9-12.9,12.9h-2.4c-7.1,0-12.9-5.8-12.9-12.9l0-70
				c0-7.4-5.4-14-12.7-14.7c-8.4-0.8-15.5,5.8-15.5,14.1v45.2c0,7.1-5.8,12.9-12.9,12.9h-2.4c-7.1,0-12.9-5.8-12.9-12.9l0-10.7
				c0-7.4-5.4-14-12.7-14.7c-8.4-0.8-15.5,5.8-15.5,14.1l0,98.2c0,7.4,5.4,14,12.7,14.7c8.4,0.8,15.5-5.8,15.5-14.1l0,0
				c0-7.1,5.8-12.9,12.9-12.9h2.4c7.1,0,12.9,5.8,12.9,12.9l0,70c0,7.4,5.4,14,12.7,14.7c8.4,0.8,15.5-5.8,15.5-14.1v-11.3
				c0-7.1,5.8-12.9,12.9-12.9h2.4c7.1,0,12.9,5.8,12.9,12.9l0,58.7c0,7.4,5.4,14,12.7,14.7c8.4,0.8,15.5-5.8,15.5-14.1v-67.8
				c0-7.1,5.8-12.9,12.9-12.9h2.4c7.1,0,12.9,5.8,12.9,12.9v109.5c0,7.4,5.4,14,12.7,14.7c8.4,0.8,15.5-5.8,15.5-14.1v-76.2
				c0-7.1,5.8-12.9,12.9-12.9h2.4c7.1,0,12.9,5.8,12.9,12.9v33.3c0,7.4,5.4,14,12.7,14.7c8.4,0.8,15.5-5.8,15.5-14.1V280.8
				c0-7.1,5.8-12.9,12.9-12.9h2.4c7.1,0,12.9,5.8,12.9,12.9v53c0,7.4,5.4,14,12.7,14.7c8.4,0.8,15.5-5.8,15.5-14.1v-70.6
				c0-7.1,5.8-12.9,12.9-12.9h3c6.8,0,12.3,5.5,12.3,12.3l0,0c0,7.4,5.4,14,12.7,14.7c8.4,0.8,15.5-5.8,15.5-14.1V165
				C483.5,156.7,476.4,150.1,468,150.9z"/>
		</g>
		<g>
			<path class="st0" d="M50,568.9c-10.8,0-29,0-29-36.1v-0.3c0-5.2,0-8.9-1.7-11.2c-1.8-2.4-5.7-3.4-12.8-3.4H2.3
				c-2.3,0-2.3-2.5-2.3-4.5c0-2,0-4.5,2.3-4.5h4.3c7.1,0,11-1.1,12.8-3.4c1.7-2.3,1.7-6,1.7-11.2v-0.3c0-36.1,18.1-36.1,29-36.1l1,0
				c2.3,0,2.3,3.1,2.3,4.5c0,1.6,0,4.7-2.3,4.7l-2.3,0c-7.4,0-18.5,0-18.5,26.9c0,8.6,0,15.1-6.6,19.5c6.6,4.3,6.6,11.1,6.6,19.5
				c0,26.9,11.1,26.9,18.5,26.9l2.3,0c2.3,0,2.3,3,2.3,4.7c0,1.5,0,4.5-2.3,4.5L50,568.9z"/>
			<path class="st0" d="M109.8,560.4c-9.1,0-24.4,0-24.4-29.1v-50.9H70.4c-2.1,0-2.1-2.5-2.1-4.7c0-2.1,0-4.7,2.1-4.7h22.9
				c0.7,0,1.3,0.6,1.3,1.3v61.3c0,16.3,6.7,17.6,14.2,17.6l2.4,0h11.9c2.3,0,2.3,2.9,2.3,4.5c0,1.7,0,4.5-2.3,4.5H109.8z"/>
			<path class="st0" d="M148.9,560.4c-2.3,0-2.3-2.9-2.3-4.5c0-1.5,0-4.5,2.3-4.5h23.2v-51.2h-31.2c-2.3,0-2.3-2.9-2.3-4.5
				c0-1.5,0-4.5,2.3-4.5h38.9c0.7,0,1.3,0.6,1.3,1.3v58.9h9.1c2.1,0,2.1,2.5,2.1,4.5c0,2.1,0,4.5-2.1,4.5H148.9z M165.4,480.3
				c-2.3,0-2.3-3.1-2.3-4.5c0-1.6,0-4.7,2.3-4.7h13.3c2.3,0,2.3,3,2.3,4.7c0,1.5,0,4.5-2.3,4.5H165.4z"/>
			<path class="st0" d="M232.7,560.4c-2,0-3-0.3-4.4-3.1c-2.1-4.1-19.1-42.7-19.1-54.2v-9.7c0-2.3,3-2.3,4.7-2.3
				c1.5,0,4.5,0,4.5,2.3v9.9c0,8.1,12.1,36.8,15.9,45.3c4.2-8.3,17.9-37.8,17.9-45.4v-9.7c0-2.3,3-2.3,4.7-2.3c1.5,0,4.5,0,4.5,2.3
				v9.9c0,10.9-19.2,50.6-21.2,54.1c-1.6,2.7-2.4,3.1-4.2,3.1H232.7z"/>
			<path class="st0" d="M303.6,560.4c-9.6,0-24,0-24-34.7c0-34.8,14.1-34.8,24.4-34.8c18,0,25.9,3.6,25.9,38.1
				c0,0.7-0.6,1.3-1.3,1.3h-39.6c0.5,20.9,7.6,20.9,13.9,20.9l1.7,0h21.2c2.3,0,2.3,2.8,2.3,4.5c0,1.7,0,4.5-2.3,4.5L303.6,560.4z
				 M320.6,521.2C320,500,313.7,500,307.6,500c-0.8,0-1.7,0-2.5,0c-0.9,0-1.8,0-2.8,0c-7.8,0-13,1.5-13.4,21.1H320.6z"/>
			<path class="st0" d="M374.2,550.7c-1.6,0-4.7,0-4.7-2.3v-8.1c0-2.1,2.5-2.1,4.7-2.1h1.1c3,0,3.5,1.3,3.5,2.1v8.1
				C378.7,550.7,375.7,550.7,374.2,550.7z M373.1,513.5c-1.2,0-3.6,0-3.6-2.1v-8.1c0-2.3,3-2.3,4.7-2.3c2.1,0,4.5,0.4,4.5,2.3v8.1
				c0,2.1-2.5,2.1-4.5,2.1H373.1z"/>
			<path class="st0" d="M408.2,584.2c-2.3,0-2.3-3-2.3-4.7c0-1.7,0-4.7,2.3-4.7h21.4c6.9,0,14.7,0,14.7-17.2v-57.5h-29.6
				c-2.3,0-2.3-2.6-2.3-4.5c0-2,0-4.7,2.3-4.7H452c0.7,0,1.3,0.6,1.3,1.3v65.3c0,26.5-16.8,26.5-24,26.5H408.2z M437.5,480.3
				c-2.1,0-2.1-2.5-2.1-4.5c0-2.1,0-4.7,2.1-4.7H451c2.3,0,2.3,3,2.3,4.7c0,1.5,0,4.5-2.3,4.5H437.5z"/>
			<path class="st0" d="M502,560.5c-7,0-23.5,0-23.5-19.6c0-2.3,2.7-2.3,4.5-2.3c1.9,0,4.5,0,4.5,2.3c0,9.7,5.5,10.4,14.7,10.4h0.5
				c11,0,16.3-0.4,16.3-10.3c0-7.6-6.2-9.7-16.4-12.3l-1.4-0.4c-9.7-2.7-21.8-6-21.8-19.6c0-17.9,15.1-17.9,24.1-17.9h0.3
				c6.4,0,23.3,0,23.3,19.2c0,2.3-2.8,2.3-4.7,2.3c-2,0-4.7,0-4.7-2.3c0-9.3-5.5-10-14.5-10c-10.6,0-14.7,0.7-14.7,8.7
				c0,6.9,7.3,8.7,15,10.7l1.9,0.5l1.2,0.3c8.6,2.3,21.5,5.8,21.5,20.8c0,19.3-16.6,19.3-24.6,19.3L502,560.5z"/>
			<path class="st0" d="M548.9,568.9c-2.3,0-2.3-3.1-2.3-4.5c0-1.6,0-4.7,2.3-4.7l2.3,0c9.7,0,18.4-2.1,18.4-26.9
				c0-8.4,0-15.1,6.7-19.5c-6.7-4.4-6.7-11.1-6.7-19.4c0-24.9-8.7-26.9-18.4-26.9l-2.3,0c-2.3,0-2.3-3-2.3-4.7c0-1.5,0-4.5,2.3-4.5
				l1,0c10.8,0,29,0,29,36.1v0.3c0,5.2,0,8.9,1.7,11.2c1.8,2.4,5.7,3.4,12.8,3.4h4.4c2.1,0,2.1,2.4,2.1,4.5c0,2.1,0,4.5-2.1,4.5
				h-4.4c-7.1,0-11,1.1-12.8,3.4c-1.7,2.3-1.7,6-1.7,11.2v0.3c0,36.1-18.1,36.1-29,36.1L548.9,568.9z"/>
		</g>
	</g>
</g>
</svg>
