<?xml version="1.0" encoding="utf-8"?>
<!-- Generator: Adobe Illustrator 21.1.0, SVG Export Plug-In . SVG Version: 6.00 Build 0)  -->
<!DOCTYPE svg PUBLIC "-//W3C//DTD SVG 1.1//EN" "http://www.w3.org/Graphics/SVG/1.1/DTD/svg11.dtd">
<svg version="1.1" id="Ebene_1" xmlns="http://www.w3.org/2000/svg" xmlns:xlink="http://www.w3.org/1999/xlink" x="0px" y="0px"
	 width="1316.9px" height="726.4px" viewBox="0 0 1316.9 726.4" style="enable-background:new 0 0 1316.9 726.4;"
	 xml:space="preserve">
<style type="text/css">
	.st0{fill:url(#SVGID_1_);}
</style>
<linearGradient id="SVGID_1_" gradientUnits="userSpaceOnUse" x1="0" y1="363.1953" x2="1316.9083" y2="363.1953">
	<stop  offset="0" style="stop-color:#7C45BA"/>
	<stop  offset="1" style="stop-color:#FC6F1D"/>
</linearGradient>
<path class="st0" d="M727.3,9.9c2.7,0,4.9-2.2,4.9-4.9S730.1,0,727.3,0c-2.7,0-4.9,2.2-4.9,4.9S724.6,9.9,727.3,9.9z M1030.5,9.9
	c2.7,0,4.9-2.2,4.9-4.9s-2.2-4.9-4.9-4.9c-2.7,0-4.9,2.2-4.9,4.9S1027.8,9.9,1030.5,9.9z M727.3,37.4c2.7,0,4.9-2.2,4.9-4.9
	c0-2.7-2.2-4.9-4.9-4.9c-2.7,0-4.9,2.2-4.9,4.9C722.4,35.2,724.6,37.4,727.3,37.4z M754.9,37.4c2.7,0,4.9-2.2,4.9-4.9
	c0-2.7-2.2-4.9-4.9-4.9s-4.9,2.2-4.9,4.9C750,35.2,752.2,37.4,754.9,37.4z M810,37.4c2.7,0,4.9-2.2,4.9-4.9c0-2.7-2.2-4.9-4.9-4.9
	s-4.9,2.2-4.9,4.9C805.1,35.2,807.3,37.4,810,37.4z M1030.5,37.4c2.7,0,4.9-2.2,4.9-4.9c0-2.7-2.2-4.9-4.9-4.9
	c-2.7,0-4.9,2.2-4.9,4.9C1025.5,35.2,1027.8,37.4,1030.5,37.4z M479.3,65c2.7,0,4.9-2.2,4.9-4.9c0-2.7-2.2-4.9-4.9-4.9
	c-2.7,0-4.9,2.2-4.9,4.9C474.4,62.8,476.6,65,479.3,65z M589.6,65c2.7,0,4.9-2.2,4.9-4.9c0-2.7-2.2-4.9-4.9-4.9
	c-2.7,0-4.9,2.2-4.9,4.9C584.6,62.8,586.8,65,589.6,65z M617.1,65c2.7,0,4.9-2.2,4.9-4.9c0-2.7-2.2-4.9-4.9-4.9s-4.9,2.2-4.9,4.9
	C612.2,62.8,614.4,65,617.1,65z M699.8,65c2.7,0,4.9-2.2,4.9-4.9c0-2.7-2.2-4.9-4.9-4.9s-4.9,2.2-4.9,4.9
	C694.8,62.8,697.1,65,699.8,65z M727.3,65c2.7,0,4.9-2.2,4.9-4.9c0-2.7-2.2-4.9-4.9-4.9c-2.7,0-4.9,2.2-4.9,4.9
	C722.4,62.8,724.6,65,727.3,65z M754.9,65c2.7,0,4.9-2.2,4.9-4.9c0-2.7-2.2-4.9-4.9-4.9s-4.9,2.2-4.9,4.9
	C750,62.8,752.2,65,754.9,65z M810,65c2.7,0,4.9-2.2,4.9-4.9c0-2.7-2.2-4.9-4.9-4.9s-4.9,2.2-4.9,4.9C805.1,62.8,807.3,65,810,65z
	 M975.4,65c2.7,0,4.9-2.2,4.9-4.9c0-2.7-2.2-4.9-4.9-4.9c-2.7,0-4.9,2.2-4.9,4.9C970.4,62.8,972.6,65,975.4,65z M1030.5,65
	c2.7,0,4.9-2.2,4.9-4.9c0-2.7-2.2-4.9-4.9-4.9c-2.7,0-4.9,2.2-4.9,4.9C1025.5,62.8,1027.8,65,1030.5,65z M203.7,92.6
	c2.7,0,4.9-2.2,4.9-4.9c0-2.7-2.2-4.9-4.9-4.9s-4.9,2.2-4.9,4.9C198.8,90.3,201,92.6,203.7,92.6z M231.3,92.6c2.7,0,4.9-2.2,4.9-4.9
	c0-2.7-2.2-4.9-4.9-4.9c-2.7,0-4.9,2.2-4.9,4.9C226.4,90.3,228.6,92.6,231.3,92.6z M424.2,92.6c2.7,0,4.9-2.2,4.9-4.9
	c0-2.7-2.2-4.9-4.9-4.9c-2.7,0-4.9,2.2-4.9,4.9C419.3,90.3,421.5,92.6,424.2,92.6z M479.3,92.6c2.7,0,4.9-2.2,4.9-4.9
	c0-2.7-2.2-4.9-4.9-4.9c-2.7,0-4.9,2.2-4.9,4.9C474.4,90.3,476.6,92.6,479.3,92.6z M534.4,92.6c2.7,0,4.9-2.2,4.9-4.9
	c0-2.7-2.2-4.9-4.9-4.9c-2.7,0-4.9,2.2-4.9,4.9C529.5,90.3,531.7,92.6,534.4,92.6z M589.6,92.6c2.7,0,4.9-2.2,4.9-4.9
	c0-2.7-2.2-4.9-4.9-4.9c-2.7,0-4.9,2.2-4.9,4.9C584.6,90.3,586.8,92.6,589.6,92.6z M617.1,92.6c2.7,0,4.9-2.2,4.9-4.9
	c0-2.7-2.2-4.9-4.9-4.9s-4.9,2.2-4.9,4.9C612.2,90.3,614.4,92.6,617.1,92.6z M644.7,92.6c2.7,0,4.9-2.2,4.9-4.9
	c0-2.7-2.2-4.9-4.9-4.9c-2.7,0-4.9,2.2-4.9,4.9C639.7,90.3,641.9,92.6,644.7,92.6z M699.8,92.6c2.7,0,4.9-2.2,4.9-4.9
	c0-2.7-2.2-4.9-4.9-4.9s-4.9,2.2-4.9,4.9C694.8,90.3,697.1,92.6,699.8,92.6z M727.3,92.6c2.7,0,4.9-2.2,4.9-4.9
	c0-2.7-2.2-4.9-4.9-4.9c-2.7,0-4.9,2.2-4.9,4.9C722.4,90.3,724.6,92.6,727.3,92.6z M754.9,92.6c2.7,0,4.9-2.2,4.9-4.9
	c0-2.7-2.2-4.9-4.9-4.9s-4.9,2.2-4.9,4.9C750,90.3,752.2,92.6,754.9,92.6z M782.5,92.6c2.7,0,4.9-2.2,4.9-4.9c0-2.7-2.2-4.9-4.9-4.9
	c-2.7,0-4.9,2.2-4.9,4.9C777.5,90.3,779.7,92.6,782.5,92.6z M810,92.6c2.7,0,4.9-2.2,4.9-4.9c0-2.7-2.2-4.9-4.9-4.9
	s-4.9,2.2-4.9,4.9C805.1,90.3,807.3,92.6,810,92.6z M865.1,92.6c2.7,0,4.9-2.2,4.9-4.9c0-2.7-2.2-4.9-4.9-4.9
	c-2.7,0-4.9,2.2-4.9,4.9C860.2,90.3,862.4,92.6,865.1,92.6z M920.3,92.6c2.7,0,4.9-2.2,4.9-4.9c0-2.7-2.2-4.9-4.9-4.9
	c-2.7,0-4.9,2.2-4.9,4.9C915.3,90.3,917.5,92.6,920.3,92.6z M947.8,92.6c2.7,0,4.9-2.2,4.9-4.9c0-2.7-2.2-4.9-4.9-4.9
	s-4.9,2.2-4.9,4.9C942.9,90.3,945.1,92.6,947.8,92.6z M975.4,92.6c2.7,0,4.9-2.2,4.9-4.9c0-2.7-2.2-4.9-4.9-4.9
	c-2.7,0-4.9,2.2-4.9,4.9C970.4,90.3,972.6,92.6,975.4,92.6z M1002.9,92.6c2.7,0,4.9-2.2,4.9-4.9c0-2.7-2.2-4.9-4.9-4.9
	c-2.7,0-4.9,2.2-4.9,4.9C998,90.3,1000.2,92.6,1002.9,92.6z M1030.5,92.6c2.7,0,4.9-2.2,4.9-4.9c0-2.7-2.2-4.9-4.9-4.9
	c-2.7,0-4.9,2.2-4.9,4.9C1025.5,90.3,1027.8,92.6,1030.5,92.6z M1085.6,92.6c2.7,0,4.9-2.2,4.9-4.9c0-2.7-2.2-4.9-4.9-4.9
	s-4.9,2.2-4.9,4.9C1080.7,90.3,1082.9,92.6,1085.6,92.6z M203.7,120.1c2.7,0,4.9-2.2,4.9-4.9s-2.2-4.9-4.9-4.9s-4.9,2.2-4.9,4.9
	S201,120.1,203.7,120.1z M231.3,120.1c2.7,0,4.9-2.2,4.9-4.9s-2.2-4.9-4.9-4.9c-2.7,0-4.9,2.2-4.9,4.9S228.6,120.1,231.3,120.1z
	 M369.1,120.1c2.7,0,4.9-2.2,4.9-4.9s-2.2-4.9-4.9-4.9s-4.9,2.2-4.9,4.9S366.4,120.1,369.1,120.1z M396.7,120.1
	c2.7,0,4.9-2.2,4.9-4.9s-2.2-4.9-4.9-4.9s-4.9,2.2-4.9,4.9S393.9,120.1,396.7,120.1z M424.2,120.1c2.7,0,4.9-2.2,4.9-4.9
	s-2.2-4.9-4.9-4.9c-2.7,0-4.9,2.2-4.9,4.9S421.5,120.1,424.2,120.1z M479.3,120.1c2.7,0,4.9-2.2,4.9-4.9s-2.2-4.9-4.9-4.9
	c-2.7,0-4.9,2.2-4.9,4.9S476.6,120.1,479.3,120.1z M534.4,120.1c2.7,0,4.9-2.2,4.9-4.9s-2.2-4.9-4.9-4.9c-2.7,0-4.9,2.2-4.9,4.9
	S531.7,120.1,534.4,120.1z M562,120.1c2.7,0,4.9-2.2,4.9-4.9s-2.2-4.9-4.9-4.9s-4.9,2.2-4.9,4.9S559.3,120.1,562,120.1z
	 M589.6,120.1c2.7,0,4.9-2.2,4.9-4.9s-2.2-4.9-4.9-4.9c-2.7,0-4.9,2.2-4.9,4.9S586.8,120.1,589.6,120.1z M617.1,120.1
	c2.7,0,4.9-2.2,4.9-4.9s-2.2-4.9-4.9-4.9s-4.9,2.2-4.9,4.9S614.4,120.1,617.1,120.1z M644.7,120.1c2.7,0,4.9-2.2,4.9-4.9
	s-2.2-4.9-4.9-4.9c-2.7,0-4.9,2.2-4.9,4.9S641.9,120.1,644.7,120.1z M672.2,120.1c2.7,0,4.9-2.2,4.9-4.9s-2.2-4.9-4.9-4.9
	c-2.7,0-4.9,2.2-4.9,4.9S669.5,120.1,672.2,120.1z M699.8,120.1c2.7,0,4.9-2.2,4.9-4.9s-2.2-4.9-4.9-4.9s-4.9,2.2-4.9,4.9
	S697.1,120.1,699.8,120.1z M727.3,120.1c2.7,0,4.9-2.2,4.9-4.9s-2.2-4.9-4.9-4.9c-2.7,0-4.9,2.2-4.9,4.9S724.6,120.1,727.3,120.1z
	 M754.9,120.1c2.7,0,4.9-2.2,4.9-4.9s-2.2-4.9-4.9-4.9s-4.9,2.2-4.9,4.9S752.2,120.1,754.9,120.1z M782.5,120.1
	c2.7,0,4.9-2.2,4.9-4.9s-2.2-4.9-4.9-4.9c-2.7,0-4.9,2.2-4.9,4.9S779.7,120.1,782.5,120.1z M810,120.1c2.7,0,4.9-2.2,4.9-4.9
	s-2.2-4.9-4.9-4.9s-4.9,2.2-4.9,4.9S807.3,120.1,810,120.1z M865.1,120.1c2.7,0,4.9-2.2,4.9-4.9s-2.2-4.9-4.9-4.9
	c-2.7,0-4.9,2.2-4.9,4.9S862.4,120.1,865.1,120.1z M920.3,120.1c2.7,0,4.9-2.2,4.9-4.9s-2.2-4.9-4.9-4.9c-2.7,0-4.9,2.2-4.9,4.9
	S917.5,120.1,920.3,120.1z M947.8,120.1c2.7,0,4.9-2.2,4.9-4.9s-2.2-4.9-4.9-4.9s-4.9,2.2-4.9,4.9S945.1,120.1,947.8,120.1z
	 M975.4,120.1c2.7,0,4.9-2.2,4.9-4.9s-2.2-4.9-4.9-4.9c-2.7,0-4.9,2.2-4.9,4.9S972.6,120.1,975.4,120.1z M1002.9,120.1
	c2.7,0,4.9-2.2,4.9-4.9s-2.2-4.9-4.9-4.9c-2.7,0-4.9,2.2-4.9,4.9S1000.2,120.1,1002.9,120.1z M1030.5,120.1c2.7,0,4.9-2.2,4.9-4.9
	s-2.2-4.9-4.9-4.9c-2.7,0-4.9,2.2-4.9,4.9S1027.8,120.1,1030.5,120.1z M1085.6,120.1c2.7,0,4.9-2.2,4.9-4.9s-2.2-4.9-4.9-4.9
	s-4.9,2.2-4.9,4.9S1082.9,120.1,1085.6,120.1z M93.5,147.7c2.7,0,4.9-2.2,4.9-4.9c0-2.7-2.2-4.9-4.9-4.9c-2.7,0-4.9,2.2-4.9,4.9
	C88.6,145.5,90.8,147.7,93.5,147.7z M148.6,147.7c2.7,0,4.9-2.2,4.9-4.9c0-2.7-2.2-4.9-4.9-4.9c-2.7,0-4.9,2.2-4.9,4.9
	C143.7,145.5,145.9,147.7,148.6,147.7z M203.7,147.7c2.7,0,4.9-2.2,4.9-4.9c0-2.7-2.2-4.9-4.9-4.9s-4.9,2.2-4.9,4.9
	C198.8,145.5,201,147.7,203.7,147.7z M231.3,147.7c2.7,0,4.9-2.2,4.9-4.9c0-2.7-2.2-4.9-4.9-4.9c-2.7,0-4.9,2.2-4.9,4.9
	C226.4,145.5,228.6,147.7,231.3,147.7z M369.1,147.7c2.7,0,4.9-2.2,4.9-4.9c0-2.7-2.2-4.9-4.9-4.9s-4.9,2.2-4.9,4.9
	C364.2,145.5,366.4,147.7,369.1,147.7z M396.7,147.7c2.7,0,4.9-2.2,4.9-4.9c0-2.7-2.2-4.9-4.9-4.9s-4.9,2.2-4.9,4.9
	C391.7,145.5,393.9,147.7,396.7,147.7z M424.2,147.7c2.7,0,4.9-2.2,4.9-4.9c0-2.7-2.2-4.9-4.9-4.9c-2.7,0-4.9,2.2-4.9,4.9
	C419.3,145.5,421.5,147.7,424.2,147.7z M451.8,147.7c2.7,0,4.9-2.2,4.9-4.9c0-2.7-2.2-4.9-4.9-4.9c-2.7,0-4.9,2.2-4.9,4.9
	C446.8,145.5,449,147.7,451.8,147.7z M479.3,147.7c2.7,0,4.9-2.2,4.9-4.9c0-2.7-2.2-4.9-4.9-4.9c-2.7,0-4.9,2.2-4.9,4.9
	C474.4,145.5,476.6,147.7,479.3,147.7z M506.9,147.7c2.7,0,4.9-2.2,4.9-4.9c0-2.7-2.2-4.9-4.9-4.9c-2.7,0-4.9,2.2-4.9,4.9
	C501.9,145.5,504.2,147.7,506.9,147.7z M534.4,147.7c2.7,0,4.9-2.2,4.9-4.9c0-2.7-2.2-4.9-4.9-4.9c-2.7,0-4.9,2.2-4.9,4.9
	C529.5,145.5,531.7,147.7,534.4,147.7z M562,147.7c2.7,0,4.9-2.2,4.9-4.9c0-2.7-2.2-4.9-4.9-4.9s-4.9,2.2-4.9,4.9
	C557.1,145.5,559.3,147.7,562,147.7z M589.6,147.7c2.7,0,4.9-2.2,4.9-4.9c0-2.7-2.2-4.9-4.9-4.9c-2.7,0-4.9,2.2-4.9,4.9
	C584.6,145.5,586.8,147.7,589.6,147.7z M617.1,147.7c2.7,0,4.9-2.2,4.9-4.9c0-2.7-2.2-4.9-4.9-4.9s-4.9,2.2-4.9,4.9
	C612.2,145.5,614.4,147.7,617.1,147.7z M644.7,147.7c2.7,0,4.9-2.2,4.9-4.9c0-2.7-2.2-4.9-4.9-4.9c-2.7,0-4.9,2.2-4.9,4.9
	C639.7,145.5,641.9,147.7,644.7,147.7z M672.2,147.7c2.7,0,4.9-2.2,4.9-4.9c0-2.7-2.2-4.9-4.9-4.9c-2.7,0-4.9,2.2-4.9,4.9
	C667.3,145.5,669.5,147.7,672.2,147.7z M699.8,147.7c2.7,0,4.9-2.2,4.9-4.9c0-2.7-2.2-4.9-4.9-4.9s-4.9,2.2-4.9,4.9
	C694.8,145.5,697.1,147.7,699.8,147.7z M727.3,147.7c2.7,0,4.9-2.2,4.9-4.9c0-2.7-2.2-4.9-4.9-4.9c-2.7,0-4.9,2.2-4.9,4.9
	C722.4,145.5,724.6,147.7,727.3,147.7z M754.9,147.7c2.7,0,4.9-2.2,4.9-4.9c0-2.7-2.2-4.9-4.9-4.9s-4.9,2.2-4.9,4.9
	C750,145.5,752.2,147.7,754.9,147.7z M782.5,147.7c2.7,0,4.9-2.2,4.9-4.9c0-2.7-2.2-4.9-4.9-4.9c-2.7,0-4.9,2.2-4.9,4.9
	C777.5,145.5,779.7,147.7,782.5,147.7z M810,147.7c2.7,0,4.9-2.2,4.9-4.9c0-2.7-2.2-4.9-4.9-4.9s-4.9,2.2-4.9,4.9
	C805.1,145.5,807.3,147.7,810,147.7z M837.6,147.7c2.7,0,4.9-2.2,4.9-4.9c0-2.7-2.2-4.9-4.9-4.9c-2.7,0-4.9,2.2-4.9,4.9
	C832.6,145.5,834.9,147.7,837.6,147.7z M865.1,147.7c2.7,0,4.9-2.2,4.9-4.9c0-2.7-2.2-4.9-4.9-4.9c-2.7,0-4.9,2.2-4.9,4.9
	C860.2,145.5,862.4,147.7,865.1,147.7z M892.7,147.7c2.7,0,4.9-2.2,4.9-4.9c0-2.7-2.2-4.9-4.9-4.9s-4.9,2.2-4.9,4.9
	C887.8,145.5,890,147.7,892.7,147.7z M920.3,147.7c2.7,0,4.9-2.2,4.9-4.9c0-2.7-2.2-4.9-4.9-4.9c-2.7,0-4.9,2.2-4.9,4.9
	C915.3,145.5,917.5,147.7,920.3,147.7z M947.8,147.7c2.7,0,4.9-2.2,4.9-4.9c0-2.7-2.2-4.9-4.9-4.9s-4.9,2.2-4.9,4.9
	C942.9,145.5,945.1,147.7,947.8,147.7z M975.4,147.7c2.7,0,4.9-2.2,4.9-4.9c0-2.7-2.2-4.9-4.9-4.9c-2.7,0-4.9,2.2-4.9,4.9
	C970.4,145.5,972.6,147.7,975.4,147.7z M1002.9,147.7c2.7,0,4.9-2.2,4.9-4.9c0-2.7-2.2-4.9-4.9-4.9c-2.7,0-4.9,2.2-4.9,4.9
	C998,145.5,1000.2,147.7,1002.9,147.7z M1030.5,147.7c2.7,0,4.9-2.2,4.9-4.9c0-2.7-2.2-4.9-4.9-4.9c-2.7,0-4.9,2.2-4.9,4.9
	C1025.5,145.5,1027.8,147.7,1030.5,147.7z M1058,147.7c2.7,0,4.9-2.2,4.9-4.9c0-2.7-2.2-4.9-4.9-4.9c-2.7,0-4.9,2.2-4.9,4.9
	C1053.1,145.5,1055.3,147.7,1058,147.7z M1085.6,147.7c2.7,0,4.9-2.2,4.9-4.9c0-2.7-2.2-4.9-4.9-4.9s-4.9,2.2-4.9,4.9
	C1080.7,145.5,1082.9,147.7,1085.6,147.7z M93.5,175.2c2.7,0,4.9-2.2,4.9-4.9s-2.2-4.9-4.9-4.9c-2.7,0-4.9,2.2-4.9,4.9
	S90.8,175.2,93.5,175.2z M121.1,175.2c2.7,0,4.9-2.2,4.9-4.9s-2.2-4.9-4.9-4.9s-4.9,2.2-4.9,4.9S118.3,175.2,121.1,175.2z
	 M148.6,175.2c2.7,0,4.9-2.2,4.9-4.9s-2.2-4.9-4.9-4.9c-2.7,0-4.9,2.2-4.9,4.9S145.9,175.2,148.6,175.2z M176.2,175.2
	c2.7,0,4.9-2.2,4.9-4.9s-2.2-4.9-4.9-4.9c-2.7,0-4.9,2.2-4.9,4.9S173.5,175.2,176.2,175.2z M203.7,175.2c2.7,0,4.9-2.2,4.9-4.9
	s-2.2-4.9-4.9-4.9s-4.9,2.2-4.9,4.9S201,175.2,203.7,175.2z M231.3,175.2c2.7,0,4.9-2.2,4.9-4.9s-2.2-4.9-4.9-4.9
	c-2.7,0-4.9,2.2-4.9,4.9S228.6,175.2,231.3,175.2z M258.9,175.2c2.7,0,4.9-2.2,4.9-4.9s-2.2-4.9-4.9-4.9c-2.7,0-4.9,2.2-4.9,4.9
	S256.1,175.2,258.9,175.2z M286.4,175.2c2.7,0,4.9-2.2,4.9-4.9s-2.2-4.9-4.9-4.9c-2.7,0-4.9,2.2-4.9,4.9S283.7,175.2,286.4,175.2z
	 M369.1,175.2c2.7,0,4.9-2.2,4.9-4.9s-2.2-4.9-4.9-4.9s-4.9,2.2-4.9,4.9S366.4,175.2,369.1,175.2z M396.7,175.2
	c2.7,0,4.9-2.2,4.9-4.9s-2.2-4.9-4.9-4.9s-4.9,2.2-4.9,4.9S393.9,175.2,396.7,175.2z M424.2,175.2c2.7,0,4.9-2.2,4.9-4.9
	s-2.2-4.9-4.9-4.9c-2.7,0-4.9,2.2-4.9,4.9S421.5,175.2,424.2,175.2z M451.8,175.2c2.7,0,4.9-2.2,4.9-4.9s-2.2-4.9-4.9-4.9
	c-2.7,0-4.9,2.2-4.9,4.9S449,175.2,451.8,175.2z M479.3,175.2c2.7,0,4.9-2.2,4.9-4.9s-2.2-4.9-4.9-4.9c-2.7,0-4.9,2.2-4.9,4.9
	S476.6,175.2,479.3,175.2z M506.9,175.2c2.7,0,4.9-2.2,4.9-4.9s-2.2-4.9-4.9-4.9c-2.7,0-4.9,2.2-4.9,4.9S504.2,175.2,506.9,175.2z
	 M534.4,175.2c2.7,0,4.9-2.2,4.9-4.9s-2.2-4.9-4.9-4.9c-2.7,0-4.9,2.2-4.9,4.9S531.7,175.2,534.4,175.2z M562,175.2
	c2.7,0,4.9-2.2,4.9-4.9s-2.2-4.9-4.9-4.9s-4.9,2.2-4.9,4.9S559.3,175.2,562,175.2z M589.6,175.2c2.7,0,4.9-2.2,4.9-4.9
	s-2.2-4.9-4.9-4.9c-2.7,0-4.9,2.2-4.9,4.9S586.8,175.2,589.6,175.2z M617.1,175.2c2.7,0,4.9-2.2,4.9-4.9s-2.2-4.9-4.9-4.9
	s-4.9,2.2-4.9,4.9S614.4,175.2,617.1,175.2z M644.7,175.2c2.7,0,4.9-2.2,4.9-4.9s-2.2-4.9-4.9-4.9c-2.7,0-4.9,2.2-4.9,4.9
	S641.9,175.2,644.7,175.2z M672.2,175.2c2.7,0,4.9-2.2,4.9-4.9s-2.2-4.9-4.9-4.9c-2.7,0-4.9,2.2-4.9,4.9S669.5,175.2,672.2,175.2z
	 M699.8,175.2c2.7,0,4.9-2.2,4.9-4.9s-2.2-4.9-4.9-4.9s-4.9,2.2-4.9,4.9S697.1,175.2,699.8,175.2z M727.3,175.2
	c2.7,0,4.9-2.2,4.9-4.9s-2.2-4.9-4.9-4.9c-2.7,0-4.9,2.2-4.9,4.9S724.6,175.2,727.3,175.2z M754.9,175.2c2.7,0,4.9-2.2,4.9-4.9
	s-2.2-4.9-4.9-4.9s-4.9,2.2-4.9,4.9S752.2,175.2,754.9,175.2z M782.5,175.2c2.7,0,4.9-2.2,4.9-4.9s-2.2-4.9-4.9-4.9
	c-2.7,0-4.9,2.2-4.9,4.9S779.7,175.2,782.5,175.2z M810,175.2c2.7,0,4.9-2.2,4.9-4.9s-2.2-4.9-4.9-4.9s-4.9,2.2-4.9,4.9
	S807.3,175.2,810,175.2z M837.6,175.2c2.7,0,4.9-2.2,4.9-4.9s-2.2-4.9-4.9-4.9c-2.7,0-4.9,2.2-4.9,4.9S834.9,175.2,837.6,175.2z
	 M865.1,175.2c2.7,0,4.9-2.2,4.9-4.9s-2.2-4.9-4.9-4.9c-2.7,0-4.9,2.2-4.9,4.9S862.4,175.2,865.1,175.2z M892.7,175.2
	c2.7,0,4.9-2.2,4.9-4.9s-2.2-4.9-4.9-4.9s-4.9,2.2-4.9,4.9S890,175.2,892.7,175.2z M920.3,175.2c2.7,0,4.9-2.2,4.9-4.9
	s-2.2-4.9-4.9-4.9c-2.7,0-4.9,2.2-4.9,4.9S917.5,175.2,920.3,175.2z M947.8,175.2c2.7,0,4.9-2.2,4.9-4.9s-2.2-4.9-4.9-4.9
	s-4.9,2.2-4.9,4.9S945.1,175.2,947.8,175.2z M975.4,175.2c2.7,0,4.9-2.2,4.9-4.9s-2.2-4.9-4.9-4.9c-2.7,0-4.9,2.2-4.9,4.9
	S972.6,175.2,975.4,175.2z M1002.9,175.2c2.7,0,4.9-2.2,4.9-4.9s-2.2-4.9-4.9-4.9c-2.7,0-4.9,2.2-4.9,4.9S1000.2,175.2,1002.9,175.2
	z M1030.5,175.2c2.7,0,4.9-2.2,4.9-4.9s-2.2-4.9-4.9-4.9c-2.7,0-4.9,2.2-4.9,4.9S1027.8,175.2,1030.5,175.2z M1058,175.2
	c2.7,0,4.9-2.2,4.9-4.9s-2.2-4.9-4.9-4.9c-2.7,0-4.9,2.2-4.9,4.9S1055.3,175.2,1058,175.2z M1085.6,175.2c2.7,0,4.9-2.2,4.9-4.9
	s-2.2-4.9-4.9-4.9s-4.9,2.2-4.9,4.9S1082.9,175.2,1085.6,175.2z M93.5,202.8c2.7,0,4.9-2.2,4.9-4.9c0-2.7-2.2-4.9-4.9-4.9
	c-2.7,0-4.9,2.2-4.9,4.9C88.6,200.6,90.8,202.8,93.5,202.8z M121.1,202.8c2.7,0,4.9-2.2,4.9-4.9c0-2.7-2.2-4.9-4.9-4.9
	s-4.9,2.2-4.9,4.9C116.1,200.6,118.3,202.8,121.1,202.8z M148.6,202.8c2.7,0,4.9-2.2,4.9-4.9c0-2.7-2.2-4.9-4.9-4.9
	c-2.7,0-4.9,2.2-4.9,4.9C143.7,200.6,145.9,202.8,148.6,202.8z M176.2,202.8c2.7,0,4.9-2.2,4.9-4.9c0-2.7-2.2-4.9-4.9-4.9
	c-2.7,0-4.9,2.2-4.9,4.9C171.2,200.6,173.5,202.8,176.2,202.8z M203.7,202.8c2.7,0,4.9-2.2,4.9-4.9c0-2.7-2.2-4.9-4.9-4.9
	s-4.9,2.2-4.9,4.9C198.8,200.6,201,202.8,203.7,202.8z M231.3,202.8c2.7,0,4.9-2.2,4.9-4.9c0-2.7-2.2-4.9-4.9-4.9
	c-2.7,0-4.9,2.2-4.9,4.9C226.4,200.6,228.6,202.8,231.3,202.8z M258.9,202.8c2.7,0,4.9-2.2,4.9-4.9c0-2.7-2.2-4.9-4.9-4.9
	c-2.7,0-4.9,2.2-4.9,4.9C253.9,200.6,256.1,202.8,258.9,202.8z M286.4,202.8c2.7,0,4.9-2.2,4.9-4.9c0-2.7-2.2-4.9-4.9-4.9
	c-2.7,0-4.9,2.2-4.9,4.9C281.5,200.6,283.7,202.8,286.4,202.8z M341.5,202.8c2.7,0,4.9-2.2,4.9-4.9c0-2.7-2.2-4.9-4.9-4.9
	c-2.7,0-4.9,2.2-4.9,4.9C336.6,200.6,338.8,202.8,341.5,202.8z M369.1,202.8c2.7,0,4.9-2.2,4.9-4.9c0-2.7-2.2-4.9-4.9-4.9
	s-4.9,2.2-4.9,4.9C364.2,200.6,366.4,202.8,369.1,202.8z M396.7,202.8c2.7,0,4.9-2.2,4.9-4.9c0-2.7-2.2-4.9-4.9-4.9
	s-4.9,2.2-4.9,4.9C391.7,200.6,393.9,202.8,396.7,202.8z M424.2,202.8c2.7,0,4.9-2.2,4.9-4.9c0-2.7-2.2-4.9-4.9-4.9
	c-2.7,0-4.9,2.2-4.9,4.9C419.3,200.6,421.5,202.8,424.2,202.8z M451.8,202.8c2.7,0,4.9-2.2,4.9-4.9c0-2.7-2.2-4.9-4.9-4.9
	c-2.7,0-4.9,2.2-4.9,4.9C446.8,200.6,449,202.8,451.8,202.8z M479.3,202.8c2.7,0,4.9-2.2,4.9-4.9c0-2.7-2.2-4.9-4.9-4.9
	c-2.7,0-4.9,2.2-4.9,4.9C474.4,200.6,476.6,202.8,479.3,202.8z M506.9,202.8c2.7,0,4.9-2.2,4.9-4.9c0-2.7-2.2-4.9-4.9-4.9
	c-2.7,0-4.9,2.2-4.9,4.9C501.9,200.6,504.2,202.8,506.9,202.8z M534.4,202.8c2.7,0,4.9-2.2,4.9-4.9c0-2.7-2.2-4.9-4.9-4.9
	c-2.7,0-4.9,2.2-4.9,4.9C529.5,200.6,531.7,202.8,534.4,202.8z M562,202.8c2.7,0,4.9-2.2,4.9-4.9c0-2.7-2.2-4.9-4.9-4.9
	s-4.9,2.2-4.9,4.9C557.1,200.6,559.3,202.8,562,202.8z M589.6,202.8c2.7,0,4.9-2.2,4.9-4.9c0-2.7-2.2-4.9-4.9-4.9
	c-2.7,0-4.9,2.2-4.9,4.9C584.6,200.6,586.8,202.8,589.6,202.8z M617.1,202.8c2.7,0,4.9-2.2,4.9-4.9c0-2.7-2.2-4.9-4.9-4.9
	s-4.9,2.2-4.9,4.9C612.2,200.6,614.4,202.8,617.1,202.8z M644.7,202.8c2.7,0,4.9-2.2,4.9-4.9c0-2.7-2.2-4.9-4.9-4.9
	c-2.7,0-4.9,2.2-4.9,4.9C639.7,200.6,641.9,202.8,644.7,202.8z M672.2,202.8c2.7,0,4.9-2.2,4.9-4.9c0-2.7-2.2-4.9-4.9-4.9
	c-2.7,0-4.9,2.2-4.9,4.9C667.3,200.6,669.5,202.8,672.2,202.8z M699.8,202.8c2.7,0,4.9-2.2,4.9-4.9c0-2.7-2.2-4.9-4.9-4.9
	s-4.9,2.2-4.9,4.9C694.8,200.6,697.1,202.8,699.8,202.8z M727.3,202.8c2.7,0,4.9-2.2,4.9-4.9c0-2.7-2.2-4.9-4.9-4.9
	c-2.7,0-4.9,2.2-4.9,4.9C722.4,200.6,724.6,202.8,727.3,202.8z M754.9,202.8c2.7,0,4.9-2.2,4.9-4.9c0-2.7-2.2-4.9-4.9-4.9
	s-4.9,2.2-4.9,4.9C750,200.6,752.2,202.8,754.9,202.8z M782.5,202.8c2.7,0,4.9-2.2,4.9-4.9c0-2.7-2.2-4.9-4.9-4.9
	c-2.7,0-4.9,2.2-4.9,4.9C777.5,200.6,779.7,202.8,782.5,202.8z M810,202.8c2.7,0,4.9-2.2,4.9-4.9c0-2.7-2.2-4.9-4.9-4.9
	s-4.9,2.2-4.9,4.9C805.1,200.6,807.3,202.8,810,202.8z M837.6,202.8c2.7,0,4.9-2.2,4.9-4.9c0-2.7-2.2-4.9-4.9-4.9
	c-2.7,0-4.9,2.2-4.9,4.9C832.6,200.6,834.9,202.8,837.6,202.8z M865.1,202.8c2.7,0,4.9-2.2,4.9-4.9c0-2.7-2.2-4.9-4.9-4.9
	c-2.7,0-4.9,2.2-4.9,4.9C860.2,200.6,862.4,202.8,865.1,202.8z M892.7,202.8c2.7,0,4.9-2.2,4.9-4.9c0-2.7-2.2-4.9-4.9-4.9
	s-4.9,2.2-4.9,4.9C887.8,200.6,890,202.8,892.7,202.8z M920.3,202.8c2.7,0,4.9-2.2,4.9-4.9c0-2.7-2.2-4.9-4.9-4.9
	c-2.7,0-4.9,2.2-4.9,4.9C915.3,200.6,917.5,202.8,920.3,202.8z M947.8,202.8c2.7,0,4.9-2.2,4.9-4.9c0-2.7-2.2-4.9-4.9-4.9
	s-4.9,2.2-4.9,4.9C942.9,200.6,945.1,202.8,947.8,202.8z M975.4,202.8c2.7,0,4.9-2.2,4.9-4.9c0-2.7-2.2-4.9-4.9-4.9
	c-2.7,0-4.9,2.2-4.9,4.9C970.4,200.6,972.6,202.8,975.4,202.8z M1002.9,202.8c2.7,0,4.9-2.2,4.9-4.9c0-2.7-2.2-4.9-4.9-4.9
	c-2.7,0-4.9,2.2-4.9,4.9C998,200.6,1000.2,202.8,1002.9,202.8z M1030.5,202.8c2.7,0,4.9-2.2,4.9-4.9c0-2.7-2.2-4.9-4.9-4.9
	c-2.7,0-4.9,2.2-4.9,4.9C1025.5,200.6,1027.8,202.8,1030.5,202.8z M1058,202.8c2.7,0,4.9-2.2,4.9-4.9c0-2.7-2.2-4.9-4.9-4.9
	c-2.7,0-4.9,2.2-4.9,4.9C1053.1,200.6,1055.3,202.8,1058,202.8z M1085.6,202.8c2.7,0,4.9-2.2,4.9-4.9c0-2.7-2.2-4.9-4.9-4.9
	s-4.9,2.2-4.9,4.9C1080.7,200.6,1082.9,202.8,1085.6,202.8z M1113.2,202.8c2.7,0,4.9-2.2,4.9-4.9c0-2.7-2.2-4.9-4.9-4.9
	s-4.9,2.2-4.9,4.9C1108.2,200.6,1110.4,202.8,1113.2,202.8z M66,230.3c2.7,0,4.9-2.2,4.9-4.9c0-2.7-2.2-4.9-4.9-4.9
	s-4.9,2.2-4.9,4.9C61,228.1,63.2,230.3,66,230.3z M93.5,230.3c2.7,0,4.9-2.2,4.9-4.9c0-2.7-2.2-4.9-4.9-4.9c-2.7,0-4.9,2.2-4.9,4.9
	C88.6,228.1,90.8,230.3,93.5,230.3z M121.1,230.3c2.7,0,4.9-2.2,4.9-4.9c0-2.7-2.2-4.9-4.9-4.9s-4.9,2.2-4.9,4.9
	C116.1,228.1,118.3,230.3,121.1,230.3z M148.6,230.3c2.7,0,4.9-2.2,4.9-4.9c0-2.7-2.2-4.9-4.9-4.9c-2.7,0-4.9,2.2-4.9,4.9
	C143.7,228.1,145.9,230.3,148.6,230.3z M176.2,230.3c2.7,0,4.9-2.2,4.9-4.9c0-2.7-2.2-4.9-4.9-4.9c-2.7,0-4.9,2.2-4.9,4.9
	C171.2,228.1,173.5,230.3,176.2,230.3z M203.7,230.3c2.7,0,4.9-2.2,4.9-4.9c0-2.7-2.2-4.9-4.9-4.9s-4.9,2.2-4.9,4.9
	C198.8,228.1,201,230.3,203.7,230.3z M231.3,230.3c2.7,0,4.9-2.2,4.9-4.9c0-2.7-2.2-4.9-4.9-4.9c-2.7,0-4.9,2.2-4.9,4.9
	C226.4,228.1,228.6,230.3,231.3,230.3z M258.9,230.3c2.7,0,4.9-2.2,4.9-4.9c0-2.7-2.2-4.9-4.9-4.9c-2.7,0-4.9,2.2-4.9,4.9
	C253.9,228.1,256.1,230.3,258.9,230.3z M286.4,230.3c2.7,0,4.9-2.2,4.9-4.9c0-2.7-2.2-4.9-4.9-4.9c-2.7,0-4.9,2.2-4.9,4.9
	C281.5,228.1,283.7,230.3,286.4,230.3z M341.5,230.3c2.7,0,4.9-2.2,4.9-4.9c0-2.7-2.2-4.9-4.9-4.9c-2.7,0-4.9,2.2-4.9,4.9
	C336.6,228.1,338.8,230.3,341.5,230.3z M369.1,230.3c2.7,0,4.9-2.2,4.9-4.9c0-2.7-2.2-4.9-4.9-4.9s-4.9,2.2-4.9,4.9
	C364.2,228.1,366.4,230.3,369.1,230.3z M396.7,230.3c2.7,0,4.9-2.2,4.9-4.9c0-2.7-2.2-4.9-4.9-4.9s-4.9,2.2-4.9,4.9
	C391.7,228.1,393.9,230.3,396.7,230.3z M424.2,230.3c2.7,0,4.9-2.2,4.9-4.9c0-2.7-2.2-4.9-4.9-4.9c-2.7,0-4.9,2.2-4.9,4.9
	C419.3,228.1,421.5,230.3,424.2,230.3z M451.8,230.3c2.7,0,4.9-2.2,4.9-4.9c0-2.7-2.2-4.9-4.9-4.9c-2.7,0-4.9,2.2-4.9,4.9
	C446.8,228.1,449,230.3,451.8,230.3z M479.3,230.3c2.7,0,4.9-2.2,4.9-4.9c0-2.7-2.2-4.9-4.9-4.9c-2.7,0-4.9,2.2-4.9,4.9
	C474.4,228.1,476.6,230.3,479.3,230.3z M506.9,230.3c2.7,0,4.9-2.2,4.9-4.9c0-2.7-2.2-4.9-4.9-4.9c-2.7,0-4.9,2.2-4.9,4.9
	C501.9,228.1,504.2,230.3,506.9,230.3z M534.4,230.3c2.7,0,4.9-2.2,4.9-4.9c0-2.7-2.2-4.9-4.9-4.9c-2.7,0-4.9,2.2-4.9,4.9
	C529.5,228.1,531.7,230.3,534.4,230.3z M562,230.3c2.7,0,4.9-2.2,4.9-4.9c0-2.7-2.2-4.9-4.9-4.9s-4.9,2.2-4.9,4.9
	C557.1,228.1,559.3,230.3,562,230.3z M589.6,230.3c2.7,0,4.9-2.2,4.9-4.9c0-2.7-2.2-4.9-4.9-4.9c-2.7,0-4.9,2.2-4.9,4.9
	C584.6,228.1,586.8,230.3,589.6,230.3z M617.1,230.3c2.7,0,4.9-2.2,4.9-4.9c0-2.7-2.2-4.9-4.9-4.9s-4.9,2.2-4.9,4.9
	C612.2,228.1,614.4,230.3,617.1,230.3z M644.7,230.3c2.7,0,4.9-2.2,4.9-4.9c0-2.7-2.2-4.9-4.9-4.9c-2.7,0-4.9,2.2-4.9,4.9
	C639.7,228.1,641.9,230.3,644.7,230.3z M672.2,230.3c2.7,0,4.9-2.2,4.9-4.9c0-2.7-2.2-4.9-4.9-4.9c-2.7,0-4.9,2.2-4.9,4.9
	C667.3,228.1,669.5,230.3,672.2,230.3z M699.8,230.3c2.7,0,4.9-2.2,4.9-4.9c0-2.7-2.2-4.9-4.9-4.9s-4.9,2.2-4.9,4.9
	C694.8,228.1,697.1,230.3,699.8,230.3z M727.3,230.3c2.7,0,4.9-2.2,4.9-4.9c0-2.7-2.2-4.9-4.9-4.9c-2.7,0-4.9,2.2-4.9,4.9
	C722.4,228.1,724.6,230.3,727.3,230.3z M754.9,230.3c2.7,0,4.9-2.2,4.9-4.9c0-2.7-2.2-4.9-4.9-4.9s-4.9,2.2-4.9,4.9
	C750,228.1,752.2,230.3,754.9,230.3z M782.5,230.3c2.7,0,4.9-2.2,4.9-4.9c0-2.7-2.2-4.9-4.9-4.9c-2.7,0-4.9,2.2-4.9,4.9
	C777.5,228.1,779.7,230.3,782.5,230.3z M810,230.3c2.7,0,4.9-2.2,4.9-4.9c0-2.7-2.2-4.9-4.9-4.9s-4.9,2.2-4.9,4.9
	C805.1,228.1,807.3,230.3,810,230.3z M837.6,230.3c2.7,0,4.9-2.2,4.9-4.9c0-2.7-2.2-4.9-4.9-4.9c-2.7,0-4.9,2.2-4.9,4.9
	C832.6,228.1,834.9,230.3,837.6,230.3z M865.1,230.3c2.7,0,4.9-2.2,4.9-4.9c0-2.7-2.2-4.9-4.9-4.9c-2.7,0-4.9,2.2-4.9,4.9
	C860.2,228.1,862.4,230.3,865.1,230.3z M892.7,230.3c2.7,0,4.9-2.2,4.9-4.9c0-2.7-2.2-4.9-4.9-4.9s-4.9,2.2-4.9,4.9
	C887.8,228.1,890,230.3,892.7,230.3z M920.3,230.3c2.7,0,4.9-2.2,4.9-4.9c0-2.7-2.2-4.9-4.9-4.9c-2.7,0-4.9,2.2-4.9,4.9
	C915.3,228.1,917.5,230.3,920.3,230.3z M947.8,230.3c2.7,0,4.9-2.2,4.9-4.9c0-2.7-2.2-4.9-4.9-4.9s-4.9,2.2-4.9,4.9
	C942.9,228.1,945.1,230.3,947.8,230.3z M975.4,230.3c2.7,0,4.9-2.2,4.9-4.9c0-2.7-2.2-4.9-4.9-4.9c-2.7,0-4.9,2.2-4.9,4.9
	C970.4,228.1,972.6,230.3,975.4,230.3z M1002.9,230.3c2.7,0,4.9-2.2,4.9-4.9c0-2.7-2.2-4.9-4.9-4.9c-2.7,0-4.9,2.2-4.9,4.9
	C998,228.1,1000.2,230.3,1002.9,230.3z M1030.5,230.3c2.7,0,4.9-2.2,4.9-4.9c0-2.7-2.2-4.9-4.9-4.9c-2.7,0-4.9,2.2-4.9,4.9
	C1025.5,228.1,1027.8,230.3,1030.5,230.3z M1058,230.3c2.7,0,4.9-2.2,4.9-4.9c0-2.7-2.2-4.9-4.9-4.9c-2.7,0-4.9,2.2-4.9,4.9
	C1053.1,228.1,1055.3,230.3,1058,230.3z M1085.6,230.3c2.7,0,4.9-2.2,4.9-4.9c0-2.7-2.2-4.9-4.9-4.9s-4.9,2.2-4.9,4.9
	C1080.7,228.1,1082.9,230.3,1085.6,230.3z M1113.2,230.3c2.7,0,4.9-2.2,4.9-4.9c0-2.7-2.2-4.9-4.9-4.9s-4.9,2.2-4.9,4.9
	C1108.2,228.1,1110.4,230.3,1113.2,230.3z M1140.7,230.3c2.7,0,4.9-2.2,4.9-4.9c0-2.7-2.2-4.9-4.9-4.9c-2.7,0-4.9,2.2-4.9,4.9
	C1135.8,228.1,1138,230.3,1140.7,230.3z M1168.3,230.3c2.7,0,4.9-2.2,4.9-4.9c0-2.7-2.2-4.9-4.9-4.9s-4.9,2.2-4.9,4.9
	C1163.3,228.1,1165.5,230.3,1168.3,230.3z M66,258.6c3.1,0,5.6-2.5,5.6-5.6c0-3.1-2.5-5.6-5.6-5.6c-3.1,0-5.6,2.5-5.6,5.6
	C60.3,256.1,62.8,258.6,66,258.6z M93.5,258.6c3.1,0,5.6-2.5,5.6-5.6c0-3.1-2.5-5.6-5.6-5.6c-3.1,0-5.6,2.5-5.6,5.6
	C87.9,256.1,90.4,258.6,93.5,258.6z M121.1,258.6c3.1,0,5.6-2.5,5.6-5.6c0-3.1-2.5-5.6-5.6-5.6s-5.6,2.5-5.6,5.6
	C115.4,256.1,118,258.6,121.1,258.6z M148.6,258.6c3.1,0,5.6-2.5,5.6-5.6c0-3.1-2.5-5.6-5.6-5.6s-5.6,2.5-5.6,5.6
	C143,256.1,145.5,258.6,148.6,258.6z M176.2,258.6c3.1,0,5.6-2.5,5.6-5.6c0-3.1-2.5-5.6-5.6-5.6s-5.6,2.5-5.6,5.6
	C170.5,256.1,173.1,258.6,176.2,258.6z M203.7,258.6c3.1,0,5.6-2.5,5.6-5.6c0-3.1-2.5-5.6-5.6-5.6s-5.6,2.5-5.6,5.6
	C198.1,256.1,200.6,258.6,203.7,258.6z M231.3,258.6c3.1,0,5.6-2.5,5.6-5.6c0-3.1-2.5-5.6-5.6-5.6s-5.6,2.5-5.6,5.6
	C225.7,256.1,228.2,258.6,231.3,258.6z M258.9,258.6c3.1,0,5.6-2.5,5.6-5.6c0-3.1-2.5-5.6-5.6-5.6s-5.6,2.5-5.6,5.6
	C253.2,256.1,255.7,258.6,258.9,258.6z M286.4,258.6c3.1,0,5.6-2.5,5.6-5.6c0-3.1-2.5-5.6-5.6-5.6s-5.6,2.5-5.6,5.6
	C280.8,256.1,283.3,258.6,286.4,258.6z M314,258.6c3.1,0,5.6-2.5,5.6-5.6c0-3.1-2.5-5.6-5.6-5.6s-5.6,2.5-5.6,5.6
	C308.3,256.1,310.9,258.6,314,258.6z M341.5,258.6c3.1,0,5.6-2.5,5.6-5.6c0-3.1-2.5-5.6-5.6-5.6s-5.6,2.5-5.6,5.6
	C335.9,256.1,338.4,258.6,341.5,258.6z M369.1,258.6c3.1,0,5.6-2.5,5.6-5.6c0-3.1-2.5-5.6-5.6-5.6s-5.6,2.5-5.6,5.6
	C363.4,256.1,366,258.6,369.1,258.6z M396.7,258.6c3.1,0,5.6-2.5,5.6-5.6c0-3.1-2.5-5.6-5.6-5.6s-5.6,2.5-5.6,5.6
	C391,256.1,393.5,258.6,396.7,258.6z M424.2,258.6c3.1,0,5.6-2.5,5.6-5.6c0-3.1-2.5-5.6-5.6-5.6s-5.6,2.5-5.6,5.6
	C418.6,256.1,421.1,258.6,424.2,258.6z M451.8,258.6c3.1,0,5.6-2.5,5.6-5.6c0-3.1-2.5-5.6-5.6-5.6s-5.6,2.5-5.6,5.6
	C446.1,256.1,448.7,258.6,451.8,258.6z M479.3,258.6c3.1,0,5.6-2.5,5.6-5.6c0-3.1-2.5-5.6-5.6-5.6c-3.1,0-5.6,2.5-5.6,5.6
	C473.7,256.1,476.2,258.6,479.3,258.6z M506.9,258.6c3.1,0,5.6-2.5,5.6-5.6c0-3.1-2.5-5.6-5.6-5.6s-5.6,2.5-5.6,5.6
	C501.2,256.1,503.8,258.6,506.9,258.6z M534.4,258.6c3.1,0,5.6-2.5,5.6-5.6c0-3.1-2.5-5.6-5.6-5.6c-3.1,0-5.6,2.5-5.6,5.6
	C528.8,256.1,531.3,258.6,534.4,258.6z M562,258.6c3.1,0,5.6-2.5,5.6-5.6c0-3.1-2.5-5.6-5.6-5.6c-3.1,0-5.6,2.5-5.6,5.6
	C556.4,256.1,558.9,258.6,562,258.6z M589.6,258.6c3.1,0,5.6-2.5,5.6-5.6c0-3.1-2.5-5.6-5.6-5.6c-3.1,0-5.6,2.5-5.6,5.6
	C583.9,256.1,586.4,258.6,589.6,258.6z M617.1,258.6c3.1,0,5.6-2.5,5.6-5.6c0-3.1-2.5-5.6-5.6-5.6c-3.1,0-5.6,2.5-5.6,5.6
	C611.5,256.1,614,258.6,617.1,258.6z M644.7,258.6c3.1,0,5.6-2.5,5.6-5.6c0-3.1-2.5-5.6-5.6-5.6c-3.1,0-5.6,2.5-5.6,5.6
	C639,256.1,641.6,258.6,644.7,258.6z M672.2,258.6c3.1,0,5.6-2.5,5.6-5.6c0-3.1-2.5-5.6-5.6-5.6c-3.1,0-5.6,2.5-5.6,5.6
	C666.6,256.1,669.1,258.6,672.2,258.6z M699.8,258.6c3.1,0,5.6-2.5,5.6-5.6c0-3.1-2.5-5.6-5.6-5.6c-3.1,0-5.6,2.5-5.6,5.6
	C694.1,256.1,696.7,258.6,699.8,258.6z M727.3,258.6c3.1,0,5.6-2.5,5.6-5.6c0-3.1-2.5-5.6-5.6-5.6c-3.1,0-5.6,2.5-5.6,5.6
	C721.7,256.1,724.2,258.6,727.3,258.6z M754.9,258.6c3.1,0,5.6-2.5,5.6-5.6c0-3.1-2.5-5.6-5.6-5.6s-5.6,2.5-5.6,5.6
	C749.3,256.1,751.8,258.6,754.9,258.6z M782.5,258.6c3.1,0,5.6-2.5,5.6-5.6c0-3.1-2.5-5.6-5.6-5.6c-3.1,0-5.6,2.5-5.6,5.6
	C776.8,256.1,779.3,258.6,782.5,258.6z M810,258.6c3.1,0,5.6-2.5,5.6-5.6c0-3.1-2.5-5.6-5.6-5.6c-3.1,0-5.6,2.5-5.6,5.6
	C804.4,256.1,806.9,258.6,810,258.6z M837.6,258.6c3.1,0,5.6-2.5,5.6-5.6c0-3.1-2.5-5.6-5.6-5.6c-3.1,0-5.6,2.5-5.6,5.6
	C831.9,256.1,834.5,258.6,837.6,258.6z M865.1,258.6c3.1,0,5.6-2.5,5.6-5.6c0-3.1-2.5-5.6-5.6-5.6c-3.1,0-5.6,2.5-5.6,5.6
	C859.5,256.1,862,258.6,865.1,258.6z M892.7,258.6c3.1,0,5.6-2.5,5.6-5.6c0-3.1-2.5-5.6-5.6-5.6c-3.1,0-5.6,2.5-5.6,5.6
	C887,256.1,889.6,258.6,892.7,258.6z M920.3,258.6c3.1,0,5.6-2.5,5.6-5.6c0-3.1-2.5-5.6-5.6-5.6c-3.1,0-5.6,2.5-5.6,5.6
	C914.6,256.1,917.1,258.6,920.3,258.6z M947.8,258.6c3.1,0,5.6-2.5,5.6-5.6c0-3.1-2.5-5.6-5.6-5.6s-5.6,2.5-5.6,5.6
	C942.2,256.1,944.7,258.6,947.8,258.6z M975.4,258.6c3.1,0,5.6-2.5,5.6-5.6c0-3.1-2.5-5.6-5.6-5.6c-3.1,0-5.6,2.5-5.6,5.6
	C969.7,256.1,972.3,258.6,975.4,258.6z M1002.9,258.6c3.1,0,5.6-2.5,5.6-5.6c0-3.1-2.5-5.6-5.6-5.6c-3.1,0-5.6,2.5-5.6,5.6
	C997.3,256.1,999.8,258.6,1002.9,258.6z M1030.5,258.6c3.1,0,5.6-2.5,5.6-5.6c0-3.1-2.5-5.6-5.6-5.6c-3.1,0-5.6,2.5-5.6,5.6
	C1024.8,256.1,1027.4,258.6,1030.5,258.6z M1058,258.6c3.1,0,5.6-2.5,5.6-5.6c0-3.1-2.5-5.6-5.6-5.6c-3.1,0-5.6,2.5-5.6,5.6
	C1052.4,256.1,1054.9,258.6,1058,258.6z M1085.6,258.6c3.1,0,5.6-2.5,5.6-5.6c0-3.1-2.5-5.6-5.6-5.6s-5.6,2.5-5.6,5.6
	C1080,256.1,1082.5,258.6,1085.6,258.6z M1113.2,258.6c3.1,0,5.6-2.5,5.6-5.6c0-3.1-2.5-5.6-5.6-5.6s-5.6,2.5-5.6,5.6
	C1107.5,256.1,1110,258.6,1113.2,258.6z M1140.7,258.6c3.1,0,5.6-2.5,5.6-5.6c0-3.1-2.5-5.6-5.6-5.6c-3.1,0-5.6,2.5-5.6,5.6
	C1135.1,256.1,1137.6,258.6,1140.7,258.6z M1168.3,258.6c3.1,0,5.6-2.5,5.6-5.6c0-3.1-2.5-5.6-5.6-5.6s-5.6,2.5-5.6,5.6
	C1162.6,256.1,1165.2,258.6,1168.3,258.6z M66,287.2c3.7,0,6.7-3,6.7-6.7s-3-6.7-6.7-6.7c-3.7,0-6.7,3-6.7,6.7S62.3,287.2,66,287.2z
	 M93.5,287.2c3.7,0,6.7-3,6.7-6.7s-3-6.7-6.7-6.7c-3.7,0-6.7,3-6.7,6.7S89.8,287.2,93.5,287.2z M121.1,287.2c3.7,0,6.7-3,6.7-6.7
	s-3-6.7-6.7-6.7c-3.7,0-6.7,3-6.7,6.7S117.4,287.2,121.1,287.2z M148.6,287.2c3.7,0,6.7-3,6.7-6.7s-3-6.7-6.7-6.7
	c-3.7,0-6.7,3-6.7,6.7S145,287.2,148.6,287.2z M176.2,287.2c3.7,0,6.7-3,6.7-6.7s-3-6.7-6.7-6.7c-3.7,0-6.7,3-6.7,6.7
	S172.5,287.2,176.2,287.2z M203.7,287.2c3.7,0,6.7-3,6.7-6.7s-3-6.7-6.7-6.7s-6.7,3-6.7,6.7S200.1,287.2,203.7,287.2z M231.3,287.2
	c3.7,0,6.7-3,6.7-6.7s-3-6.7-6.7-6.7s-6.7,3-6.7,6.7S227.6,287.2,231.3,287.2z M258.9,287.2c3.7,0,6.7-3,6.7-6.7s-3-6.7-6.7-6.7
	c-3.7,0-6.7,3-6.7,6.7S255.2,287.2,258.9,287.2z M286.4,287.2c3.7,0,6.7-3,6.7-6.7s-3-6.7-6.7-6.7c-3.7,0-6.7,3-6.7,6.7
	S282.7,287.2,286.4,287.2z M314,287.2c3.7,0,6.7-3,6.7-6.7s-3-6.7-6.7-6.7c-3.7,0-6.7,3-6.7,6.7S310.3,287.2,314,287.2z
	 M341.5,287.2c3.7,0,6.7-3,6.7-6.7s-3-6.7-6.7-6.7s-6.7,3-6.7,6.7S337.9,287.2,341.5,287.2z M369.1,287.2c3.7,0,6.7-3,6.7-6.7
	s-3-6.7-6.7-6.7s-6.7,3-6.7,6.7S365.4,287.2,369.1,287.2z M396.7,287.2c3.7,0,6.7-3,6.7-6.7s-3-6.7-6.7-6.7s-6.7,3-6.7,6.7
	S393,287.2,396.7,287.2z M424.2,287.2c3.7,0,6.7-3,6.7-6.7s-3-6.7-6.7-6.7s-6.7,3-6.7,6.7S420.5,287.2,424.2,287.2z M451.8,287.2
	c3.7,0,6.7-3,6.7-6.7s-3-6.7-6.7-6.7s-6.7,3-6.7,6.7S448.1,287.2,451.8,287.2z M479.3,287.2c3.7,0,6.7-3,6.7-6.7s-3-6.7-6.7-6.7
	c-3.7,0-6.7,3-6.7,6.7S475.7,287.2,479.3,287.2z M506.9,287.2c3.7,0,6.7-3,6.7-6.7s-3-6.7-6.7-6.7s-6.7,3-6.7,6.7
	S503.2,287.2,506.9,287.2z M534.4,287.2c3.7,0,6.7-3,6.7-6.7s-3-6.7-6.7-6.7s-6.7,3-6.7,6.7S530.8,287.2,534.4,287.2z M562,287.2
	c3.7,0,6.7-3,6.7-6.7s-3-6.7-6.7-6.7s-6.7,3-6.7,6.7S558.3,287.2,562,287.2z M589.6,287.2c3.7,0,6.7-3,6.7-6.7s-3-6.7-6.7-6.7
	c-3.7,0-6.7,3-6.7,6.7S585.9,287.2,589.6,287.2z M617.1,287.2c3.7,0,6.7-3,6.7-6.7s-3-6.7-6.7-6.7s-6.7,3-6.7,6.7
	S613.4,287.2,617.1,287.2z M644.7,287.2c3.7,0,6.7-3,6.7-6.7s-3-6.7-6.7-6.7s-6.7,3-6.7,6.7S641,287.2,644.7,287.2z M672.2,287.2
	c3.7,0,6.7-3,6.7-6.7s-3-6.7-6.7-6.7s-6.7,3-6.7,6.7S668.6,287.2,672.2,287.2z M699.8,287.2c3.7,0,6.7-3,6.7-6.7s-3-6.7-6.7-6.7
	s-6.7,3-6.7,6.7S696.1,287.2,699.8,287.2z M727.3,287.2c3.7,0,6.7-3,6.7-6.7s-3-6.7-6.7-6.7s-6.7,3-6.7,6.7S723.7,287.2,727.3,287.2
	z M754.9,287.2c3.7,0,6.7-3,6.7-6.7s-3-6.7-6.7-6.7s-6.7,3-6.7,6.7S751.2,287.2,754.9,287.2z M782.5,287.2c3.7,0,6.7-3,6.7-6.7
	s-3-6.7-6.7-6.7s-6.7,3-6.7,6.7S778.8,287.2,782.5,287.2z M810,287.2c3.7,0,6.7-3,6.7-6.7s-3-6.7-6.7-6.7s-6.7,3-6.7,6.7
	S806.3,287.2,810,287.2z M837.6,287.2c3.7,0,6.7-3,6.7-6.7s-3-6.7-6.7-6.7s-6.7,3-6.7,6.7S833.9,287.2,837.6,287.2z M865.1,287.2
	c3.7,0,6.7-3,6.7-6.7s-3-6.7-6.7-6.7s-6.7,3-6.7,6.7S861.5,287.2,865.1,287.2z M892.7,287.2c3.7,0,6.7-3,6.7-6.7s-3-6.7-6.7-6.7
	s-6.7,3-6.7,6.7S889,287.2,892.7,287.2z M920.3,287.2c3.7,0,6.7-3,6.7-6.7s-3-6.7-6.7-6.7s-6.7,3-6.7,6.7S916.6,287.2,920.3,287.2z
	 M947.8,287.2c3.7,0,6.7-3,6.7-6.7s-3-6.7-6.7-6.7s-6.7,3-6.7,6.7S944.1,287.2,947.8,287.2z M975.4,287.2c3.7,0,6.7-3,6.7-6.7
	s-3-6.7-6.7-6.7s-6.7,3-6.7,6.7S971.7,287.2,975.4,287.2z M1002.9,287.2c3.7,0,6.7-3,6.7-6.7s-3-6.7-6.7-6.7s-6.7,3-6.7,6.7
	S999.3,287.2,1002.9,287.2z M1030.5,287.2c3.7,0,6.7-3,6.7-6.7s-3-6.7-6.7-6.7c-3.7,0-6.7,3-6.7,6.7S1026.8,287.2,1030.5,287.2z
	 M1058,287.2c3.7,0,6.7-3,6.7-6.7s-3-6.7-6.7-6.7c-3.7,0-6.7,3-6.7,6.7S1054.4,287.2,1058,287.2z M1085.6,287.2c3.7,0,6.7-3,6.7-6.7
	s-3-6.7-6.7-6.7c-3.7,0-6.7,3-6.7,6.7S1081.9,287.2,1085.6,287.2z M1113.2,287.2c3.7,0,6.7-3,6.7-6.7s-3-6.7-6.7-6.7
	c-3.7,0-6.7,3-6.7,6.7S1109.5,287.2,1113.2,287.2z M1140.7,287.2c3.7,0,6.7-3,6.7-6.7s-3-6.7-6.7-6.7c-3.7,0-6.7,3-6.7,6.7
	S1137,287.2,1140.7,287.2z M1168.3,287.2c3.7,0,6.7-3,6.7-6.7s-3-6.7-6.7-6.7c-3.7,0-6.7,3-6.7,6.7S1164.6,287.2,1168.3,287.2z
	 M1195.8,287.2c3.7,0,6.7-3,6.7-6.7s-3-6.7-6.7-6.7c-3.7,0-6.7,3-6.7,6.7S1192.2,287.2,1195.8,287.2z M66,315.8
	c4.3,0,7.7-3.5,7.7-7.7c0-4.3-3.5-7.7-7.7-7.7s-7.7,3.5-7.7,7.7C58.2,312.3,61.7,315.8,66,315.8z M93.5,315.8c4.3,0,7.7-3.5,7.7-7.7
	c0-4.3-3.5-7.7-7.7-7.7c-4.3,0-7.7,3.5-7.7,7.7C85.8,312.3,89.3,315.8,93.5,315.8z M121.1,315.8c4.3,0,7.7-3.5,7.7-7.7
	c0-4.3-3.5-7.7-7.7-7.7s-7.7,3.5-7.7,7.7C113.4,312.3,116.8,315.8,121.1,315.8z M148.6,315.8c4.3,0,7.7-3.5,7.7-7.7
	c0-4.3-3.5-7.7-7.7-7.7s-7.7,3.5-7.7,7.7C140.9,312.3,144.4,315.8,148.6,315.8z M176.2,315.8c4.3,0,7.7-3.5,7.7-7.7
	c0-4.3-3.5-7.7-7.7-7.7s-7.7,3.5-7.7,7.7C168.5,312.3,171.9,315.8,176.2,315.8z M203.7,315.8c4.3,0,7.7-3.5,7.7-7.7
	c0-4.3-3.5-7.7-7.7-7.7s-7.7,3.5-7.7,7.7C196,312.3,199.5,315.8,203.7,315.8z M231.3,315.8c4.3,0,7.7-3.5,7.7-7.7
	c0-4.3-3.5-7.7-7.7-7.7s-7.7,3.5-7.7,7.7C223.6,312.3,227,315.8,231.3,315.8z M258.9,315.8c4.3,0,7.7-3.5,7.7-7.7
	c0-4.3-3.5-7.7-7.7-7.7c-4.3,0-7.7,3.5-7.7,7.7C251.1,312.3,254.6,315.8,258.9,315.8z M286.4,315.8c4.3,0,7.7-3.5,7.7-7.7
	c0-4.3-3.5-7.7-7.7-7.7c-4.3,0-7.7,3.5-7.7,7.7C278.7,312.3,282.2,315.8,286.4,315.8z M314,315.8c4.3,0,7.7-3.5,7.7-7.7
	c0-4.3-3.5-7.7-7.7-7.7c-4.3,0-7.7,3.5-7.7,7.7C306.3,312.3,309.7,315.8,314,315.8z M341.5,315.8c4.3,0,7.7-3.5,7.7-7.7
	c0-4.3-3.5-7.7-7.7-7.7c-4.3,0-7.7,3.5-7.7,7.7C333.8,312.3,337.3,315.8,341.5,315.8z M369.1,315.8c4.3,0,7.7-3.5,7.7-7.7
	c0-4.3-3.5-7.7-7.7-7.7c-4.3,0-7.7,3.5-7.7,7.7C361.4,312.3,364.8,315.8,369.1,315.8z M396.7,315.8c4.3,0,7.7-3.5,7.7-7.7
	c0-4.3-3.5-7.7-7.7-7.7s-7.7,3.5-7.7,7.7C388.9,312.3,392.4,315.8,396.7,315.8z M424.2,315.8c4.3,0,7.7-3.5,7.7-7.7
	c0-4.3-3.5-7.7-7.7-7.7c-4.3,0-7.7,3.5-7.7,7.7C416.5,312.3,420,315.8,424.2,315.8z M451.8,315.8c4.3,0,7.7-3.5,7.7-7.7
	c0-4.3-3.5-7.7-7.7-7.7c-4.3,0-7.7,3.5-7.7,7.7C444.1,312.3,447.5,315.8,451.8,315.8z M479.3,315.8c4.3,0,7.7-3.5,7.7-7.7
	c0-4.3-3.5-7.7-7.7-7.7c-4.3,0-7.7,3.5-7.7,7.7C471.6,312.3,475.1,315.8,479.3,315.8z M506.9,315.8c4.3,0,7.7-3.5,7.7-7.7
	c0-4.3-3.5-7.7-7.7-7.7c-4.3,0-7.7,3.5-7.7,7.7C499.2,312.3,502.6,315.8,506.9,315.8z M534.4,315.8c4.3,0,7.7-3.5,7.7-7.7
	c0-4.3-3.5-7.7-7.7-7.7c-4.3,0-7.7,3.5-7.7,7.7C526.7,312.3,530.2,315.8,534.4,315.8z M562,315.8c4.3,0,7.7-3.5,7.7-7.7
	c0-4.3-3.5-7.7-7.7-7.7s-7.7,3.5-7.7,7.7C554.3,312.3,557.7,315.8,562,315.8z M589.6,315.8c4.3,0,7.7-3.5,7.7-7.7
	c0-4.3-3.5-7.7-7.7-7.7c-4.3,0-7.7,3.5-7.7,7.7C581.8,312.3,585.3,315.8,589.6,315.8z M617.1,315.8c4.3,0,7.7-3.5,7.7-7.7
	c0-4.3-3.5-7.7-7.7-7.7s-7.7,3.5-7.7,7.7C609.4,312.3,612.9,315.8,617.1,315.8z M644.7,315.8c4.3,0,7.7-3.5,7.7-7.7
	c0-4.3-3.5-7.7-7.7-7.7c-4.3,0-7.7,3.5-7.7,7.7C637,312.3,640.4,315.8,644.7,315.8z M672.2,315.8c4.3,0,7.7-3.5,7.7-7.7
	c0-4.3-3.5-7.7-7.7-7.7c-4.3,0-7.7,3.5-7.7,7.7C664.5,312.3,668,315.8,672.2,315.8z M699.8,315.8c4.3,0,7.7-3.5,7.7-7.7
	c0-4.3-3.5-7.7-7.7-7.7s-7.7,3.5-7.7,7.7C692.1,312.3,695.5,315.8,699.8,315.8z M727.3,315.8c4.3,0,7.7-3.5,7.7-7.7
	c0-4.3-3.5-7.7-7.7-7.7c-4.3,0-7.7,3.5-7.7,7.7C719.6,312.3,723.1,315.8,727.3,315.8z M754.9,315.8c4.3,0,7.7-3.5,7.7-7.7
	c0-4.3-3.5-7.7-7.7-7.7s-7.7,3.5-7.7,7.7C747.2,312.3,750.6,315.8,754.9,315.8z M782.5,315.8c4.3,0,7.7-3.5,7.7-7.7
	c0-4.3-3.5-7.7-7.7-7.7c-4.3,0-7.7,3.5-7.7,7.7C774.7,312.3,778.2,315.8,782.5,315.8z M810,315.8c4.3,0,7.7-3.5,7.7-7.7
	c0-4.3-3.5-7.7-7.7-7.7s-7.7,3.5-7.7,7.7C802.3,312.3,805.8,315.8,810,315.8z M837.6,315.8c4.3,0,7.7-3.5,7.7-7.7
	c0-4.3-3.5-7.7-7.7-7.7c-4.3,0-7.7,3.5-7.7,7.7C829.9,312.3,833.3,315.8,837.6,315.8z M865.1,315.8c4.3,0,7.7-3.5,7.7-7.7
	c0-4.3-3.5-7.7-7.7-7.7c-4.3,0-7.7,3.5-7.7,7.7C857.4,312.3,860.9,315.8,865.1,315.8z M892.7,315.8c4.3,0,7.7-3.5,7.7-7.7
	c0-4.3-3.5-7.7-7.7-7.7s-7.7,3.5-7.7,7.7C885,312.3,888.4,315.8,892.7,315.8z M920.3,315.8c4.3,0,7.7-3.5,7.7-7.7
	c0-4.3-3.5-7.7-7.7-7.7c-4.3,0-7.7,3.5-7.7,7.7C912.5,312.3,916,315.8,920.3,315.8z M947.8,315.8c4.3,0,7.7-3.5,7.7-7.7
	c0-4.3-3.5-7.7-7.7-7.7s-7.7,3.5-7.7,7.7C940.1,312.3,943.6,315.8,947.8,315.8z M975.4,315.8c4.3,0,7.7-3.5,7.7-7.7
	c0-4.3-3.5-7.7-7.7-7.7c-4.3,0-7.7,3.5-7.7,7.7C967.7,312.3,971.1,315.8,975.4,315.8z M1002.9,315.8c4.3,0,7.7-3.5,7.7-7.7
	c0-4.3-3.5-7.7-7.7-7.7s-7.7,3.5-7.7,7.7C995.2,312.3,998.7,315.8,1002.9,315.8z M1030.5,315.8c4.3,0,7.7-3.5,7.7-7.7
	c0-4.3-3.5-7.7-7.7-7.7c-4.3,0-7.7,3.5-7.7,7.7C1022.8,312.3,1026.2,315.8,1030.5,315.8z M1058,315.8c4.3,0,7.7-3.5,7.7-7.7
	c0-4.3-3.5-7.7-7.7-7.7c-4.3,0-7.7,3.5-7.7,7.7C1050.3,312.3,1053.8,315.8,1058,315.8z M1085.6,315.8c4.3,0,7.7-3.5,7.7-7.7
	c0-4.3-3.5-7.7-7.7-7.7s-7.7,3.5-7.7,7.7C1077.9,312.3,1081.3,315.8,1085.6,315.8z M1113.2,315.8c4.3,0,7.7-3.5,7.7-7.7
	c0-4.3-3.5-7.7-7.7-7.7c-4.3,0-7.7,3.5-7.7,7.7C1105.4,312.3,1108.9,315.8,1113.2,315.8z M1140.7,315.8c4.3,0,7.7-3.5,7.7-7.7
	c0-4.3-3.5-7.7-7.7-7.7c-4.3,0-7.7,3.5-7.7,7.7C1133,312.3,1136.5,315.8,1140.7,315.8z M1168.3,315.8c4.3,0,7.7-3.5,7.7-7.7
	c0-4.3-3.5-7.7-7.7-7.7c-4.3,0-7.7,3.5-7.7,7.7C1160.6,312.3,1164,315.8,1168.3,315.8z M1195.8,315.8c4.3,0,7.7-3.5,7.7-7.7
	c0-4.3-3.5-7.7-7.7-7.7s-7.7,3.5-7.7,7.7C1188.1,312.3,1191.6,315.8,1195.8,315.8z M1223.4,315.8c4.3,0,7.7-3.5,7.7-7.7
	c0-4.3-3.5-7.7-7.7-7.7c-4.3,0-7.7,3.5-7.7,7.7C1215.7,312.3,1219.1,315.8,1223.4,315.8z M66,344.4c4.8,0,8.7-3.9,8.7-8.7
	s-3.9-8.7-8.7-8.7s-8.7,3.9-8.7,8.7S61.1,344.4,66,344.4z M93.5,344.4c4.8,0,8.7-3.9,8.7-8.7s-3.9-8.7-8.7-8.7
	c-4.8,0-8.7,3.9-8.7,8.7S88.7,344.4,93.5,344.4z M121.1,344.4c4.8,0,8.7-3.9,8.7-8.7s-3.9-8.7-8.7-8.7s-8.7,3.9-8.7,8.7
	S116.3,344.4,121.1,344.4z M148.6,344.4c4.8,0,8.7-3.9,8.7-8.7s-3.9-8.7-8.7-8.7c-4.8,0-8.7,3.9-8.7,8.7S143.8,344.4,148.6,344.4z
	 M176.2,344.4c4.8,0,8.7-3.9,8.7-8.7s-3.9-8.7-8.7-8.7c-4.8,0-8.7,3.9-8.7,8.7S171.4,344.4,176.2,344.4z M203.7,344.4
	c4.8,0,8.7-3.9,8.7-8.7s-3.9-8.7-8.7-8.7s-8.7,3.9-8.7,8.7S198.9,344.4,203.7,344.4z M231.3,344.4c4.8,0,8.7-3.9,8.7-8.7
	s-3.9-8.7-8.7-8.7c-4.8,0-8.7,3.9-8.7,8.7S226.5,344.4,231.3,344.4z M258.9,344.4c4.8,0,8.7-3.9,8.7-8.7s-3.9-8.7-8.7-8.7
	c-4.8,0-8.7,3.9-8.7,8.7S254,344.4,258.9,344.4z M286.4,344.4c4.8,0,8.7-3.9,8.7-8.7s-3.9-8.7-8.7-8.7c-4.8,0-8.7,3.9-8.7,8.7
	S281.6,344.4,286.4,344.4z M314,344.4c4.8,0,8.7-3.9,8.7-8.7s-3.9-8.7-8.7-8.7c-4.8,0-8.7,3.9-8.7,8.7S309.2,344.4,314,344.4z
	 M341.5,344.4c4.8,0,8.7-3.9,8.7-8.7s-3.9-8.7-8.7-8.7c-4.8,0-8.7,3.9-8.7,8.7S336.7,344.4,341.5,344.4z M369.1,344.4
	c4.8,0,8.7-3.9,8.7-8.7s-3.9-8.7-8.7-8.7s-8.7,3.9-8.7,8.7S364.3,344.4,369.1,344.4z M396.7,344.4c4.8,0,8.7-3.9,8.7-8.7
	s-3.9-8.7-8.7-8.7s-8.7,3.9-8.7,8.7S391.8,344.4,396.7,344.4z M424.2,344.4c4.8,0,8.7-3.9,8.7-8.7s-3.9-8.7-8.7-8.7
	s-8.7,3.9-8.7,8.7S419.4,344.4,424.2,344.4z M451.8,344.4c4.8,0,8.7-3.9,8.7-8.7s-3.9-8.7-8.7-8.7c-4.8,0-8.7,3.9-8.7,8.7
	S447,344.4,451.8,344.4z M479.3,344.4c4.8,0,8.7-3.9,8.7-8.7s-3.9-8.7-8.7-8.7c-4.8,0-8.7,3.9-8.7,8.7S474.5,344.4,479.3,344.4z
	 M506.9,344.4c4.8,0,8.7-3.9,8.7-8.7s-3.9-8.7-8.7-8.7c-4.8,0-8.7,3.9-8.7,8.7S502.1,344.4,506.9,344.4z M534.4,344.4
	c4.8,0,8.7-3.9,8.7-8.7s-3.9-8.7-8.7-8.7c-4.8,0-8.7,3.9-8.7,8.7S529.6,344.4,534.4,344.4z M562,344.4c4.8,0,8.7-3.9,8.7-8.7
	s-3.9-8.7-8.7-8.7s-8.7,3.9-8.7,8.7S557.2,344.4,562,344.4z M589.6,344.4c4.8,0,8.7-3.9,8.7-8.7s-3.9-8.7-8.7-8.7
	c-4.8,0-8.7,3.9-8.7,8.7S584.7,344.4,589.6,344.4z M617.1,344.4c4.8,0,8.7-3.9,8.7-8.7s-3.9-8.7-8.7-8.7s-8.7,3.9-8.7,8.7
	S612.3,344.4,617.1,344.4z M644.7,344.4c4.8,0,8.7-3.9,8.7-8.7s-3.9-8.7-8.7-8.7s-8.7,3.9-8.7,8.7S639.9,344.4,644.7,344.4z
	 M672.2,344.4c4.8,0,8.7-3.9,8.7-8.7s-3.9-8.7-8.7-8.7s-8.7,3.9-8.7,8.7S667.4,344.4,672.2,344.4z M699.8,344.4
	c4.8,0,8.7-3.9,8.7-8.7s-3.9-8.7-8.7-8.7s-8.7,3.9-8.7,8.7S695,344.4,699.8,344.4z M727.3,344.4c4.8,0,8.7-3.9,8.7-8.7
	s-3.9-8.7-8.7-8.7c-4.8,0-8.7,3.9-8.7,8.7S722.5,344.4,727.3,344.4z M754.9,344.4c4.8,0,8.7-3.9,8.7-8.7s-3.9-8.7-8.7-8.7
	s-8.7,3.9-8.7,8.7S750.1,344.4,754.9,344.4z M782.5,344.4c4.8,0,8.7-3.9,8.7-8.7s-3.9-8.7-8.7-8.7c-4.8,0-8.7,3.9-8.7,8.7
	S777.6,344.4,782.5,344.4z M810,344.4c4.8,0,8.7-3.9,8.7-8.7s-3.9-8.7-8.7-8.7s-8.7,3.9-8.7,8.7S805.2,344.4,810,344.4z
	 M837.6,344.4c4.8,0,8.7-3.9,8.7-8.7s-3.9-8.7-8.7-8.7s-8.7,3.9-8.7,8.7S832.8,344.4,837.6,344.4z M865.1,344.4
	c4.8,0,8.7-3.9,8.7-8.7s-3.9-8.7-8.7-8.7s-8.7,3.9-8.7,8.7S860.3,344.4,865.1,344.4z M892.7,344.4c4.8,0,8.7-3.9,8.7-8.7
	s-3.9-8.7-8.7-8.7s-8.7,3.9-8.7,8.7S887.9,344.4,892.7,344.4z M920.3,344.4c4.8,0,8.7-3.9,8.7-8.7s-3.9-8.7-8.7-8.7
	c-4.8,0-8.7,3.9-8.7,8.7S915.4,344.4,920.3,344.4z M947.8,344.4c4.8,0,8.7-3.9,8.7-8.7s-3.9-8.7-8.7-8.7s-8.7,3.9-8.7,8.7
	S943,344.4,947.8,344.4z M975.4,344.4c4.8,0,8.7-3.9,8.7-8.7s-3.9-8.7-8.7-8.7c-4.8,0-8.7,3.9-8.7,8.7S970.6,344.4,975.4,344.4z
	 M1002.9,344.4c4.8,0,8.7-3.9,8.7-8.7s-3.9-8.7-8.7-8.7s-8.7,3.9-8.7,8.7S998.1,344.4,1002.9,344.4z M1030.5,344.4
	c4.8,0,8.7-3.9,8.7-8.7s-3.9-8.7-8.7-8.7s-8.7,3.9-8.7,8.7S1025.7,344.4,1030.5,344.4z M1058,344.4c4.8,0,8.7-3.9,8.7-8.7
	s-3.9-8.7-8.7-8.7s-8.7,3.9-8.7,8.7S1053.2,344.4,1058,344.4z M1085.6,344.4c4.8,0,8.7-3.9,8.7-8.7s-3.9-8.7-8.7-8.7
	s-8.7,3.9-8.7,8.7S1080.8,344.4,1085.6,344.4z M1113.2,344.4c4.8,0,8.7-3.9,8.7-8.7s-3.9-8.7-8.7-8.7s-8.7,3.9-8.7,8.7
	S1108.3,344.4,1113.2,344.4z M1140.7,344.4c4.8,0,8.7-3.9,8.7-8.7s-3.9-8.7-8.7-8.7c-4.8,0-8.7,3.9-8.7,8.7
	S1135.9,344.4,1140.7,344.4z M1168.3,344.4c4.8,0,8.7-3.9,8.7-8.7s-3.9-8.7-8.7-8.7s-8.7,3.9-8.7,8.7S1163.5,344.4,1168.3,344.4z
	 M1195.8,344.4c4.8,0,8.7-3.9,8.7-8.7s-3.9-8.7-8.7-8.7s-8.7,3.9-8.7,8.7S1191,344.4,1195.8,344.4z M1223.4,344.4
	c4.8,0,8.7-3.9,8.7-8.7s-3.9-8.7-8.7-8.7s-8.7,3.9-8.7,8.7S1218.6,344.4,1223.4,344.4z M1250.9,344.4c4.8,0,8.7-3.9,8.7-8.7
	s-3.9-8.7-8.7-8.7s-8.7,3.9-8.7,8.7S1246.1,344.4,1250.9,344.4z M66,372.9c5.4,0,9.7-4.4,9.7-9.7s-4.4-9.7-9.7-9.7s-9.7,4.4-9.7,9.7
	S60.6,372.9,66,372.9z M93.5,372.9c5.4,0,9.7-4.4,9.7-9.7s-4.4-9.7-9.7-9.7c-5.4,0-9.7,4.4-9.7,9.7S88.1,372.9,93.5,372.9z
	 M121.1,372.9c5.4,0,9.7-4.4,9.7-9.7s-4.4-9.7-9.7-9.7c-5.4,0-9.7,4.4-9.7,9.7S115.7,372.9,121.1,372.9z M148.6,372.9
	c5.4,0,9.7-4.4,9.7-9.7s-4.4-9.7-9.7-9.7c-5.4,0-9.7,4.4-9.7,9.7S143.3,372.9,148.6,372.9z M176.2,372.9c5.4,0,9.7-4.4,9.7-9.7
	s-4.4-9.7-9.7-9.7c-5.4,0-9.7,4.4-9.7,9.7S170.8,372.9,176.2,372.9z M203.7,372.9c5.4,0,9.7-4.4,9.7-9.7s-4.4-9.7-9.7-9.7
	s-9.7,4.4-9.7,9.7S198.4,372.9,203.7,372.9z M231.3,372.9c5.4,0,9.7-4.4,9.7-9.7s-4.4-9.7-9.7-9.7s-9.7,4.4-9.7,9.7
	S225.9,372.9,231.3,372.9z M258.9,372.9c5.4,0,9.7-4.4,9.7-9.7s-4.4-9.7-9.7-9.7s-9.7,4.4-9.7,9.7S253.5,372.9,258.9,372.9z
	 M286.4,372.9c5.4,0,9.7-4.4,9.7-9.7s-4.4-9.7-9.7-9.7c-5.4,0-9.7,4.4-9.7,9.7S281,372.9,286.4,372.9z M314,372.9
	c5.4,0,9.7-4.4,9.7-9.7s-4.4-9.7-9.7-9.7c-5.4,0-9.7,4.4-9.7,9.7S308.6,372.9,314,372.9z M341.5,372.9c5.4,0,9.7-4.4,9.7-9.7
	s-4.4-9.7-9.7-9.7s-9.7,4.4-9.7,9.7S336.2,372.9,341.5,372.9z M369.1,372.9c5.4,0,9.7-4.4,9.7-9.7s-4.4-9.7-9.7-9.7
	s-9.7,4.4-9.7,9.7S363.7,372.9,369.1,372.9z M396.7,372.9c5.4,0,9.7-4.4,9.7-9.7s-4.4-9.7-9.7-9.7s-9.7,4.4-9.7,9.7
	S391.3,372.9,396.7,372.9z M424.2,372.9c5.4,0,9.7-4.4,9.7-9.7s-4.4-9.7-9.7-9.7s-9.7,4.4-9.7,9.7S418.8,372.9,424.2,372.9z
	 M451.8,372.9c5.4,0,9.7-4.4,9.7-9.7s-4.4-9.7-9.7-9.7s-9.7,4.4-9.7,9.7S446.4,372.9,451.8,372.9z M479.3,372.9
	c5.4,0,9.7-4.4,9.7-9.7s-4.4-9.7-9.7-9.7c-5.4,0-9.7,4.4-9.7,9.7S474,372.9,479.3,372.9z M506.9,372.9c5.4,0,9.7-4.4,9.7-9.7
	s-4.4-9.7-9.7-9.7c-5.4,0-9.7,4.4-9.7,9.7S501.5,372.9,506.9,372.9z M534.4,372.9c5.4,0,9.7-4.4,9.7-9.7s-4.4-9.7-9.7-9.7
	c-5.4,0-9.7,4.4-9.7,9.7S529.1,372.9,534.4,372.9z M562,372.9c5.4,0,9.7-4.4,9.7-9.7s-4.4-9.7-9.7-9.7s-9.7,4.4-9.7,9.7
	S556.6,372.9,562,372.9z M589.6,372.9c5.4,0,9.7-4.4,9.7-9.7s-4.4-9.7-9.7-9.7c-5.4,0-9.7,4.4-9.7,9.7S584.2,372.9,589.6,372.9z
	 M617.1,372.9c5.4,0,9.7-4.4,9.7-9.7s-4.4-9.7-9.7-9.7c-5.4,0-9.7,4.4-9.7,9.7S611.7,372.9,617.1,372.9z M644.7,372.9
	c5.4,0,9.7-4.4,9.7-9.7s-4.4-9.7-9.7-9.7c-5.4,0-9.7,4.4-9.7,9.7S639.3,372.9,644.7,372.9z M672.2,372.9c5.4,0,9.7-4.4,9.7-9.7
	s-4.4-9.7-9.7-9.7c-5.4,0-9.7,4.4-9.7,9.7S666.9,372.9,672.2,372.9z M699.8,372.9c5.4,0,9.7-4.4,9.7-9.7s-4.4-9.7-9.7-9.7
	c-5.4,0-9.7,4.4-9.7,9.7S694.4,372.9,699.8,372.9z M727.3,372.9c5.4,0,9.7-4.4,9.7-9.7s-4.4-9.7-9.7-9.7c-5.4,0-9.7,4.4-9.7,9.7
	S722,372.9,727.3,372.9z M754.9,372.9c5.4,0,9.7-4.4,9.7-9.7s-4.4-9.7-9.7-9.7s-9.7,4.4-9.7,9.7S749.5,372.9,754.9,372.9z
	 M782.5,372.9c5.4,0,9.7-4.4,9.7-9.7s-4.4-9.7-9.7-9.7c-5.4,0-9.7,4.4-9.7,9.7S777.1,372.9,782.5,372.9z M810,372.9
	c5.4,0,9.7-4.4,9.7-9.7s-4.4-9.7-9.7-9.7c-5.4,0-9.7,4.4-9.7,9.7S804.6,372.9,810,372.9z M837.6,372.9c5.4,0,9.7-4.4,9.7-9.7
	s-4.4-9.7-9.7-9.7c-5.4,0-9.7,4.4-9.7,9.7S832.2,372.9,837.6,372.9z M865.1,372.9c5.4,0,9.7-4.4,9.7-9.7s-4.4-9.7-9.7-9.7
	c-5.4,0-9.7,4.4-9.7,9.7S859.8,372.9,865.1,372.9z M892.7,372.9c5.4,0,9.7-4.4,9.7-9.7s-4.4-9.7-9.7-9.7c-5.4,0-9.7,4.4-9.7,9.7
	S887.3,372.9,892.7,372.9z M920.3,372.9c5.4,0,9.7-4.4,9.7-9.7s-4.4-9.7-9.7-9.7c-5.4,0-9.7,4.4-9.7,9.7S914.9,372.9,920.3,372.9z
	 M947.8,372.9c5.4,0,9.7-4.4,9.7-9.7s-4.4-9.7-9.7-9.7s-9.7,4.4-9.7,9.7S942.4,372.9,947.8,372.9z M975.4,372.9
	c5.4,0,9.7-4.4,9.7-9.7s-4.4-9.7-9.7-9.7c-5.4,0-9.7,4.4-9.7,9.7S970,372.9,975.4,372.9z M1002.9,372.9c5.4,0,9.7-4.4,9.7-9.7
	s-4.4-9.7-9.7-9.7c-5.4,0-9.7,4.4-9.7,9.7S997.6,372.9,1002.9,372.9z M1030.5,372.9c5.4,0,9.7-4.4,9.7-9.7s-4.4-9.7-9.7-9.7
	c-5.4,0-9.7,4.4-9.7,9.7S1025.1,372.9,1030.5,372.9z M1058,372.9c5.4,0,9.7-4.4,9.7-9.7s-4.4-9.7-9.7-9.7c-5.4,0-9.7,4.4-9.7,9.7
	S1052.7,372.9,1058,372.9z M1085.6,372.9c5.4,0,9.7-4.4,9.7-9.7s-4.4-9.7-9.7-9.7s-9.7,4.4-9.7,9.7S1080.2,372.9,1085.6,372.9z
	 M1113.2,372.9c5.4,0,9.7-4.4,9.7-9.7s-4.4-9.7-9.7-9.7s-9.7,4.4-9.7,9.7S1107.8,372.9,1113.2,372.9z M1140.7,372.9
	c5.4,0,9.7-4.4,9.7-9.7s-4.4-9.7-9.7-9.7c-5.4,0-9.7,4.4-9.7,9.7S1135.3,372.9,1140.7,372.9z M1168.3,372.9c5.4,0,9.7-4.4,9.7-9.7
	s-4.4-9.7-9.7-9.7s-9.7,4.4-9.7,9.7S1162.9,372.9,1168.3,372.9z M1195.8,372.9c5.4,0,9.7-4.4,9.7-9.7s-4.4-9.7-9.7-9.7
	s-9.7,4.4-9.7,9.7S1190.5,372.9,1195.8,372.9z M1223.4,372.9c5.4,0,9.7-4.4,9.7-9.7s-4.4-9.7-9.7-9.7c-5.4,0-9.7,4.4-9.7,9.7
	S1218,372.9,1223.4,372.9z M1250.9,372.9c5.4,0,9.7-4.4,9.7-9.7s-4.4-9.7-9.7-9.7c-5.4,0-9.7,4.4-9.7,9.7S1245.6,372.9,1250.9,372.9
	z M1278.5,372.9c5.4,0,9.7-4.4,9.7-9.7s-4.4-9.7-9.7-9.7s-9.7,4.4-9.7,9.7S1273.1,372.9,1278.5,372.9z M1306.1,372.9
	c5.4,0,9.7-4.4,9.7-9.7s-4.4-9.7-9.7-9.7s-9.7,4.4-9.7,9.7S1300.7,372.9,1306.1,372.9z M10.8,401.5c6,0,10.8-4.8,10.8-10.8
	c0-6-4.8-10.8-10.8-10.8s-10.8,4.8-10.8,10.8C0.1,396.7,4.9,401.5,10.8,401.5z M38.4,401.5c6,0,10.8-4.8,10.8-10.8
	c0-6-4.8-10.8-10.8-10.8s-10.8,4.8-10.8,10.8C27.6,396.7,32.4,401.5,38.4,401.5z M66,401.5c6,0,10.8-4.8,10.8-10.8
	c0-6-4.8-10.8-10.8-10.8s-10.8,4.8-10.8,10.8C55.2,396.7,60,401.5,66,401.5z M93.5,401.5c6,0,10.8-4.8,10.8-10.8
	c0-6-4.8-10.8-10.8-10.8c-6,0-10.8,4.8-10.8,10.8C82.7,396.7,87.6,401.5,93.5,401.5z M121.1,401.5c6,0,10.8-4.8,10.8-10.8
	c0-6-4.8-10.8-10.8-10.8s-10.8,4.8-10.8,10.8C110.3,396.7,115.1,401.5,121.1,401.5z M148.6,401.5c6,0,10.8-4.8,10.8-10.8
	c0-6-4.8-10.8-10.8-10.8c-6,0-10.8,4.8-10.8,10.8C137.8,396.7,142.7,401.5,148.6,401.5z M176.2,401.5c6,0,10.8-4.8,10.8-10.8
	c0-6-4.8-10.8-10.8-10.8c-6,0-10.8,4.8-10.8,10.8C165.4,396.7,170.2,401.5,176.2,401.5z M203.7,401.5c6,0,10.8-4.8,10.8-10.8
	c0-6-4.8-10.8-10.8-10.8s-10.8,4.8-10.8,10.8C193,396.7,197.8,401.5,203.7,401.5z M231.3,401.5c6,0,10.8-4.8,10.8-10.8
	c0-6-4.8-10.8-10.8-10.8c-6,0-10.8,4.8-10.8,10.8C220.5,396.7,225.3,401.5,231.3,401.5z M258.9,401.5c6,0,10.8-4.8,10.8-10.8
	c0-6-4.8-10.8-10.8-10.8c-6,0-10.8,4.8-10.8,10.8C248.1,396.7,252.9,401.5,258.9,401.5z M286.4,401.5c6,0,10.8-4.8,10.8-10.8
	c0-6-4.8-10.8-10.8-10.8c-6,0-10.8,4.8-10.8,10.8C275.6,396.7,280.5,401.5,286.4,401.5z M314,401.5c6,0,10.8-4.8,10.8-10.8
	c0-6-4.8-10.8-10.8-10.8c-6,0-10.8,4.8-10.8,10.8C303.2,396.7,308,401.5,314,401.5z M341.5,401.5c6,0,10.8-4.8,10.8-10.8
	c0-6-4.8-10.8-10.8-10.8c-6,0-10.8,4.8-10.8,10.8C330.7,396.7,335.6,401.5,341.5,401.5z M369.1,401.5c6,0,10.8-4.8,10.8-10.8
	c0-6-4.8-10.8-10.8-10.8s-10.8,4.8-10.8,10.8C358.3,396.7,363.1,401.5,369.1,401.5z M396.7,401.5c6,0,10.8-4.8,10.8-10.8
	c0-6-4.8-10.8-10.8-10.8s-10.8,4.8-10.8,10.8C385.9,396.7,390.7,401.5,396.7,401.5z M424.2,401.5c6,0,10.8-4.8,10.8-10.8
	c0-6-4.8-10.8-10.8-10.8s-10.8,4.8-10.8,10.8C413.4,396.7,418.3,401.5,424.2,401.5z M451.8,401.5c6,0,10.8-4.8,10.8-10.8
	c0-6-4.8-10.8-10.8-10.8c-6,0-10.8,4.8-10.8,10.8C441,396.7,445.8,401.5,451.8,401.5z M479.3,401.5c6,0,10.8-4.8,10.8-10.8
	c0-6-4.8-10.8-10.8-10.8c-6,0-10.8,4.8-10.8,10.8C468.5,396.7,473.4,401.5,479.3,401.5z M506.9,401.5c6,0,10.8-4.8,10.8-10.8
	c0-6-4.8-10.8-10.8-10.8c-6,0-10.8,4.8-10.8,10.8C496.1,396.7,500.9,401.5,506.9,401.5z M534.4,401.5c6,0,10.8-4.8,10.8-10.8
	c0-6-4.8-10.8-10.8-10.8c-6,0-10.8,4.8-10.8,10.8C523.7,396.7,528.5,401.5,534.4,401.5z M562,401.5c6,0,10.8-4.8,10.8-10.8
	c0-6-4.8-10.8-10.8-10.8s-10.8,4.8-10.8,10.8C551.2,396.7,556,401.5,562,401.5z M589.6,401.5c6,0,10.8-4.8,10.8-10.8
	c0-6-4.8-10.8-10.8-10.8c-6,0-10.8,4.8-10.8,10.8C578.8,396.7,583.6,401.5,589.6,401.5z M617.1,401.5c6,0,10.8-4.8,10.8-10.8
	c0-6-4.8-10.8-10.8-10.8s-10.8,4.8-10.8,10.8C606.3,396.7,611.2,401.5,617.1,401.5z M644.7,401.5c6,0,10.8-4.8,10.8-10.8
	c0-6-4.8-10.8-10.8-10.8c-6,0-10.8,4.8-10.8,10.8C633.9,396.7,638.7,401.5,644.7,401.5z M672.2,401.5c6,0,10.8-4.8,10.8-10.8
	c0-6-4.8-10.8-10.8-10.8c-6,0-10.8,4.8-10.8,10.8C661.4,396.7,666.3,401.5,672.2,401.5z M699.8,401.5c6,0,10.8-4.8,10.8-10.8
	c0-6-4.8-10.8-10.8-10.8c-6,0-10.8,4.8-10.8,10.8C689,396.7,693.8,401.5,699.8,401.5z M727.3,401.5c6,0,10.8-4.8,10.8-10.8
	c0-6-4.8-10.8-10.8-10.8c-6,0-10.8,4.8-10.8,10.8C716.6,396.7,721.4,401.5,727.3,401.5z M754.9,401.5c6,0,10.8-4.8,10.8-10.8
	c0-6-4.8-10.8-10.8-10.8s-10.8,4.8-10.8,10.8C744.1,396.7,748.9,401.5,754.9,401.5z M782.5,401.5c6,0,10.8-4.8,10.8-10.8
	c0-6-4.8-10.8-10.8-10.8c-6,0-10.8,4.8-10.8,10.8C771.7,396.7,776.5,401.5,782.5,401.5z M810,401.5c6,0,10.8-4.8,10.8-10.8
	c0-6-4.8-10.8-10.8-10.8s-10.8,4.8-10.8,10.8C799.2,396.7,804.1,401.5,810,401.5z M837.6,401.5c6,0,10.8-4.8,10.8-10.8
	c0-6-4.8-10.8-10.8-10.8c-6,0-10.8,4.8-10.8,10.8C826.8,396.7,831.6,401.5,837.6,401.5z M865.1,401.5c6,0,10.8-4.8,10.8-10.8
	c0-6-4.8-10.8-10.8-10.8c-6,0-10.8,4.8-10.8,10.8C854.3,396.7,859.2,401.5,865.1,401.5z M892.7,401.5c6,0,10.8-4.8,10.8-10.8
	c0-6-4.8-10.8-10.8-10.8s-10.8,4.8-10.8,10.8C881.9,396.7,886.7,401.5,892.7,401.5z M920.3,401.5c6,0,10.8-4.8,10.8-10.8
	c0-6-4.8-10.8-10.8-10.8c-6,0-10.8,4.8-10.8,10.8C909.5,396.7,914.3,401.5,920.3,401.5z M947.8,401.5c6,0,10.8-4.8,10.8-10.8
	c0-6-4.8-10.8-10.8-10.8s-10.8,4.8-10.8,10.8C937,396.7,941.9,401.5,947.8,401.5z M975.4,401.5c6,0,10.8-4.8,10.8-10.8
	c0-6-4.8-10.8-10.8-10.8c-6,0-10.8,4.8-10.8,10.8C964.6,396.7,969.4,401.5,975.4,401.5z M1002.9,401.5c6,0,10.8-4.8,10.8-10.8
	c0-6-4.8-10.8-10.8-10.8c-6,0-10.8,4.8-10.8,10.8C992.1,396.7,997,401.5,1002.9,401.5z M1030.5,401.5c6,0,10.8-4.8,10.8-10.8
	c0-6-4.8-10.8-10.8-10.8c-6,0-10.8,4.8-10.8,10.8C1019.7,396.7,1024.5,401.5,1030.5,401.5z M1058,401.5c6,0,10.8-4.8,10.8-10.8
	c0-6-4.8-10.8-10.8-10.8c-6,0-10.8,4.8-10.8,10.8C1047.3,396.7,1052.1,401.5,1058,401.5z M1085.6,401.5c6,0,10.8-4.8,10.8-10.8
	c0-6-4.8-10.8-10.8-10.8s-10.8,4.8-10.8,10.8C1074.8,396.7,1079.6,401.5,1085.6,401.5z M1113.2,401.5c6,0,10.8-4.8,10.8-10.8
	c0-6-4.8-10.8-10.8-10.8c-6,0-10.8,4.8-10.8,10.8C1102.4,396.7,1107.2,401.5,1113.2,401.5z M1140.7,401.5c6,0,10.8-4.8,10.8-10.8
	c0-6-4.8-10.8-10.8-10.8c-6,0-10.8,4.8-10.8,10.8C1129.9,396.7,1134.8,401.5,1140.7,401.5z M1168.3,401.5c6,0,10.8-4.8,10.8-10.8
	c0-6-4.8-10.8-10.8-10.8c-6,0-10.8,4.8-10.8,10.8C1157.5,396.7,1162.3,401.5,1168.3,401.5z M1195.8,401.5c6,0,10.8-4.8,10.8-10.8
	c0-6-4.8-10.8-10.8-10.8s-10.8,4.8-10.8,10.8C1185,396.7,1189.9,401.5,1195.8,401.5z M1223.4,401.5c6,0,10.8-4.8,10.8-10.8
	c0-6-4.8-10.8-10.8-10.8c-6,0-10.8,4.8-10.8,10.8C1212.6,396.7,1217.4,401.5,1223.4,401.5z M1250.9,401.5c6,0,10.8-4.8,10.8-10.8
	c0-6-4.8-10.8-10.8-10.8c-6,0-10.8,4.8-10.8,10.8C1240.2,396.7,1245,401.5,1250.9,401.5z M1278.5,401.5c6,0,10.8-4.8,10.8-10.8
	c0-6-4.8-10.8-10.8-10.8s-10.8,4.8-10.8,10.8C1267.7,396.7,1272.5,401.5,1278.5,401.5z M1306.1,401.5c6,0,10.8-4.8,10.8-10.8
	c0-6-4.8-10.8-10.8-10.8c-6,0-10.8,4.8-10.8,10.8C1295.3,396.7,1300.1,401.5,1306.1,401.5z M10.8,429.2c6,0,10.8-4.9,10.8-10.8
	c0-6-4.9-10.8-10.8-10.8S0,412.3,0,418.3C0,424.3,4.9,429.2,10.8,429.2z M38.4,429.2c6,0,10.8-4.9,10.8-10.8c0-6-4.9-10.8-10.8-10.8
	s-10.8,4.9-10.8,10.8C27.6,424.3,32.4,429.2,38.4,429.2z M66,429.2c6,0,10.8-4.9,10.8-10.8c0-6-4.9-10.8-10.8-10.8
	s-10.8,4.9-10.8,10.8C55.1,424.3,60,429.2,66,429.2z M93.5,429.2c6,0,10.8-4.9,10.8-10.8c0-6-4.9-10.8-10.8-10.8
	c-6,0-10.8,4.9-10.8,10.8C82.7,424.3,87.5,429.2,93.5,429.2z M121.1,429.2c6,0,10.8-4.9,10.8-10.8c0-6-4.9-10.8-10.8-10.8
	s-10.8,4.9-10.8,10.8C110.2,424.3,115.1,429.2,121.1,429.2z M148.6,429.2c6,0,10.8-4.9,10.8-10.8c0-6-4.9-10.8-10.8-10.8
	s-10.8,4.9-10.8,10.8C137.8,424.3,142.6,429.2,148.6,429.2z M176.2,429.2c6,0,10.8-4.9,10.8-10.8c0-6-4.9-10.8-10.8-10.8
	s-10.8,4.9-10.8,10.8C165.3,424.3,170.2,429.2,176.2,429.2z M203.7,429.2c6,0,10.8-4.9,10.8-10.8c0-6-4.9-10.8-10.8-10.8
	s-10.8,4.9-10.8,10.8C192.9,424.3,197.8,429.2,203.7,429.2z M231.3,429.2c6,0,10.8-4.9,10.8-10.8c0-6-4.9-10.8-10.8-10.8
	s-10.8,4.9-10.8,10.8C220.5,424.3,225.3,429.2,231.3,429.2z M258.9,429.2c6,0,10.8-4.9,10.8-10.8c0-6-4.9-10.8-10.8-10.8
	c-6,0-10.8,4.9-10.8,10.8C248,424.3,252.9,429.2,258.9,429.2z M286.4,429.2c6,0,10.8-4.9,10.8-10.8c0-6-4.9-10.8-10.8-10.8
	c-6,0-10.8,4.9-10.8,10.8C275.6,424.3,280.4,429.2,286.4,429.2z M314,429.2c6,0,10.8-4.9,10.8-10.8c0-6-4.9-10.8-10.8-10.8
	c-6,0-10.8,4.9-10.8,10.8C303.1,424.3,308,429.2,314,429.2z M341.5,429.2c6,0,10.8-4.9,10.8-10.8c0-6-4.9-10.8-10.8-10.8
	c-6,0-10.8,4.9-10.8,10.8C330.7,424.3,335.5,429.2,341.5,429.2z M369.1,429.2c6,0,10.8-4.9,10.8-10.8c0-6-4.9-10.8-10.8-10.8
	c-6,0-10.8,4.9-10.8,10.8C358.3,424.3,363.1,429.2,369.1,429.2z M396.7,429.2c6,0,10.8-4.9,10.8-10.8c0-6-4.9-10.8-10.8-10.8
	s-10.8,4.9-10.8,10.8C385.8,424.3,390.7,429.2,396.7,429.2z M424.2,429.2c6,0,10.8-4.9,10.8-10.8c0-6-4.9-10.8-10.8-10.8
	c-6,0-10.8,4.9-10.8,10.8C413.4,424.3,418.2,429.2,424.2,429.2z M451.8,429.2c6,0,10.8-4.9,10.8-10.8c0-6-4.9-10.8-10.8-10.8
	c-6,0-10.8,4.9-10.8,10.8C440.9,424.3,445.8,429.2,451.8,429.2z M479.3,429.2c6,0,10.8-4.9,10.8-10.8c0-6-4.9-10.8-10.8-10.8
	c-6,0-10.8,4.9-10.8,10.8C468.5,424.3,473.3,429.2,479.3,429.2z M506.9,429.2c6,0,10.8-4.9,10.8-10.8c0-6-4.9-10.8-10.8-10.8
	s-10.8,4.9-10.8,10.8C496,424.3,500.9,429.2,506.9,429.2z M534.4,429.2c6,0,10.8-4.9,10.8-10.8c0-6-4.9-10.8-10.8-10.8
	c-6,0-10.8,4.9-10.8,10.8C523.6,424.3,528.5,429.2,534.4,429.2z M562,429.2c6,0,10.8-4.9,10.8-10.8c0-6-4.9-10.8-10.8-10.8
	s-10.8,4.9-10.8,10.8C551.2,424.3,556,429.2,562,429.2z M589.6,429.2c6,0,10.8-4.9,10.8-10.8c0-6-4.9-10.8-10.8-10.8
	c-6,0-10.8,4.9-10.8,10.8C578.7,424.3,583.6,429.2,589.6,429.2z M617.1,429.2c6,0,10.8-4.9,10.8-10.8c0-6-4.9-10.8-10.8-10.8
	s-10.8,4.9-10.8,10.8C606.3,424.3,611.1,429.2,617.1,429.2z M644.7,429.2c6,0,10.8-4.9,10.8-10.8c0-6-4.9-10.8-10.8-10.8
	c-6,0-10.8,4.9-10.8,10.8C633.8,424.3,638.7,429.2,644.7,429.2z M672.2,429.2c6,0,10.8-4.9,10.8-10.8c0-6-4.9-10.8-10.8-10.8
	c-6,0-10.8,4.9-10.8,10.8C661.4,424.3,666.2,429.2,672.2,429.2z M699.8,429.2c6,0,10.8-4.9,10.8-10.8c0-6-4.9-10.8-10.8-10.8
	s-10.8,4.9-10.8,10.8C688.9,424.3,693.8,429.2,699.8,429.2z M727.3,429.2c6,0,10.8-4.9,10.8-10.8c0-6-4.9-10.8-10.8-10.8
	c-6,0-10.8,4.9-10.8,10.8C716.5,424.3,721.4,429.2,727.3,429.2z M754.9,429.2c6,0,10.8-4.9,10.8-10.8c0-6-4.9-10.8-10.8-10.8
	s-10.8,4.9-10.8,10.8C744.1,424.3,748.9,429.2,754.9,429.2z M782.5,429.2c6,0,10.8-4.9,10.8-10.8c0-6-4.9-10.8-10.8-10.8
	c-6,0-10.8,4.9-10.8,10.8C771.6,424.3,776.5,429.2,782.5,429.2z M810,429.2c6,0,10.8-4.9,10.8-10.8c0-6-4.9-10.8-10.8-10.8
	s-10.8,4.9-10.8,10.8C799.2,424.3,804,429.2,810,429.2z M837.6,429.2c6,0,10.8-4.9,10.8-10.8c0-6-4.9-10.8-10.8-10.8
	c-6,0-10.8,4.9-10.8,10.8C826.7,424.3,831.6,429.2,837.6,429.2z M865.1,429.2c6,0,10.8-4.9,10.8-10.8c0-6-4.9-10.8-10.8-10.8
	c-6,0-10.8,4.9-10.8,10.8C854.3,424.3,859.1,429.2,865.1,429.2z M892.7,429.2c6,0,10.8-4.9,10.8-10.8c0-6-4.9-10.8-10.8-10.8
	s-10.8,4.9-10.8,10.8C881.9,424.3,886.7,429.2,892.7,429.2z M920.3,429.2c6,0,10.8-4.9,10.8-10.8c0-6-4.9-10.8-10.8-10.8
	c-6,0-10.8,4.9-10.8,10.8C909.4,424.3,914.3,429.2,920.3,429.2z M947.8,429.2c6,0,10.8-4.9,10.8-10.8c0-6-4.9-10.8-10.8-10.8
	s-10.8,4.9-10.8,10.8C937,424.3,941.8,429.2,947.8,429.2z M975.4,429.2c6,0,10.8-4.9,10.8-10.8c0-6-4.9-10.8-10.8-10.8
	c-6,0-10.8,4.9-10.8,10.8C964.5,424.3,969.4,429.2,975.4,429.2z M1002.9,429.2c6,0,10.8-4.9,10.8-10.8c0-6-4.9-10.8-10.8-10.8
	s-10.8,4.9-10.8,10.8C992.1,424.3,996.9,429.2,1002.9,429.2z M1030.5,429.2c6,0,10.8-4.9,10.8-10.8c0-6-4.9-10.8-10.8-10.8
	c-6,0-10.8,4.9-10.8,10.8C1019.6,424.3,1024.5,429.2,1030.5,429.2z M1058,429.2c6,0,10.8-4.9,10.8-10.8c0-6-4.9-10.8-10.8-10.8
	s-10.8,4.9-10.8,10.8C1047.2,424.3,1052.1,429.2,1058,429.2z M1085.6,429.2c6,0,10.8-4.9,10.8-10.8c0-6-4.9-10.8-10.8-10.8
	s-10.8,4.9-10.8,10.8C1074.8,424.3,1079.6,429.2,1085.6,429.2z M1113.2,429.2c6,0,10.8-4.9,10.8-10.8c0-6-4.9-10.8-10.8-10.8
	s-10.8,4.9-10.8,10.8C1102.3,424.3,1107.2,429.2,1113.2,429.2z M1140.7,429.2c6,0,10.8-4.9,10.8-10.8c0-6-4.9-10.8-10.8-10.8
	c-6,0-10.8,4.9-10.8,10.8C1129.9,424.3,1134.7,429.2,1140.7,429.2z M1168.3,429.2c6,0,10.8-4.9,10.8-10.8c0-6-4.9-10.8-10.8-10.8
	s-10.8,4.9-10.8,10.8C1157.4,424.3,1162.3,429.2,1168.3,429.2z M1195.8,429.2c6,0,10.8-4.9,10.8-10.8c0-6-4.9-10.8-10.8-10.8
	s-10.8,4.9-10.8,10.8C1185,424.3,1189.8,429.2,1195.8,429.2z M1223.4,429.2c6,0,10.8-4.9,10.8-10.8c0-6-4.9-10.8-10.8-10.8
	c-6,0-10.8,4.9-10.8,10.8C1212.5,424.3,1217.4,429.2,1223.4,429.2z M1250.9,429.2c6,0,10.8-4.9,10.8-10.8c0-6-4.9-10.8-10.8-10.8
	s-10.8,4.9-10.8,10.8C1240.1,424.3,1245,429.2,1250.9,429.2z M1278.5,429.2c6,0,10.8-4.9,10.8-10.8c0-6-4.9-10.8-10.8-10.8
	s-10.8,4.9-10.8,10.8C1267.7,424.3,1272.5,429.2,1278.5,429.2z M1306.1,429.2c6,0,10.8-4.9,10.8-10.8c0-6-4.9-10.8-10.8-10.8
	s-10.8,4.9-10.8,10.8C1295.2,424.3,1300.1,429.2,1306.1,429.2z M10.8,455.4c5.2,0,9.5-4.2,9.5-9.5c0-5.2-4.2-9.5-9.5-9.5
	s-9.5,4.2-9.5,9.5C1.4,451.1,5.6,455.4,10.8,455.4z M38.4,455.4c5.2,0,9.5-4.2,9.5-9.5c0-5.2-4.2-9.5-9.5-9.5s-9.5,4.2-9.5,9.5
	C28.9,451.1,33.2,455.4,38.4,455.4z M66,455.4c5.2,0,9.5-4.2,9.5-9.5c0-5.2-4.2-9.5-9.5-9.5s-9.5,4.2-9.5,9.5
	C56.5,451.1,60.7,455.4,66,455.4z M93.5,455.4c5.2,0,9.5-4.2,9.5-9.5c0-5.2-4.2-9.5-9.5-9.5c-5.2,0-9.5,4.2-9.5,9.5
	C84,451.1,88.3,455.4,93.5,455.4z M121.1,455.4c5.2,0,9.5-4.2,9.5-9.5c0-5.2-4.2-9.5-9.5-9.5s-9.5,4.2-9.5,9.5
	C111.6,451.1,115.8,455.4,121.1,455.4z M148.6,455.4c5.2,0,9.5-4.2,9.5-9.5c0-5.2-4.2-9.5-9.5-9.5c-5.2,0-9.5,4.2-9.5,9.5
	C139.2,451.1,143.4,455.4,148.6,455.4z M176.2,455.4c5.2,0,9.5-4.2,9.5-9.5c0-5.2-4.2-9.5-9.5-9.5c-5.2,0-9.5,4.2-9.5,9.5
	C166.7,451.1,171,455.4,176.2,455.4z M203.7,455.4c5.2,0,9.5-4.2,9.5-9.5c0-5.2-4.2-9.5-9.5-9.5s-9.5,4.2-9.5,9.5
	C194.3,451.1,198.5,455.4,203.7,455.4z M231.3,455.4c5.2,0,9.5-4.2,9.5-9.5c0-5.2-4.2-9.5-9.5-9.5s-9.5,4.2-9.5,9.5
	C221.8,451.1,226.1,455.4,231.3,455.4z M258.9,455.4c5.2,0,9.5-4.2,9.5-9.5c0-5.2-4.2-9.5-9.5-9.5c-5.2,0-9.5,4.2-9.5,9.5
	C249.4,451.1,253.6,455.4,258.9,455.4z M286.4,455.4c5.2,0,9.5-4.2,9.5-9.5c0-5.2-4.2-9.5-9.5-9.5c-5.2,0-9.5,4.2-9.5,9.5
	C276.9,451.1,281.2,455.4,286.4,455.4z M314,455.4c5.2,0,9.5-4.2,9.5-9.5c0-5.2-4.2-9.5-9.5-9.5c-5.2,0-9.5,4.2-9.5,9.5
	C304.5,451.1,308.7,455.4,314,455.4z M341.5,455.4c5.2,0,9.5-4.2,9.5-9.5c0-5.2-4.2-9.5-9.5-9.5c-5.2,0-9.5,4.2-9.5,9.5
	C332.1,451.1,336.3,455.4,341.5,455.4z M369.1,455.4c5.2,0,9.5-4.2,9.5-9.5c0-5.2-4.2-9.5-9.5-9.5c-5.2,0-9.5,4.2-9.5,9.5
	C359.6,451.1,363.9,455.4,369.1,455.4z M396.7,455.4c5.2,0,9.5-4.2,9.5-9.5c0-5.2-4.2-9.5-9.5-9.5s-9.5,4.2-9.5,9.5
	C387.2,451.1,391.4,455.4,396.7,455.4z M424.2,455.4c5.2,0,9.5-4.2,9.5-9.5c0-5.2-4.2-9.5-9.5-9.5c-5.2,0-9.5,4.2-9.5,9.5
	C414.7,451.1,419,455.4,424.2,455.4z M451.8,455.4c5.2,0,9.5-4.2,9.5-9.5c0-5.2-4.2-9.5-9.5-9.5c-5.2,0-9.5,4.2-9.5,9.5
	C442.3,451.1,446.5,455.4,451.8,455.4z M479.3,455.4c5.2,0,9.5-4.2,9.5-9.5c0-5.2-4.2-9.5-9.5-9.5c-5.2,0-9.5,4.2-9.5,9.5
	C469.8,451.1,474.1,455.4,479.3,455.4z M506.9,455.4c5.2,0,9.5-4.2,9.5-9.5c0-5.2-4.2-9.5-9.5-9.5s-9.5,4.2-9.5,9.5
	C497.4,451.1,501.6,455.4,506.9,455.4z M534.4,455.4c5.2,0,9.5-4.2,9.5-9.5c0-5.2-4.2-9.5-9.5-9.5c-5.2,0-9.5,4.2-9.5,9.5
	C525,451.1,529.2,455.4,534.4,455.4z M562,455.4c5.2,0,9.5-4.2,9.5-9.5c0-5.2-4.2-9.5-9.5-9.5s-9.5,4.2-9.5,9.5
	C552.5,451.1,556.8,455.4,562,455.4z M589.6,455.4c5.2,0,9.5-4.2,9.5-9.5c0-5.2-4.2-9.5-9.5-9.5c-5.2,0-9.5,4.2-9.5,9.5
	C580.1,451.1,584.3,455.4,589.6,455.4z M617.1,455.4c5.2,0,9.5-4.2,9.5-9.5c0-5.2-4.2-9.5-9.5-9.5s-9.5,4.2-9.5,9.5
	C607.6,451.1,611.9,455.4,617.1,455.4z M644.7,455.4c5.2,0,9.5-4.2,9.5-9.5c0-5.2-4.2-9.5-9.5-9.5c-5.2,0-9.5,4.2-9.5,9.5
	C635.2,451.1,639.4,455.4,644.7,455.4z M672.2,455.4c5.2,0,9.5-4.2,9.5-9.5c0-5.2-4.2-9.5-9.5-9.5c-5.2,0-9.5,4.2-9.5,9.5
	C662.8,451.1,667,455.4,672.2,455.4z M699.8,455.4c5.2,0,9.5-4.2,9.5-9.5c0-5.2-4.2-9.5-9.5-9.5s-9.5,4.2-9.5,9.5
	C690.3,451.1,694.6,455.4,699.8,455.4z M727.3,455.4c5.2,0,9.5-4.2,9.5-9.5c0-5.2-4.2-9.5-9.5-9.5c-5.2,0-9.5,4.2-9.5,9.5
	C717.9,451.1,722.1,455.4,727.3,455.4z M754.9,455.4c5.2,0,9.5-4.2,9.5-9.5c0-5.2-4.2-9.5-9.5-9.5s-9.5,4.2-9.5,9.5
	C745.4,451.1,749.7,455.4,754.9,455.4z M782.5,455.4c5.2,0,9.5-4.2,9.5-9.5c0-5.2-4.2-9.5-9.5-9.5c-5.2,0-9.5,4.2-9.5,9.5
	C773,451.1,777.2,455.4,782.5,455.4z M810,455.4c5.2,0,9.5-4.2,9.5-9.5c0-5.2-4.2-9.5-9.5-9.5s-9.5,4.2-9.5,9.5
	C800.5,451.1,804.8,455.4,810,455.4z M837.6,455.4c5.2,0,9.5-4.2,9.5-9.5c0-5.2-4.2-9.5-9.5-9.5c-5.2,0-9.5,4.2-9.5,9.5
	C828.1,451.1,832.3,455.4,837.6,455.4z M865.1,455.4c5.2,0,9.5-4.2,9.5-9.5c0-5.2-4.2-9.5-9.5-9.5c-5.2,0-9.5,4.2-9.5,9.5
	C855.7,451.1,859.9,455.4,865.1,455.4z M892.7,455.4c5.2,0,9.5-4.2,9.5-9.5c0-5.2-4.2-9.5-9.5-9.5s-9.5,4.2-9.5,9.5
	C883.2,451.1,887.5,455.4,892.7,455.4z M920.3,455.4c5.2,0,9.5-4.2,9.5-9.5c0-5.2-4.2-9.5-9.5-9.5c-5.2,0-9.5,4.2-9.5,9.5
	C910.8,451.1,915,455.4,920.3,455.4z M947.8,455.4c5.2,0,9.5-4.2,9.5-9.5c0-5.2-4.2-9.5-9.5-9.5s-9.5,4.2-9.5,9.5
	C938.3,451.1,942.6,455.4,947.8,455.4z M975.4,455.4c5.2,0,9.5-4.2,9.5-9.5c0-5.2-4.2-9.5-9.5-9.5c-5.2,0-9.5,4.2-9.5,9.5
	C965.9,451.1,970.1,455.4,975.4,455.4z M1002.9,455.4c5.2,0,9.5-4.2,9.5-9.5c0-5.2-4.2-9.5-9.5-9.5s-9.5,4.2-9.5,9.5
	C993.4,451.1,997.7,455.4,1002.9,455.4z M1030.5,455.4c5.2,0,9.5-4.2,9.5-9.5c0-5.2-4.2-9.5-9.5-9.5c-5.2,0-9.5,4.2-9.5,9.5
	C1021,451.1,1025.2,455.4,1030.5,455.4z M1058,455.4c5.2,0,9.5-4.2,9.5-9.5c0-5.2-4.2-9.5-9.5-9.5s-9.5,4.2-9.5,9.5
	C1048.6,451.1,1052.8,455.4,1058,455.4z M1085.6,455.4c5.2,0,9.5-4.2,9.5-9.5c0-5.2-4.2-9.5-9.5-9.5s-9.5,4.2-9.5,9.5
	C1076.1,451.1,1080.4,455.4,1085.6,455.4z M1113.2,455.4c5.2,0,9.5-4.2,9.5-9.5c0-5.2-4.2-9.5-9.5-9.5s-9.5,4.2-9.5,9.5
	C1103.7,451.1,1107.9,455.4,1113.2,455.4z M1140.7,455.4c5.2,0,9.5-4.2,9.5-9.5c0-5.2-4.2-9.5-9.5-9.5c-5.2,0-9.5,4.2-9.5,9.5
	C1131.2,451.1,1135.5,455.4,1140.7,455.4z M1168.3,455.4c5.2,0,9.5-4.2,9.5-9.5c0-5.2-4.2-9.5-9.5-9.5s-9.5,4.2-9.5,9.5
	C1158.8,451.1,1163,455.4,1168.3,455.4z M1195.8,455.4c5.2,0,9.5-4.2,9.5-9.5c0-5.2-4.2-9.5-9.5-9.5s-9.5,4.2-9.5,9.5
	C1186.4,451.1,1190.6,455.4,1195.8,455.4z M1223.4,455.4c5.2,0,9.5-4.2,9.5-9.5c0-5.2-4.2-9.5-9.5-9.5c-5.2,0-9.5,4.2-9.5,9.5
	C1213.9,451.1,1218.2,455.4,1223.4,455.4z M1250.9,455.4c5.2,0,9.5-4.2,9.5-9.5c0-5.2-4.2-9.5-9.5-9.5s-9.5,4.2-9.5,9.5
	C1241.5,451.1,1245.7,455.4,1250.9,455.4z M1278.5,455.4c5.2,0,9.5-4.2,9.5-9.5c0-5.2-4.2-9.5-9.5-9.5s-9.5,4.2-9.5,9.5
	C1269,451.1,1273.3,455.4,1278.5,455.4z M1306.1,455.4c5.2,0,9.5-4.2,9.5-9.5c0-5.2-4.2-9.5-9.5-9.5s-9.5,4.2-9.5,9.5
	C1296.6,451.1,1300.8,455.4,1306.1,455.4z M10.8,481.5c4.5,0,8.1-3.6,8.1-8.1c0-4.5-3.6-8.1-8.1-8.1s-8.1,3.6-8.1,8.1
	C2.7,477.9,6.4,481.5,10.8,481.5z M38.4,481.5c4.5,0,8.1-3.6,8.1-8.1c0-4.5-3.6-8.1-8.1-8.1s-8.1,3.6-8.1,8.1
	C30.3,477.9,33.9,481.5,38.4,481.5z M66,481.5c4.5,0,8.1-3.6,8.1-8.1c0-4.5-3.6-8.1-8.1-8.1s-8.1,3.6-8.1,8.1
	C57.8,477.9,61.5,481.5,66,481.5z M93.5,481.5c4.5,0,8.1-3.6,8.1-8.1c0-4.5-3.6-8.1-8.1-8.1c-4.5,0-8.1,3.6-8.1,8.1
	C85.4,477.9,89,481.5,93.5,481.5z M121.1,481.5c4.5,0,8.1-3.6,8.1-8.1c0-4.5-3.6-8.1-8.1-8.1c-4.5,0-8.1,3.6-8.1,8.1
	C113,477.9,116.6,481.5,121.1,481.5z M148.6,481.5c4.5,0,8.1-3.6,8.1-8.1c0-4.5-3.6-8.1-8.1-8.1c-4.5,0-8.1,3.6-8.1,8.1
	C140.5,477.9,144.1,481.5,148.6,481.5z M176.2,481.5c4.5,0,8.1-3.6,8.1-8.1c0-4.5-3.6-8.1-8.1-8.1c-4.5,0-8.1,3.6-8.1,8.1
	C168.1,477.9,171.7,481.5,176.2,481.5z M203.7,481.5c4.5,0,8.1-3.6,8.1-8.1c0-4.5-3.6-8.1-8.1-8.1s-8.1,3.6-8.1,8.1
	C195.6,477.9,199.3,481.5,203.7,481.5z M231.3,481.5c4.5,0,8.1-3.6,8.1-8.1c0-4.5-3.6-8.1-8.1-8.1s-8.1,3.6-8.1,8.1
	C223.2,477.9,226.8,481.5,231.3,481.5z M258.9,481.5c4.5,0,8.1-3.6,8.1-8.1c0-4.5-3.6-8.1-8.1-8.1c-4.5,0-8.1,3.6-8.1,8.1
	C250.7,477.9,254.4,481.5,258.9,481.5z M286.4,481.5c4.5,0,8.1-3.6,8.1-8.1c0-4.5-3.6-8.1-8.1-8.1c-4.5,0-8.1,3.6-8.1,8.1
	C278.3,477.9,281.9,481.5,286.4,481.5z M314,481.5c4.5,0,8.1-3.6,8.1-8.1c0-4.5-3.6-8.1-8.1-8.1c-4.5,0-8.1,3.6-8.1,8.1
	C305.9,477.9,309.5,481.5,314,481.5z M341.5,481.5c4.5,0,8.1-3.6,8.1-8.1c0-4.5-3.6-8.1-8.1-8.1c-4.5,0-8.1,3.6-8.1,8.1
	C333.4,477.9,337.1,481.5,341.5,481.5z M369.1,481.5c4.5,0,8.1-3.6,8.1-8.1c0-4.5-3.6-8.1-8.1-8.1c-4.5,0-8.1,3.6-8.1,8.1
	C361,477.9,364.6,481.5,369.1,481.5z M396.7,481.5c4.5,0,8.1-3.6,8.1-8.1c0-4.5-3.6-8.1-8.1-8.1s-8.1,3.6-8.1,8.1
	C388.5,477.9,392.2,481.5,396.7,481.5z M424.2,481.5c4.5,0,8.1-3.6,8.1-8.1c0-4.5-3.6-8.1-8.1-8.1c-4.5,0-8.1,3.6-8.1,8.1
	C416.1,477.9,419.7,481.5,424.2,481.5z M451.8,481.5c4.5,0,8.1-3.6,8.1-8.1c0-4.5-3.6-8.1-8.1-8.1c-4.5,0-8.1,3.6-8.1,8.1
	C443.6,477.9,447.3,481.5,451.8,481.5z M479.3,481.5c4.5,0,8.1-3.6,8.1-8.1c0-4.5-3.6-8.1-8.1-8.1c-4.5,0-8.1,3.6-8.1,8.1
	C471.2,477.9,474.8,481.5,479.3,481.5z M506.9,481.5c4.5,0,8.1-3.6,8.1-8.1c0-4.5-3.6-8.1-8.1-8.1c-4.5,0-8.1,3.6-8.1,8.1
	C498.8,477.9,502.4,481.5,506.9,481.5z M534.4,481.5c4.5,0,8.1-3.6,8.1-8.1c0-4.5-3.6-8.1-8.1-8.1c-4.5,0-8.1,3.6-8.1,8.1
	C526.3,477.9,530,481.5,534.4,481.5z M562,481.5c4.5,0,8.1-3.6,8.1-8.1c0-4.5-3.6-8.1-8.1-8.1s-8.1,3.6-8.1,8.1
	C553.9,477.9,557.5,481.5,562,481.5z M589.6,481.5c4.5,0,8.1-3.6,8.1-8.1c0-4.5-3.6-8.1-8.1-8.1c-4.5,0-8.1,3.6-8.1,8.1
	C581.4,477.9,585.1,481.5,589.6,481.5z M617.1,481.5c4.5,0,8.1-3.6,8.1-8.1c0-4.5-3.6-8.1-8.1-8.1s-8.1,3.6-8.1,8.1
	C609,477.9,612.6,481.5,617.1,481.5z M644.7,481.5c4.5,0,8.1-3.6,8.1-8.1c0-4.5-3.6-8.1-8.1-8.1c-4.5,0-8.1,3.6-8.1,8.1
	C636.6,477.9,640.2,481.5,644.7,481.5z M672.2,481.5c4.5,0,8.1-3.6,8.1-8.1c0-4.5-3.6-8.1-8.1-8.1c-4.5,0-8.1,3.6-8.1,8.1
	C664.1,477.9,667.7,481.5,672.2,481.5z M699.8,481.5c4.5,0,8.1-3.6,8.1-8.1c0-4.5-3.6-8.1-8.1-8.1s-8.1,3.6-8.1,8.1
	C691.7,477.9,695.3,481.5,699.8,481.5z M727.3,481.5c4.5,0,8.1-3.6,8.1-8.1c0-4.5-3.6-8.1-8.1-8.1c-4.5,0-8.1,3.6-8.1,8.1
	C719.2,477.9,722.9,481.5,727.3,481.5z M754.9,481.5c4.5,0,8.1-3.6,8.1-8.1c0-4.5-3.6-8.1-8.1-8.1s-8.1,3.6-8.1,8.1
	C746.8,477.9,750.4,481.5,754.9,481.5z M782.5,481.5c4.5,0,8.1-3.6,8.1-8.1c0-4.5-3.6-8.1-8.1-8.1c-4.5,0-8.1,3.6-8.1,8.1
	C774.3,477.9,778,481.5,782.5,481.5z M810,481.5c4.5,0,8.1-3.6,8.1-8.1c0-4.5-3.6-8.1-8.1-8.1s-8.1,3.6-8.1,8.1
	C801.9,477.9,805.5,481.5,810,481.5z M837.6,481.5c4.5,0,8.1-3.6,8.1-8.1c0-4.5-3.6-8.1-8.1-8.1c-4.5,0-8.1,3.6-8.1,8.1
	C829.5,477.9,833.1,481.5,837.6,481.5z M865.1,481.5c4.5,0,8.1-3.6,8.1-8.1c0-4.5-3.6-8.1-8.1-8.1c-4.5,0-8.1,3.6-8.1,8.1
	C857,477.9,860.7,481.5,865.1,481.5z M892.7,481.5c4.5,0,8.1-3.6,8.1-8.1c0-4.5-3.6-8.1-8.1-8.1s-8.1,3.6-8.1,8.1
	C884.6,477.9,888.2,481.5,892.7,481.5z M920.3,481.5c4.5,0,8.1-3.6,8.1-8.1c0-4.5-3.6-8.1-8.1-8.1c-4.5,0-8.1,3.6-8.1,8.1
	C912.1,477.9,915.8,481.5,920.3,481.5z M947.8,481.5c4.5,0,8.1-3.6,8.1-8.1c0-4.5-3.6-8.1-8.1-8.1s-8.1,3.6-8.1,8.1
	C939.7,477.9,943.3,481.5,947.8,481.5z M975.4,481.5c4.5,0,8.1-3.6,8.1-8.1c0-4.5-3.6-8.1-8.1-8.1c-4.5,0-8.1,3.6-8.1,8.1
	C967.2,477.9,970.9,481.5,975.4,481.5z M1002.9,481.5c4.5,0,8.1-3.6,8.1-8.1c0-4.5-3.6-8.1-8.1-8.1s-8.1,3.6-8.1,8.1
	C994.8,477.9,998.4,481.5,1002.9,481.5z M1030.5,481.5c4.5,0,8.1-3.6,8.1-8.1c0-4.5-3.6-8.1-8.1-8.1c-4.5,0-8.1,3.6-8.1,8.1
	C1022.4,477.9,1026,481.5,1030.5,481.5z M1058,481.5c4.5,0,8.1-3.6,8.1-8.1c0-4.5-3.6-8.1-8.1-8.1s-8.1,3.6-8.1,8.1
	C1049.9,477.9,1053.6,481.5,1058,481.5z M1085.6,481.5c4.5,0,8.1-3.6,8.1-8.1c0-4.5-3.6-8.1-8.1-8.1s-8.1,3.6-8.1,8.1
	C1077.5,477.9,1081.1,481.5,1085.6,481.5z M1113.2,481.5c4.5,0,8.1-3.6,8.1-8.1c0-4.5-3.6-8.1-8.1-8.1s-8.1,3.6-8.1,8.1
	C1105,477.9,1108.7,481.5,1113.2,481.5z M1140.7,481.5c4.5,0,8.1-3.6,8.1-8.1c0-4.5-3.6-8.1-8.1-8.1c-4.5,0-8.1,3.6-8.1,8.1
	C1132.6,477.9,1136.2,481.5,1140.7,481.5z M1168.3,481.5c4.5,0,8.1-3.6,8.1-8.1c0-4.5-3.6-8.1-8.1-8.1s-8.1,3.6-8.1,8.1
	C1160.2,477.9,1163.8,481.5,1168.3,481.5z M1195.8,481.5c4.5,0,8.1-3.6,8.1-8.1c0-4.5-3.6-8.1-8.1-8.1s-8.1,3.6-8.1,8.1
	C1187.7,477.9,1191.3,481.5,1195.8,481.5z M1223.4,481.5c4.5,0,8.1-3.6,8.1-8.1c0-4.5-3.6-8.1-8.1-8.1c-4.5,0-8.1,3.6-8.1,8.1
	C1215.3,477.9,1218.9,481.5,1223.4,481.5z M1250.9,481.5c4.5,0,8.1-3.6,8.1-8.1c0-4.5-3.6-8.1-8.1-8.1s-8.1,3.6-8.1,8.1
	C1242.8,477.9,1246.5,481.5,1250.9,481.5z M1278.5,481.5c4.5,0,8.1-3.6,8.1-8.1c0-4.5-3.6-8.1-8.1-8.1s-8.1,3.6-8.1,8.1
	C1270.4,477.9,1274,481.5,1278.5,481.5z M1306.1,481.5c4.5,0,8.1-3.6,8.1-8.1c0-4.5-3.6-8.1-8.1-8.1s-8.1,3.6-8.1,8.1
	C1297.9,477.9,1301.6,481.5,1306.1,481.5z M10.8,507.7c3.7,0,6.7-3,6.7-6.7c0-3.7-3-6.7-6.7-6.7s-6.7,3-6.7,6.7
	C4.1,504.7,7.1,507.7,10.8,507.7z M38.4,507.7c3.7,0,6.7-3,6.7-6.7c0-3.7-3-6.7-6.7-6.7s-6.7,3-6.7,6.7
	C31.7,504.7,34.7,507.7,38.4,507.7z M66,507.7c3.7,0,6.7-3,6.7-6.7c0-3.7-3-6.7-6.7-6.7c-3.7,0-6.7,3-6.7,6.7
	C59.3,504.7,62.3,507.7,66,507.7z M93.5,507.7c3.7,0,6.7-3,6.7-6.7c0-3.7-3-6.7-6.7-6.7c-3.7,0-6.7,3-6.7,6.7
	C86.8,504.7,89.8,507.7,93.5,507.7z M121.1,507.7c3.7,0,6.7-3,6.7-6.7c0-3.7-3-6.7-6.7-6.7c-3.7,0-6.7,3-6.7,6.7
	C114.4,504.7,117.4,507.7,121.1,507.7z M148.6,507.7c3.7,0,6.7-3,6.7-6.7c0-3.7-3-6.7-6.7-6.7c-3.7,0-6.7,3-6.7,6.7
	C141.9,504.7,144.9,507.7,148.6,507.7z M176.2,507.7c3.7,0,6.7-3,6.7-6.7c0-3.7-3-6.7-6.7-6.7c-3.7,0-6.7,3-6.7,6.7
	C169.5,504.7,172.5,507.7,176.2,507.7z M203.7,507.7c3.7,0,6.7-3,6.7-6.7c0-3.7-3-6.7-6.7-6.7s-6.7,3-6.7,6.7
	C197,504.7,200,507.7,203.7,507.7z M231.3,507.7c3.7,0,6.7-3,6.7-6.7c0-3.7-3-6.7-6.7-6.7c-3.7,0-6.7,3-6.7,6.7
	C224.6,504.7,227.6,507.7,231.3,507.7z M258.9,507.7c3.7,0,6.7-3,6.7-6.7c0-3.7-3-6.7-6.7-6.7c-3.7,0-6.7,3-6.7,6.7
	C252.2,504.7,255.2,507.7,258.9,507.7z M286.4,507.7c3.7,0,6.7-3,6.7-6.7c0-3.7-3-6.7-6.7-6.7c-3.7,0-6.7,3-6.7,6.7
	C279.7,504.7,282.7,507.7,286.4,507.7z M314,507.7c3.7,0,6.7-3,6.7-6.7c0-3.7-3-6.7-6.7-6.7c-3.7,0-6.7,3-6.7,6.7
	C307.3,504.7,310.3,507.7,314,507.7z M341.5,507.7c3.7,0,6.7-3,6.7-6.7c0-3.7-3-6.7-6.7-6.7c-3.7,0-6.7,3-6.7,6.7
	C334.8,504.7,337.8,507.7,341.5,507.7z M369.1,507.7c3.7,0,6.7-3,6.7-6.7c0-3.7-3-6.7-6.7-6.7s-6.7,3-6.7,6.7
	C362.4,504.7,365.4,507.7,369.1,507.7z M396.7,507.7c3.7,0,6.7-3,6.7-6.7c0-3.7-3-6.7-6.7-6.7s-6.7,3-6.7,6.7
	C389.9,504.7,392.9,507.7,396.7,507.7z M424.2,507.7c3.7,0,6.7-3,6.7-6.7c0-3.7-3-6.7-6.7-6.7c-3.7,0-6.7,3-6.7,6.7
	C417.5,504.7,420.5,507.7,424.2,507.7z M451.8,507.7c3.7,0,6.7-3,6.7-6.7c0-3.7-3-6.7-6.7-6.7c-3.7,0-6.7,3-6.7,6.7
	C445.1,504.7,448.1,507.7,451.8,507.7z M479.3,507.7c3.7,0,6.7-3,6.7-6.7c0-3.7-3-6.7-6.7-6.7c-3.7,0-6.7,3-6.7,6.7
	C472.6,504.7,475.6,507.7,479.3,507.7z M506.9,507.7c3.7,0,6.7-3,6.7-6.7c0-3.7-3-6.7-6.7-6.7c-3.7,0-6.7,3-6.7,6.7
	C500.2,504.7,503.2,507.7,506.9,507.7z M534.4,507.7c3.7,0,6.7-3,6.7-6.7c0-3.7-3-6.7-6.7-6.7c-3.7,0-6.7,3-6.7,6.7
	C527.7,504.7,530.7,507.7,534.4,507.7z M562,507.7c3.7,0,6.7-3,6.7-6.7c0-3.7-3-6.7-6.7-6.7s-6.7,3-6.7,6.7
	C555.3,504.7,558.3,507.7,562,507.7z M589.6,507.7c3.7,0,6.7-3,6.7-6.7c0-3.7-3-6.7-6.7-6.7c-3.7,0-6.7,3-6.7,6.7
	C582.9,504.7,585.9,507.7,589.6,507.7z M617.1,507.7c3.7,0,6.7-3,6.7-6.7c0-3.7-3-6.7-6.7-6.7s-6.7,3-6.7,6.7
	C610.4,504.7,613.4,507.7,617.1,507.7z M644.7,507.7c3.7,0,6.7-3,6.7-6.7c0-3.7-3-6.7-6.7-6.7c-3.7,0-6.7,3-6.7,6.7
	C638,504.7,641,507.7,644.7,507.7z M672.2,507.7c3.7,0,6.7-3,6.7-6.7c0-3.7-3-6.7-6.7-6.7c-3.7,0-6.7,3-6.7,6.7
	C665.5,504.7,668.5,507.7,672.2,507.7z M699.8,507.7c3.7,0,6.7-3,6.7-6.7c0-3.7-3-6.7-6.7-6.7s-6.7,3-6.7,6.7
	C693.1,504.7,696.1,507.7,699.8,507.7z M727.3,507.7c3.7,0,6.7-3,6.7-6.7c0-3.7-3-6.7-6.7-6.7c-3.7,0-6.7,3-6.7,6.7
	C720.6,504.7,723.6,507.7,727.3,507.7z M754.9,507.7c3.7,0,6.7-3,6.7-6.7c0-3.7-3-6.7-6.7-6.7s-6.7,3-6.7,6.7
	C748.2,504.7,751.2,507.7,754.9,507.7z M782.5,507.7c3.7,0,6.7-3,6.7-6.7c0-3.7-3-6.7-6.7-6.7c-3.7,0-6.7,3-6.7,6.7
	C775.8,504.7,778.8,507.7,782.5,507.7z M810,507.7c3.7,0,6.7-3,6.7-6.7c0-3.7-3-6.7-6.7-6.7s-6.7,3-6.7,6.7
	C803.3,504.7,806.3,507.7,810,507.7z M837.6,507.7c3.7,0,6.7-3,6.7-6.7c0-3.7-3-6.7-6.7-6.7c-3.7,0-6.7,3-6.7,6.7
	C830.9,504.7,833.9,507.7,837.6,507.7z M865.1,507.7c3.7,0,6.7-3,6.7-6.7c0-3.7-3-6.7-6.7-6.7c-3.7,0-6.7,3-6.7,6.7
	C858.4,504.7,861.4,507.7,865.1,507.7z M892.7,507.7c3.7,0,6.7-3,6.7-6.7c0-3.7-3-6.7-6.7-6.7s-6.7,3-6.7,6.7
	C886,504.7,889,507.7,892.7,507.7z M920.3,507.7c3.7,0,6.7-3,6.7-6.7c0-3.7-3-6.7-6.7-6.7c-3.7,0-6.7,3-6.7,6.7
	C913.5,504.7,916.5,507.7,920.3,507.7z M947.8,507.7c3.7,0,6.7-3,6.7-6.7c0-3.7-3-6.7-6.7-6.7s-6.7,3-6.7,6.7
	C941.1,504.7,944.1,507.7,947.8,507.7z M975.4,507.7c3.7,0,6.7-3,6.7-6.7c0-3.7-3-6.7-6.7-6.7c-3.7,0-6.7,3-6.7,6.7
	C968.7,504.7,971.7,507.7,975.4,507.7z M1002.9,507.7c3.7,0,6.7-3,6.7-6.7c0-3.7-3-6.7-6.7-6.7s-6.7,3-6.7,6.7
	C996.2,504.7,999.2,507.7,1002.9,507.7z M1030.5,507.7c3.7,0,6.7-3,6.7-6.7c0-3.7-3-6.7-6.7-6.7c-3.7,0-6.7,3-6.7,6.7
	C1023.8,504.7,1026.8,507.7,1030.5,507.7z M1058,507.7c3.7,0,6.7-3,6.7-6.7c0-3.7-3-6.7-6.7-6.7c-3.7,0-6.7,3-6.7,6.7
	C1051.3,504.7,1054.3,507.7,1058,507.7z M1085.6,507.7c3.7,0,6.7-3,6.7-6.7c0-3.7-3-6.7-6.7-6.7s-6.7,3-6.7,6.7
	C1078.9,504.7,1081.9,507.7,1085.6,507.7z M1113.2,507.7c3.7,0,6.7-3,6.7-6.7c0-3.7-3-6.7-6.7-6.7c-3.7,0-6.7,3-6.7,6.7
	C1106.5,504.7,1109.5,507.7,1113.2,507.7z M1140.7,507.7c3.7,0,6.7-3,6.7-6.7c0-3.7-3-6.7-6.7-6.7c-3.7,0-6.7,3-6.7,6.7
	C1134,504.7,1137,507.7,1140.7,507.7z M1168.3,507.7c3.7,0,6.7-3,6.7-6.7c0-3.7-3-6.7-6.7-6.7c-3.7,0-6.7,3-6.7,6.7
	C1161.6,504.7,1164.6,507.7,1168.3,507.7z M1195.8,507.7c3.7,0,6.7-3,6.7-6.7c0-3.7-3-6.7-6.7-6.7s-6.7,3-6.7,6.7
	C1189.1,504.7,1192.1,507.7,1195.8,507.7z M1223.4,507.7c3.7,0,6.7-3,6.7-6.7c0-3.7-3-6.7-6.7-6.7c-3.7,0-6.7,3-6.7,6.7
	C1216.7,504.7,1219.7,507.7,1223.4,507.7z M1250.9,507.7c3.7,0,6.7-3,6.7-6.7c0-3.7-3-6.7-6.7-6.7c-3.7,0-6.7,3-6.7,6.7
	C1244.2,504.7,1247.2,507.7,1250.9,507.7z M1278.5,507.7c3.7,0,6.7-3,6.7-6.7c0-3.7-3-6.7-6.7-6.7s-6.7,3-6.7,6.7
	C1271.8,504.7,1274.8,507.7,1278.5,507.7z M1306.1,507.7c3.7,0,6.7-3,6.7-6.7c0-3.7-3-6.7-6.7-6.7c-3.7,0-6.7,3-6.7,6.7
	C1299.4,504.7,1302.4,507.7,1306.1,507.7z M66,533.9c3,0,5.3-2.4,5.3-5.3c0-3-2.4-5.3-5.3-5.3c-3,0-5.3,2.4-5.3,5.3
	C60.6,531.5,63,533.9,66,533.9z M93.5,533.9c3,0,5.3-2.4,5.3-5.3c0-3-2.4-5.3-5.3-5.3c-3,0-5.3,2.4-5.3,5.3
	C88.2,531.5,90.6,533.9,93.5,533.9z M121.1,533.9c3,0,5.3-2.4,5.3-5.3c0-3-2.4-5.3-5.3-5.3s-5.3,2.4-5.3,5.3
	C115.7,531.5,118.1,533.9,121.1,533.9z M148.6,533.9c3,0,5.3-2.4,5.3-5.3c0-3-2.4-5.3-5.3-5.3c-3,0-5.3,2.4-5.3,5.3
	C143.3,531.5,145.7,533.9,148.6,533.9z M176.2,533.9c3,0,5.3-2.4,5.3-5.3c0-3-2.4-5.3-5.3-5.3c-3,0-5.3,2.4-5.3,5.3
	C170.8,531.5,173.2,533.9,176.2,533.9z M203.7,533.9c3,0,5.3-2.4,5.3-5.3c0-3-2.4-5.3-5.3-5.3s-5.3,2.4-5.3,5.3
	C198.4,531.5,200.8,533.9,203.7,533.9z M231.3,533.9c3,0,5.3-2.4,5.3-5.3c0-3-2.4-5.3-5.3-5.3s-5.3,2.4-5.3,5.3
	C226,531.5,228.4,533.9,231.3,533.9z M258.9,533.9c3,0,5.3-2.4,5.3-5.3c0-3-2.4-5.3-5.3-5.3c-3,0-5.3,2.4-5.3,5.3
	C253.5,531.5,255.9,533.9,258.9,533.9z M286.4,533.9c3,0,5.3-2.4,5.3-5.3c0-3-2.4-5.3-5.3-5.3c-3,0-5.3,2.4-5.3,5.3
	C281.1,531.5,283.5,533.9,286.4,533.9z M314,533.9c3,0,5.3-2.4,5.3-5.3c0-3-2.4-5.3-5.3-5.3c-3,0-5.3,2.4-5.3,5.3
	C308.6,531.5,311,533.9,314,533.9z M341.5,533.9c3,0,5.3-2.4,5.3-5.3c0-3-2.4-5.3-5.3-5.3c-3,0-5.3,2.4-5.3,5.3
	C336.2,531.5,338.6,533.9,341.5,533.9z M369.1,533.9c3,0,5.3-2.4,5.3-5.3c0-3-2.4-5.3-5.3-5.3c-3,0-5.3,2.4-5.3,5.3
	C363.8,531.5,366.1,533.9,369.1,533.9z M396.7,533.9c3,0,5.3-2.4,5.3-5.3c0-3-2.4-5.3-5.3-5.3s-5.3,2.4-5.3,5.3
	C391.3,531.5,393.7,533.9,396.7,533.9z M424.2,533.9c3,0,5.3-2.4,5.3-5.3c0-3-2.4-5.3-5.3-5.3c-3,0-5.3,2.4-5.3,5.3
	C418.9,531.5,421.3,533.9,424.2,533.9z M451.8,533.9c3,0,5.3-2.4,5.3-5.3c0-3-2.4-5.3-5.3-5.3c-3,0-5.3,2.4-5.3,5.3
	C446.4,531.5,448.8,533.9,451.8,533.9z M479.3,533.9c3,0,5.3-2.4,5.3-5.3c0-3-2.4-5.3-5.3-5.3c-3,0-5.3,2.4-5.3,5.3
	C474,531.5,476.4,533.9,479.3,533.9z M506.9,533.9c3,0,5.3-2.4,5.3-5.3c0-3-2.4-5.3-5.3-5.3c-3,0-5.3,2.4-5.3,5.3
	C501.5,531.5,503.9,533.9,506.9,533.9z M534.4,533.9c3,0,5.3-2.4,5.3-5.3c0-3-2.4-5.3-5.3-5.3c-3,0-5.3,2.4-5.3,5.3
	C529.1,531.5,531.5,533.9,534.4,533.9z M562,533.9c3,0,5.3-2.4,5.3-5.3c0-3-2.4-5.3-5.3-5.3s-5.3,2.4-5.3,5.3
	C556.7,531.5,559,533.9,562,533.9z M589.6,533.9c3,0,5.3-2.4,5.3-5.3c0-3-2.4-5.3-5.3-5.3c-3,0-5.3,2.4-5.3,5.3
	C584.2,531.5,586.6,533.9,589.6,533.9z M617.1,533.9c3,0,5.3-2.4,5.3-5.3c0-3-2.4-5.3-5.3-5.3s-5.3,2.4-5.3,5.3
	C611.8,531.5,614.2,533.9,617.1,533.9z M644.7,533.9c3,0,5.3-2.4,5.3-5.3c0-3-2.4-5.3-5.3-5.3c-3,0-5.3,2.4-5.3,5.3
	C639.3,531.5,641.7,533.9,644.7,533.9z M672.2,533.9c3,0,5.3-2.4,5.3-5.3c0-3-2.4-5.3-5.3-5.3c-3,0-5.3,2.4-5.3,5.3
	C666.9,531.5,669.3,533.9,672.2,533.9z M699.8,533.9c3,0,5.3-2.4,5.3-5.3c0-3-2.4-5.3-5.3-5.3s-5.3,2.4-5.3,5.3
	C694.4,531.5,696.8,533.9,699.8,533.9z M727.3,533.9c3,0,5.3-2.4,5.3-5.3c0-3-2.4-5.3-5.3-5.3c-3,0-5.3,2.4-5.3,5.3
	C722,531.5,724.4,533.9,727.3,533.9z M754.9,533.9c3,0,5.3-2.4,5.3-5.3c0-3-2.4-5.3-5.3-5.3s-5.3,2.4-5.3,5.3
	C749.6,531.5,752,533.9,754.9,533.9z M782.5,533.9c3,0,5.3-2.4,5.3-5.3c0-3-2.4-5.3-5.3-5.3c-3,0-5.3,2.4-5.3,5.3
	C777.1,531.5,779.5,533.9,782.5,533.9z M810,533.9c3,0,5.3-2.4,5.3-5.3c0-3-2.4-5.3-5.3-5.3s-5.3,2.4-5.3,5.3
	C804.7,531.5,807.1,533.9,810,533.9z M837.6,533.9c3,0,5.3-2.4,5.3-5.3c0-3-2.4-5.3-5.3-5.3c-3,0-5.3,2.4-5.3,5.3
	C832.2,531.5,834.6,533.9,837.6,533.9z M865.1,533.9c3,0,5.3-2.4,5.3-5.3c0-3-2.4-5.3-5.3-5.3c-3,0-5.3,2.4-5.3,5.3
	C859.8,531.5,862.2,533.9,865.1,533.9z M892.7,533.9c3,0,5.3-2.4,5.3-5.3c0-3-2.4-5.3-5.3-5.3s-5.3,2.4-5.3,5.3
	C887.4,531.5,889.7,533.9,892.7,533.9z M920.3,533.9c3,0,5.3-2.4,5.3-5.3c0-3-2.4-5.3-5.3-5.3c-3,0-5.3,2.4-5.3,5.3
	C914.9,531.5,917.3,533.9,920.3,533.9z M947.8,533.9c3,0,5.3-2.4,5.3-5.3c0-3-2.4-5.3-5.3-5.3s-5.3,2.4-5.3,5.3
	C942.5,531.5,944.9,533.9,947.8,533.9z M975.4,533.9c3,0,5.3-2.4,5.3-5.3c0-3-2.4-5.3-5.3-5.3c-3,0-5.3,2.4-5.3,5.3
	C970,531.5,972.4,533.9,975.4,533.9z M1002.9,533.9c3,0,5.3-2.4,5.3-5.3c0-3-2.4-5.3-5.3-5.3s-5.3,2.4-5.3,5.3
	C997.6,531.5,1000,533.9,1002.9,533.9z M1030.5,533.9c3,0,5.3-2.4,5.3-5.3c0-3-2.4-5.3-5.3-5.3c-3,0-5.3,2.4-5.3,5.3
	C1025.1,531.5,1027.5,533.9,1030.5,533.9z M1058,533.9c3,0,5.3-2.4,5.3-5.3c0-3-2.4-5.3-5.3-5.3c-3,0-5.3,2.4-5.3,5.3
	C1052.7,531.5,1055.1,533.9,1058,533.9z M1085.6,533.9c3,0,5.3-2.4,5.3-5.3c0-3-2.4-5.3-5.3-5.3s-5.3,2.4-5.3,5.3
	C1080.3,531.5,1082.6,533.9,1085.6,533.9z M1113.2,533.9c3,0,5.3-2.4,5.3-5.3c0-3-2.4-5.3-5.3-5.3c-3,0-5.3,2.4-5.3,5.3
	C1107.8,531.5,1110.2,533.9,1113.2,533.9z M1140.7,533.9c3,0,5.3-2.4,5.3-5.3c0-3-2.4-5.3-5.3-5.3c-3,0-5.3,2.4-5.3,5.3
	C1135.4,531.5,1137.8,533.9,1140.7,533.9z M1168.3,533.9c3,0,5.3-2.4,5.3-5.3c0-3-2.4-5.3-5.3-5.3c-3,0-5.3,2.4-5.3,5.3
	C1162.9,531.5,1165.3,533.9,1168.3,533.9z M1195.8,533.9c3,0,5.3-2.4,5.3-5.3c0-3-2.4-5.3-5.3-5.3s-5.3,2.4-5.3,5.3
	C1190.5,531.5,1192.9,533.9,1195.8,533.9z M1250.9,533.9c3,0,5.3-2.4,5.3-5.3c0-3-2.4-5.3-5.3-5.3c-3,0-5.3,2.4-5.3,5.3
	C1245.6,531.5,1248,533.9,1250.9,533.9z M66,561c2.7,0,4.9-2.2,4.9-4.9s-2.2-4.9-4.9-4.9s-4.9,2.2-4.9,4.9S63.2,561,66,561z
	 M93.5,561c2.7,0,4.9-2.2,4.9-4.9s-2.2-4.9-4.9-4.9c-2.7,0-4.9,2.2-4.9,4.9S90.8,561,93.5,561z M121.1,561c2.7,0,4.9-2.2,4.9-4.9
	s-2.2-4.9-4.9-4.9s-4.9,2.2-4.9,4.9S118.3,561,121.1,561z M148.6,561c2.7,0,4.9-2.2,4.9-4.9s-2.2-4.9-4.9-4.9
	c-2.7,0-4.9,2.2-4.9,4.9S145.9,561,148.6,561z M176.2,561c2.7,0,4.9-2.2,4.9-4.9s-2.2-4.9-4.9-4.9c-2.7,0-4.9,2.2-4.9,4.9
	S173.5,561,176.2,561z M203.7,561c2.7,0,4.9-2.2,4.9-4.9s-2.2-4.9-4.9-4.9s-4.9,2.2-4.9,4.9S201,561,203.7,561z M231.3,561
	c2.7,0,4.9-2.2,4.9-4.9s-2.2-4.9-4.9-4.9c-2.7,0-4.9,2.2-4.9,4.9S228.6,561,231.3,561z M258.9,561c2.7,0,4.9-2.2,4.9-4.9
	s-2.2-4.9-4.9-4.9c-2.7,0-4.9,2.2-4.9,4.9S256.1,561,258.9,561z M286.4,561c2.7,0,4.9-2.2,4.9-4.9s-2.2-4.9-4.9-4.9
	c-2.7,0-4.9,2.2-4.9,4.9S283.7,561,286.4,561z M314,561c2.7,0,4.9-2.2,4.9-4.9s-2.2-4.9-4.9-4.9c-2.7,0-4.9,2.2-4.9,4.9
	S311.3,561,314,561z M341.5,561c2.7,0,4.9-2.2,4.9-4.9s-2.2-4.9-4.9-4.9c-2.7,0-4.9,2.2-4.9,4.9S338.8,561,341.5,561z M369.1,561
	c2.7,0,4.9-2.2,4.9-4.9s-2.2-4.9-4.9-4.9s-4.9,2.2-4.9,4.9S366.4,561,369.1,561z M396.7,561c2.7,0,4.9-2.2,4.9-4.9s-2.2-4.9-4.9-4.9
	s-4.9,2.2-4.9,4.9S393.9,561,396.7,561z M424.2,561c2.7,0,4.9-2.2,4.9-4.9s-2.2-4.9-4.9-4.9c-2.7,0-4.9,2.2-4.9,4.9
	S421.5,561,424.2,561z M451.8,561c2.7,0,4.9-2.2,4.9-4.9s-2.2-4.9-4.9-4.9c-2.7,0-4.9,2.2-4.9,4.9S449,561,451.8,561z M479.3,561
	c2.7,0,4.9-2.2,4.9-4.9s-2.2-4.9-4.9-4.9c-2.7,0-4.9,2.2-4.9,4.9S476.6,561,479.3,561z M506.9,561c2.7,0,4.9-2.2,4.9-4.9
	s-2.2-4.9-4.9-4.9c-2.7,0-4.9,2.2-4.9,4.9S504.2,561,506.9,561z M534.4,561c2.7,0,4.9-2.2,4.9-4.9s-2.2-4.9-4.9-4.9
	c-2.7,0-4.9,2.2-4.9,4.9S531.7,561,534.4,561z M562,561c2.7,0,4.9-2.2,4.9-4.9s-2.2-4.9-4.9-4.9s-4.9,2.2-4.9,4.9S559.3,561,562,561
	z M589.6,561c2.7,0,4.9-2.2,4.9-4.9s-2.2-4.9-4.9-4.9c-2.7,0-4.9,2.2-4.9,4.9S586.8,561,589.6,561z M617.1,561
	c2.7,0,4.9-2.2,4.9-4.9s-2.2-4.9-4.9-4.9s-4.9,2.2-4.9,4.9S614.4,561,617.1,561z M644.7,561c2.7,0,4.9-2.2,4.9-4.9s-2.2-4.9-4.9-4.9
	c-2.7,0-4.9,2.2-4.9,4.9S641.9,561,644.7,561z M672.2,561c2.7,0,4.9-2.2,4.9-4.9s-2.2-4.9-4.9-4.9c-2.7,0-4.9,2.2-4.9,4.9
	S669.5,561,672.2,561z M699.8,561c2.7,0,4.9-2.2,4.9-4.9s-2.2-4.9-4.9-4.9s-4.9,2.2-4.9,4.9S697.1,561,699.8,561z M727.3,561
	c2.7,0,4.9-2.2,4.9-4.9s-2.2-4.9-4.9-4.9c-2.7,0-4.9,2.2-4.9,4.9S724.6,561,727.3,561z M754.9,561c2.7,0,4.9-2.2,4.9-4.9
	s-2.2-4.9-4.9-4.9s-4.9,2.2-4.9,4.9S752.2,561,754.9,561z M782.5,561c2.7,0,4.9-2.2,4.9-4.9s-2.2-4.9-4.9-4.9
	c-2.7,0-4.9,2.2-4.9,4.9S779.7,561,782.5,561z M810,561c2.7,0,4.9-2.2,4.9-4.9s-2.2-4.9-4.9-4.9s-4.9,2.2-4.9,4.9S807.3,561,810,561
	z M837.6,561c2.7,0,4.9-2.2,4.9-4.9s-2.2-4.9-4.9-4.9c-2.7,0-4.9,2.2-4.9,4.9S834.9,561,837.6,561z M865.1,561
	c2.7,0,4.9-2.2,4.9-4.9s-2.2-4.9-4.9-4.9c-2.7,0-4.9,2.2-4.9,4.9S862.4,561,865.1,561z M892.7,561c2.7,0,4.9-2.2,4.9-4.9
	s-2.2-4.9-4.9-4.9s-4.9,2.2-4.9,4.9S890,561,892.7,561z M920.3,561c2.7,0,4.9-2.2,4.9-4.9s-2.2-4.9-4.9-4.9c-2.7,0-4.9,2.2-4.9,4.9
	S917.5,561,920.3,561z M947.8,561c2.7,0,4.9-2.2,4.9-4.9s-2.2-4.9-4.9-4.9s-4.9,2.2-4.9,4.9S945.1,561,947.8,561z M975.4,561
	c2.7,0,4.9-2.2,4.9-4.9s-2.2-4.9-4.9-4.9c-2.7,0-4.9,2.2-4.9,4.9S972.6,561,975.4,561z M1002.9,561c2.7,0,4.9-2.2,4.9-4.9
	s-2.2-4.9-4.9-4.9c-2.7,0-4.9,2.2-4.9,4.9S1000.2,561,1002.9,561z M1030.5,561c2.7,0,4.9-2.2,4.9-4.9s-2.2-4.9-4.9-4.9
	c-2.7,0-4.9,2.2-4.9,4.9S1027.8,561,1030.5,561z M1058,561c2.7,0,4.9-2.2,4.9-4.9s-2.2-4.9-4.9-4.9c-2.7,0-4.9,2.2-4.9,4.9
	S1055.3,561,1058,561z M1085.6,561c2.7,0,4.9-2.2,4.9-4.9s-2.2-4.9-4.9-4.9s-4.9,2.2-4.9,4.9S1082.9,561,1085.6,561z M1113.2,561
	c2.7,0,4.9-2.2,4.9-4.9s-2.2-4.9-4.9-4.9s-4.9,2.2-4.9,4.9S1110.4,561,1113.2,561z M1140.7,561c2.7,0,4.9-2.2,4.9-4.9
	s-2.2-4.9-4.9-4.9c-2.7,0-4.9,2.2-4.9,4.9S1138,561,1140.7,561z M1168.3,561c2.7,0,4.9-2.2,4.9-4.9s-2.2-4.9-4.9-4.9
	s-4.9,2.2-4.9,4.9S1165.5,561,1168.3,561z M1195.8,561c2.7,0,4.9-2.2,4.9-4.9s-2.2-4.9-4.9-4.9s-4.9,2.2-4.9,4.9
	S1193.1,561,1195.8,561z M66,588.6c2.7,0,4.9-2.2,4.9-4.9c0-2.7-2.2-4.9-4.9-4.9s-4.9,2.2-4.9,4.9C61,586.4,63.2,588.6,66,588.6z
	 M93.5,588.6c2.7,0,4.9-2.2,4.9-4.9c0-2.7-2.2-4.9-4.9-4.9c-2.7,0-4.9,2.2-4.9,4.9C88.6,586.4,90.8,588.6,93.5,588.6z M148.6,588.6
	c2.7,0,4.9-2.2,4.9-4.9c0-2.7-2.2-4.9-4.9-4.9c-2.7,0-4.9,2.2-4.9,4.9C143.7,586.4,145.9,588.6,148.6,588.6z M176.2,588.6
	c2.7,0,4.9-2.2,4.9-4.9c0-2.7-2.2-4.9-4.9-4.9c-2.7,0-4.9,2.2-4.9,4.9C171.2,586.4,173.5,588.6,176.2,588.6z M203.7,588.6
	c2.7,0,4.9-2.2,4.9-4.9c0-2.7-2.2-4.9-4.9-4.9s-4.9,2.2-4.9,4.9C198.8,586.4,201,588.6,203.7,588.6z M231.3,588.6
	c2.7,0,4.9-2.2,4.9-4.9c0-2.7-2.2-4.9-4.9-4.9c-2.7,0-4.9,2.2-4.9,4.9C226.4,586.4,228.6,588.6,231.3,588.6z M286.4,588.6
	c2.7,0,4.9-2.2,4.9-4.9c0-2.7-2.2-4.9-4.9-4.9c-2.7,0-4.9,2.2-4.9,4.9C281.5,586.4,283.7,588.6,286.4,588.6z M314,588.6
	c2.7,0,4.9-2.2,4.9-4.9c0-2.7-2.2-4.9-4.9-4.9c-2.7,0-4.9,2.2-4.9,4.9C309,586.4,311.3,588.6,314,588.6z M341.5,588.6
	c2.7,0,4.9-2.2,4.9-4.9c0-2.7-2.2-4.9-4.9-4.9c-2.7,0-4.9,2.2-4.9,4.9C336.6,586.4,338.8,588.6,341.5,588.6z M369.1,588.6
	c2.7,0,4.9-2.2,4.9-4.9c0-2.7-2.2-4.9-4.9-4.9s-4.9,2.2-4.9,4.9C364.2,586.4,366.4,588.6,369.1,588.6z M396.7,588.6
	c2.7,0,4.9-2.2,4.9-4.9c0-2.7-2.2-4.9-4.9-4.9s-4.9,2.2-4.9,4.9C391.7,586.4,393.9,588.6,396.7,588.6z M424.2,588.6
	c2.7,0,4.9-2.2,4.9-4.9c0-2.7-2.2-4.9-4.9-4.9c-2.7,0-4.9,2.2-4.9,4.9C419.3,586.4,421.5,588.6,424.2,588.6z M451.8,588.6
	c2.7,0,4.9-2.2,4.9-4.9c0-2.7-2.2-4.9-4.9-4.9c-2.7,0-4.9,2.2-4.9,4.9C446.8,586.4,449,588.6,451.8,588.6z M479.3,588.6
	c2.7,0,4.9-2.2,4.9-4.9c0-2.7-2.2-4.9-4.9-4.9c-2.7,0-4.9,2.2-4.9,4.9C474.4,586.4,476.6,588.6,479.3,588.6z M506.9,588.6
	c2.7,0,4.9-2.2,4.9-4.9c0-2.7-2.2-4.9-4.9-4.9c-2.7,0-4.9,2.2-4.9,4.9C501.9,586.4,504.2,588.6,506.9,588.6z M534.4,588.6
	c2.7,0,4.9-2.2,4.9-4.9c0-2.7-2.2-4.9-4.9-4.9c-2.7,0-4.9,2.2-4.9,4.9C529.5,586.4,531.7,588.6,534.4,588.6z M562,588.6
	c2.7,0,4.9-2.2,4.9-4.9c0-2.7-2.2-4.9-4.9-4.9s-4.9,2.2-4.9,4.9C557.1,586.4,559.3,588.6,562,588.6z M589.6,588.6
	c2.7,0,4.9-2.2,4.9-4.9c0-2.7-2.2-4.9-4.9-4.9c-2.7,0-4.9,2.2-4.9,4.9C584.6,586.4,586.8,588.6,589.6,588.6z M617.1,588.6
	c2.7,0,4.9-2.2,4.9-4.9c0-2.7-2.2-4.9-4.9-4.9s-4.9,2.2-4.9,4.9C612.2,586.4,614.4,588.6,617.1,588.6z M644.7,588.6
	c2.7,0,4.9-2.2,4.9-4.9c0-2.7-2.2-4.9-4.9-4.9c-2.7,0-4.9,2.2-4.9,4.9C639.7,586.4,641.9,588.6,644.7,588.6z M672.2,588.6
	c2.7,0,4.9-2.2,4.9-4.9c0-2.7-2.2-4.9-4.9-4.9c-2.7,0-4.9,2.2-4.9,4.9C667.3,586.4,669.5,588.6,672.2,588.6z M699.8,588.6
	c2.7,0,4.9-2.2,4.9-4.9c0-2.7-2.2-4.9-4.9-4.9s-4.9,2.2-4.9,4.9C694.8,586.4,697.1,588.6,699.8,588.6z M727.3,588.6
	c2.7,0,4.9-2.2,4.9-4.9c0-2.7-2.2-4.9-4.9-4.9c-2.7,0-4.9,2.2-4.9,4.9C722.4,586.4,724.6,588.6,727.3,588.6z M754.9,588.6
	c2.7,0,4.9-2.2,4.9-4.9c0-2.7-2.2-4.9-4.9-4.9s-4.9,2.2-4.9,4.9C750,586.4,752.2,588.6,754.9,588.6z M782.5,588.6
	c2.7,0,4.9-2.2,4.9-4.9c0-2.7-2.2-4.9-4.9-4.9c-2.7,0-4.9,2.2-4.9,4.9C777.5,586.4,779.7,588.6,782.5,588.6z M810,588.6
	c2.7,0,4.9-2.2,4.9-4.9c0-2.7-2.2-4.9-4.9-4.9s-4.9,2.2-4.9,4.9C805.1,586.4,807.3,588.6,810,588.6z M837.6,588.6
	c2.7,0,4.9-2.2,4.9-4.9c0-2.7-2.2-4.9-4.9-4.9c-2.7,0-4.9,2.2-4.9,4.9C832.6,586.4,834.9,588.6,837.6,588.6z M865.1,588.6
	c2.7,0,4.9-2.2,4.9-4.9c0-2.7-2.2-4.9-4.9-4.9c-2.7,0-4.9,2.2-4.9,4.9C860.2,586.4,862.4,588.6,865.1,588.6z M892.7,588.6
	c2.7,0,4.9-2.2,4.9-4.9c0-2.7-2.2-4.9-4.9-4.9s-4.9,2.2-4.9,4.9C887.8,586.4,890,588.6,892.7,588.6z M920.3,588.6
	c2.7,0,4.9-2.2,4.9-4.9c0-2.7-2.2-4.9-4.9-4.9c-2.7,0-4.9,2.2-4.9,4.9C915.3,586.4,917.5,588.6,920.3,588.6z M947.8,588.6
	c2.7,0,4.9-2.2,4.9-4.9c0-2.7-2.2-4.9-4.9-4.9s-4.9,2.2-4.9,4.9C942.9,586.4,945.1,588.6,947.8,588.6z M975.4,588.6
	c2.7,0,4.9-2.2,4.9-4.9c0-2.7-2.2-4.9-4.9-4.9c-2.7,0-4.9,2.2-4.9,4.9C970.4,586.4,972.6,588.6,975.4,588.6z M1002.9,588.6
	c2.7,0,4.9-2.2,4.9-4.9c0-2.7-2.2-4.9-4.9-4.9c-2.7,0-4.9,2.2-4.9,4.9C998,586.4,1000.2,588.6,1002.9,588.6z M1030.5,588.6
	c2.7,0,4.9-2.2,4.9-4.9c0-2.7-2.2-4.9-4.9-4.9c-2.7,0-4.9,2.2-4.9,4.9C1025.5,586.4,1027.8,588.6,1030.5,588.6z M1058,588.6
	c2.7,0,4.9-2.2,4.9-4.9c0-2.7-2.2-4.9-4.9-4.9c-2.7,0-4.9,2.2-4.9,4.9C1053.1,586.4,1055.3,588.6,1058,588.6z M1085.6,588.6
	c2.7,0,4.9-2.2,4.9-4.9c0-2.7-2.2-4.9-4.9-4.9s-4.9,2.2-4.9,4.9C1080.7,586.4,1082.9,588.6,1085.6,588.6z M1113.2,588.6
	c2.7,0,4.9-2.2,4.9-4.9c0-2.7-2.2-4.9-4.9-4.9s-4.9,2.2-4.9,4.9C1108.2,586.4,1110.4,588.6,1113.2,588.6z M1140.7,588.6
	c2.7,0,4.9-2.2,4.9-4.9c0-2.7-2.2-4.9-4.9-4.9c-2.7,0-4.9,2.2-4.9,4.9C1135.8,586.4,1138,588.6,1140.7,588.6z M1195.8,588.6
	c2.7,0,4.9-2.2,4.9-4.9c0-2.7-2.2-4.9-4.9-4.9s-4.9,2.2-4.9,4.9C1190.9,586.4,1193.1,588.6,1195.8,588.6z M176.2,616.2
	c2.7,0,4.9-2.2,4.9-4.9c0-2.7-2.2-4.9-4.9-4.9c-2.7,0-4.9,2.2-4.9,4.9C171.2,613.9,173.5,616.2,176.2,616.2z M203.7,616.2
	c2.7,0,4.9-2.2,4.9-4.9c0-2.7-2.2-4.9-4.9-4.9s-4.9,2.2-4.9,4.9C198.8,613.9,201,616.2,203.7,616.2z M231.3,616.2
	c2.7,0,4.9-2.2,4.9-4.9c0-2.7-2.2-4.9-4.9-4.9c-2.7,0-4.9,2.2-4.9,4.9C226.4,613.9,228.6,616.2,231.3,616.2z M341.5,616.2
	c2.7,0,4.9-2.2,4.9-4.9c0-2.7-2.2-4.9-4.9-4.9c-2.7,0-4.9,2.2-4.9,4.9C336.6,613.9,338.8,616.2,341.5,616.2z M369.1,616.2
	c2.7,0,4.9-2.2,4.9-4.9c0-2.7-2.2-4.9-4.9-4.9s-4.9,2.2-4.9,4.9C364.2,613.9,366.4,616.2,369.1,616.2z M396.7,616.2
	c2.7,0,4.9-2.2,4.9-4.9c0-2.7-2.2-4.9-4.9-4.9s-4.9,2.2-4.9,4.9C391.7,613.9,393.9,616.2,396.7,616.2z M424.2,616.2
	c2.7,0,4.9-2.2,4.9-4.9c0-2.7-2.2-4.9-4.9-4.9c-2.7,0-4.9,2.2-4.9,4.9C419.3,613.9,421.5,616.2,424.2,616.2z M451.8,616.2
	c2.7,0,4.9-2.2,4.9-4.9c0-2.7-2.2-4.9-4.9-4.9c-2.7,0-4.9,2.2-4.9,4.9C446.8,613.9,449,616.2,451.8,616.2z M479.3,616.2
	c2.7,0,4.9-2.2,4.9-4.9c0-2.7-2.2-4.9-4.9-4.9c-2.7,0-4.9,2.2-4.9,4.9C474.4,613.9,476.6,616.2,479.3,616.2z M534.4,616.2
	c2.7,0,4.9-2.2,4.9-4.9c0-2.7-2.2-4.9-4.9-4.9c-2.7,0-4.9,2.2-4.9,4.9C529.5,613.9,531.7,616.2,534.4,616.2z M617.1,616.2
	c2.7,0,4.9-2.2,4.9-4.9c0-2.7-2.2-4.9-4.9-4.9s-4.9,2.2-4.9,4.9C612.2,613.9,614.4,616.2,617.1,616.2z M644.7,616.2
	c2.7,0,4.9-2.2,4.9-4.9c0-2.7-2.2-4.9-4.9-4.9c-2.7,0-4.9,2.2-4.9,4.9C639.7,613.9,641.9,616.2,644.7,616.2z M672.2,616.2
	c2.7,0,4.9-2.2,4.9-4.9c0-2.7-2.2-4.9-4.9-4.9c-2.7,0-4.9,2.2-4.9,4.9C667.3,613.9,669.5,616.2,672.2,616.2z M699.8,616.2
	c2.7,0,4.9-2.2,4.9-4.9c0-2.7-2.2-4.9-4.9-4.9s-4.9,2.2-4.9,4.9C694.8,613.9,697.1,616.2,699.8,616.2z M754.9,616.2
	c2.7,0,4.9-2.2,4.9-4.9c0-2.7-2.2-4.9-4.9-4.9s-4.9,2.2-4.9,4.9C750,613.9,752.2,616.2,754.9,616.2z M782.5,616.2
	c2.7,0,4.9-2.2,4.9-4.9c0-2.7-2.2-4.9-4.9-4.9c-2.7,0-4.9,2.2-4.9,4.9C777.5,613.9,779.7,616.2,782.5,616.2z M810,616.2
	c2.7,0,4.9-2.2,4.9-4.9c0-2.7-2.2-4.9-4.9-4.9s-4.9,2.2-4.9,4.9C805.1,613.9,807.3,616.2,810,616.2z M837.6,616.2
	c2.7,0,4.9-2.2,4.9-4.9c0-2.7-2.2-4.9-4.9-4.9c-2.7,0-4.9,2.2-4.9,4.9C832.6,613.9,834.9,616.2,837.6,616.2z M865.1,616.2
	c2.7,0,4.9-2.2,4.9-4.9c0-2.7-2.2-4.9-4.9-4.9c-2.7,0-4.9,2.2-4.9,4.9C860.2,613.9,862.4,616.2,865.1,616.2z M892.7,616.2
	c2.7,0,4.9-2.2,4.9-4.9c0-2.7-2.2-4.9-4.9-4.9s-4.9,2.2-4.9,4.9C887.8,613.9,890,616.2,892.7,616.2z M920.3,616.2
	c2.7,0,4.9-2.2,4.9-4.9c0-2.7-2.2-4.9-4.9-4.9c-2.7,0-4.9,2.2-4.9,4.9C915.3,613.9,917.5,616.2,920.3,616.2z M947.8,616.2
	c2.7,0,4.9-2.2,4.9-4.9c0-2.7-2.2-4.9-4.9-4.9s-4.9,2.2-4.9,4.9C942.9,613.9,945.1,616.2,947.8,616.2z M975.4,616.2
	c2.7,0,4.9-2.2,4.9-4.9c0-2.7-2.2-4.9-4.9-4.9c-2.7,0-4.9,2.2-4.9,4.9C970.4,613.9,972.6,616.2,975.4,616.2z M1002.9,616.2
	c2.7,0,4.9-2.2,4.9-4.9c0-2.7-2.2-4.9-4.9-4.9c-2.7,0-4.9,2.2-4.9,4.9C998,613.9,1000.2,616.2,1002.9,616.2z M1030.5,616.2
	c2.7,0,4.9-2.2,4.9-4.9c0-2.7-2.2-4.9-4.9-4.9c-2.7,0-4.9,2.2-4.9,4.9C1025.5,613.9,1027.8,616.2,1030.5,616.2z M1058,616.2
	c2.7,0,4.9-2.2,4.9-4.9c0-2.7-2.2-4.9-4.9-4.9c-2.7,0-4.9,2.2-4.9,4.9C1053.1,613.9,1055.3,616.2,1058,616.2z M1085.6,616.2
	c2.7,0,4.9-2.2,4.9-4.9c0-2.7-2.2-4.9-4.9-4.9s-4.9,2.2-4.9,4.9C1080.7,613.9,1082.9,616.2,1085.6,616.2z M424.2,643.7
	c2.7,0,4.9-2.2,4.9-4.9c0-2.7-2.2-4.9-4.9-4.9c-2.7,0-4.9,2.2-4.9,4.9C419.3,641.5,421.5,643.7,424.2,643.7z M451.8,643.7
	c2.7,0,4.9-2.2,4.9-4.9c0-2.7-2.2-4.9-4.9-4.9c-2.7,0-4.9,2.2-4.9,4.9C446.8,641.5,449,643.7,451.8,643.7z M479.3,643.7
	c2.7,0,4.9-2.2,4.9-4.9c0-2.7-2.2-4.9-4.9-4.9c-2.7,0-4.9,2.2-4.9,4.9C474.4,641.5,476.6,643.7,479.3,643.7z M534.4,643.7
	c2.7,0,4.9-2.2,4.9-4.9c0-2.7-2.2-4.9-4.9-4.9c-2.7,0-4.9,2.2-4.9,4.9C529.5,641.5,531.7,643.7,534.4,643.7z M617.1,643.7
	c2.7,0,4.9-2.2,4.9-4.9c0-2.7-2.2-4.9-4.9-4.9s-4.9,2.2-4.9,4.9C612.2,641.5,614.4,643.7,617.1,643.7z M644.7,643.7
	c2.7,0,4.9-2.2,4.9-4.9c0-2.7-2.2-4.9-4.9-4.9c-2.7,0-4.9,2.2-4.9,4.9C639.7,641.5,641.9,643.7,644.7,643.7z M699.8,643.7
	c2.7,0,4.9-2.2,4.9-4.9c0-2.7-2.2-4.9-4.9-4.9s-4.9,2.2-4.9,4.9C694.8,641.5,697.1,643.7,699.8,643.7z M810,643.7
	c2.7,0,4.9-2.2,4.9-4.9c0-2.7-2.2-4.9-4.9-4.9s-4.9,2.2-4.9,4.9C805.1,641.5,807.3,643.7,810,643.7z M865.1,643.7
	c2.7,0,4.9-2.2,4.9-4.9c0-2.7-2.2-4.9-4.9-4.9c-2.7,0-4.9,2.2-4.9,4.9C860.2,641.5,862.4,643.7,865.1,643.7z M920.3,643.7
	c2.7,0,4.9-2.2,4.9-4.9c0-2.7-2.2-4.9-4.9-4.9c-2.7,0-4.9,2.2-4.9,4.9C915.3,641.5,917.5,643.7,920.3,643.7z M947.8,643.7
	c2.7,0,4.9-2.2,4.9-4.9c0-2.7-2.2-4.9-4.9-4.9s-4.9,2.2-4.9,4.9C942.9,641.5,945.1,643.7,947.8,643.7z M975.4,643.7
	c2.7,0,4.9-2.2,4.9-4.9c0-2.7-2.2-4.9-4.9-4.9c-2.7,0-4.9,2.2-4.9,4.9C970.4,641.5,972.6,643.7,975.4,643.7z M1002.9,643.7
	c2.7,0,4.9-2.2,4.9-4.9c0-2.7-2.2-4.9-4.9-4.9c-2.7,0-4.9,2.2-4.9,4.9C998,641.5,1000.2,643.7,1002.9,643.7z M1030.5,643.7
	c2.7,0,4.9-2.2,4.9-4.9c0-2.7-2.2-4.9-4.9-4.9c-2.7,0-4.9,2.2-4.9,4.9C1025.5,641.5,1027.8,643.7,1030.5,643.7z M1058,643.7
	c2.7,0,4.9-2.2,4.9-4.9c0-2.7-2.2-4.9-4.9-4.9c-2.7,0-4.9,2.2-4.9,4.9C1053.1,641.5,1055.3,643.7,1058,643.7z M451.8,671.3
	c2.7,0,4.9-2.2,4.9-4.9c0-2.7-2.2-4.9-4.9-4.9c-2.7,0-4.9,2.2-4.9,4.9C446.8,669.1,449,671.3,451.8,671.3z M479.3,671.3
	c2.7,0,4.9-2.2,4.9-4.9c0-2.7-2.2-4.9-4.9-4.9c-2.7,0-4.9,2.2-4.9,4.9C474.4,669.1,476.6,671.3,479.3,671.3z M699.8,671.3
	c2.7,0,4.9-2.2,4.9-4.9c0-2.7-2.2-4.9-4.9-4.9s-4.9,2.2-4.9,4.9C694.8,669.1,697.1,671.3,699.8,671.3z M920.3,671.3
	c2.7,0,4.9-2.2,4.9-4.9c0-2.7-2.2-4.9-4.9-4.9c-2.7,0-4.9,2.2-4.9,4.9C915.3,669.1,917.5,671.3,920.3,671.3z M947.8,671.3
	c2.7,0,4.9-2.2,4.9-4.9c0-2.7-2.2-4.9-4.9-4.9s-4.9,2.2-4.9,4.9C942.9,669.1,945.1,671.3,947.8,671.3z M975.4,671.3
	c2.7,0,4.9-2.2,4.9-4.9c0-2.7-2.2-4.9-4.9-4.9c-2.7,0-4.9,2.2-4.9,4.9C970.4,669.1,972.6,671.3,975.4,671.3z M1030.5,671.3
	c2.7,0,4.9-2.2,4.9-4.9c0-2.7-2.2-4.9-4.9-4.9c-2.7,0-4.9,2.2-4.9,4.9C1025.5,669.1,1027.8,671.3,1030.5,671.3z M479.3,698.8
	c2.7,0,4.9-2.2,4.9-4.9s-2.2-4.9-4.9-4.9c-2.7,0-4.9,2.2-4.9,4.9S476.6,698.8,479.3,698.8z M699.8,698.8c2.7,0,4.9-2.2,4.9-4.9
	s-2.2-4.9-4.9-4.9s-4.9,2.2-4.9,4.9S697.1,698.8,699.8,698.8z M920.3,698.8c2.7,0,4.9-2.2,4.9-4.9s-2.2-4.9-4.9-4.9
	c-2.7,0-4.9,2.2-4.9,4.9S917.5,698.8,920.3,698.8z M975.4,698.8c2.7,0,4.9-2.2,4.9-4.9s-2.2-4.9-4.9-4.9c-2.7,0-4.9,2.2-4.9,4.9
	S972.6,698.8,975.4,698.8z M975.4,726.4c2.7,0,4.9-2.2,4.9-4.9c0-2.7-2.2-4.9-4.9-4.9c-2.7,0-4.9,2.2-4.9,4.9
	C970.4,724.2,972.6,726.4,975.4,726.4z"/>
</svg>
