<?xml version="1.0" encoding="UTF-8" standalone="no"?>
<svg
   xmlns:svg="http://www.w3.org/2000/svg"
   xmlns="http://www.w3.org/2000/svg"
   viewBox="0 0 670.66669 246.66667"
   height="246.66667"
   width="670.66669"
   version="1.1"><defs
     id="defs6"><clipPath
       id="clipPath20"
       clipPathUnits="userSpaceOnUse"><path
         id="path18"
         d="M 0,185 H 503 V 0 H 0 Z" /></clipPath><clipPath
       id="clipPath26"
       clipPathUnits="userSpaceOnUse"><path
         id="path24"
         d="M 0,0 H 503 V 185 H 0 Z" /></clipPath></defs><g
     transform="matrix(1.3333333,0,0,-1.3333333,0,246.66667)"
     id="g10"><g
       id="g12" /><g
       id="g14"><g
         clip-path="url(#clipPath20)"
         id="g16"><g
           clip-path="url(#clipPath26)"
           id="g22"><path
             id="path28"
             style="fill:#fff;fill-opacity:1;fill-rule:nonzero;stroke:none"
             d="m 193.793,85.8525 -2.361,-6.607 h -0.134 c -0.422,1.548 -1.129,3.744 -2.236,6.535 l -12.635,31.695 h -12.353 v -50.392 h 8.147 v 30.978 c 0,1.912 -0.041,4.223 -0.121,6.867 -0.042,1.338 -0.194,2.41 -0.231,3.227 h 0.179 c 0.414,-1.899 0.844,-3.345 1.155,-4.313 l 15.151,-36.759 h 5.699 l 15.038,37.091 c 0.341,0.846 0.703,2.496 1.035,3.981 h 0.179 c -0.197,-3.671 -0.364,-7.026 -0.386,-9.05 v -32.022 h 8.691 v 50.392 h -11.863 z" /><path
             id="path30"
             style="fill:#fff;fill-opacity:1;fill-rule:nonzero;stroke:none"
             d="m 226.793,67.084 h 8.495 v 36.112 h -8.495 z" /><path
             id="path32"
             style="fill:#fff;fill-opacity:1;fill-rule:nonzero;stroke:none"
             d="m 231.1279,118.543 c -1.4,0 -2.617,-0.478 -3.619,-1.419 -1.006,-0.945 -1.516,-2.138 -1.516,-3.543 0,-1.383 0.504,-2.551 1.499,-3.473 0.99,-0.918 2.214,-1.383 3.636,-1.383 1.422,0 2.651,0.465 3.652,1.382 1.008,0.923 1.519,2.091 1.519,3.474 0,1.357 -0.498,2.535 -1.478,3.504 -0.98,0.968 -2.222,1.458 -3.693,1.458" /><path
             id="path34"
             style="fill:#fff;fill-opacity:1;fill-rule:nonzero;stroke:none"
             d="m 265.3613,103.5576 c -1.634,0.338 -3.23,0.509 -4.747,0.509 -3.899,0 -7.374,-0.835 -10.331,-2.484 -2.962,-1.65 -5.255,-4.007 -6.812,-7.005 -1.554,-2.991 -2.341,-6.482 -2.341,-10.377 0,-3.413 0.765,-6.542 2.273,-9.303 1.512,-2.766 3.65,-4.928 6.357,-6.428 2.705,-1.497 5.829,-2.257 9.287,-2.257 4.037,0 7.485,0.807 10.247,2.399 l 0.112,0.065 v 7.781 l -0.357,-0.26 c -1.253,-0.912 -2.652,-1.64 -4.156,-2.163 -1.502,-0.524 -2.871,-0.79 -4.07,-0.79 -3.333,0 -6.008,1.043 -7.951,3.1 -1.947,2.059 -2.934,4.947 -2.934,8.586 0,3.662 1.028,6.628 3.057,8.815 2.023,2.182 4.704,3.289 7.967,3.289 2.794,0 5.514,-0.946 8.087,-2.813 l 0.357,-0.259 v 8.2 l -0.114,0.065 c -0.969,0.542 -2.291,0.989 -3.931,1.33" /><path
             id="path36"
             style="fill:#fff;fill-opacity:1;fill-rule:nonzero;stroke:none"
             d="m 293.3506,103.8232 c -2.133,0 -4.044,-0.686 -5.681,-2.037 -1.436,-1.186 -2.473,-2.813 -3.268,-4.843 h -0.09 v 6.253 h -8.494 v -36.112 h 8.494 v 18.473 c 0,3.142 0.713,5.722 2.117,7.67 1.388,1.926 3.236,2.902 5.494,2.902 0.766,0 1.625,-0.126 2.555,-0.375 0.92,-0.248 1.587,-0.518 1.98,-0.801 l 0.358,-0.258 v 8.564 l -0.138,0.058 c -0.79,0.336 -1.91,0.506 -3.327,0.506" /><path
             id="path38"
             style="fill:#fff;fill-opacity:1;fill-rule:nonzero;stroke:none"
             d="m 323.1768,76.2607 c -1.596,-2.002 -3.997,-3.016 -7.138,-3.016 -3.12,0 -5.582,1.034 -7.315,3.073 -1.744,2.049 -2.629,4.97 -2.629,8.683 0,3.828 0.885,6.826 2.629,8.91 1.735,2.073 4.173,3.123 7.246,3.123 2.981,0 5.355,-1.003 7.056,-2.986 1.709,-1.991 2.575,-4.965 2.575,-8.838 0,-3.923 -0.816,-6.933 -2.424,-8.949 m -6.754,27.806 c -5.956,0 -10.685,-1.745 -14.057,-5.187 -3.371,-3.44 -5.079,-8.204 -5.079,-14.158 0,-5.654 1.668,-10.201 4.958,-13.515 3.29,-3.313 7.768,-4.994 13.307,-4.994 5.771,0 10.408,1.769 13.779,5.258 3.369,3.486 5.078,8.202 5.078,14.018 0,5.745 -1.603,10.326 -4.764,13.616 -3.163,3.293 -7.613,4.962 -13.222,4.962" /><path
             id="path40"
             style="fill:#fff;fill-opacity:1;fill-rule:nonzero;stroke:none"
             d="m 353.248,88.2744 c -2.678,1.076 -4.394,1.968 -5.099,2.651 -0.682,0.662 -1.029,1.597 -1.029,2.782 0,1.05 0.428,1.892 1.307,2.573 0.883,0.685 2.114,1.033 3.658,1.033 1.434,0 2.9,-0.226 4.357,-0.67 1.455,-0.443 2.736,-1.037 3.805,-1.764 l 0.352,-0.239 v 7.853 l -0.137,0.058 c -0.985,0.422 -2.283,0.784 -3.861,1.077 -1.574,0.291 -2.999,0.438 -4.238,0.438 -4.051,0 -7.401,-1.036 -9.962,-3.079 -2.574,-2.055 -3.88,-4.75 -3.88,-8.012 0,-1.695 0.282,-3.201 0.837,-4.476 0.557,-1.283 1.422,-2.413 2.571,-3.359 1.136,-0.938 2.896,-1.922 5.226,-2.924 1.957,-0.805 3.418,-1.487 4.347,-2.025 0.907,-0.526 1.551,-1.056 1.913,-1.571 0.354,-0.505 0.534,-1.194 0.534,-2.047 0,-2.428 -1.817,-3.607 -5.555,-3.607 -1.388,0 -2.969,0.289 -4.702,0.86 -1.734,0.57 -3.354,1.391 -4.814,2.441 l -0.357,0.257 v -8.28 l 0.13,-0.061 c 1.218,-0.561 2.751,-1.035 4.56,-1.408 1.808,-0.374 3.446,-0.563 4.868,-0.563 4.398,0 7.936,1.042 10.519,3.096 2.598,2.068 3.916,4.827 3.916,8.204 0,2.434 -0.708,4.522 -2.107,6.204 -1.388,1.67 -3.797,3.204 -7.159,4.558" /><path
             id="path42"
             style="fill:#fff;fill-opacity:1;fill-rule:nonzero;stroke:none"
             d="m 392.1104,76.2607 c -1.596,-2.002 -3.998,-3.016 -7.138,-3.016 -3.12,0 -5.582,1.034 -7.316,3.073 -1.744,2.049 -2.628,4.97 -2.628,8.683 0,3.828 0.885,6.826 2.629,8.91 1.734,2.073 4.172,3.123 7.246,3.123 2.98,0 5.355,-1.003 7.056,-2.986 1.709,-1.991 2.575,-4.965 2.575,-8.838 0,-3.923 -0.817,-6.933 -2.424,-8.949 m -6.755,27.806 c -5.956,0 -10.684,-1.745 -14.057,-5.187 -3.37,-3.44 -5.079,-8.204 -5.079,-14.158 0,-5.654 1.668,-10.201 4.959,-13.515 3.29,-3.313 7.767,-4.994 13.307,-4.994 5.771,0 10.407,1.769 13.778,5.258 3.37,3.486 5.079,8.202 5.079,14.018 0,5.745 -1.603,10.326 -4.765,13.616 -3.163,3.293 -7.613,4.962 -13.222,4.962" /><path
             id="path44"
             style="fill:#fff;fill-opacity:1;fill-rule:nonzero;stroke:none"
             d="m 448.6357,96.2686 v 6.928 h -8.603 v 10.771 l -0.29,-0.089 -8.08,-2.473 -0.159,-0.049 v -8.16 h -12.746 v 4.546 c 0,2.116 0.474,3.736 1.408,4.815 0.927,1.07 2.251,1.612 3.939,1.612 1.215,0 2.473,-0.287 3.74,-0.852 l 0.316,-0.141 v 7.297 l -0.148,0.053 c -1.18,0.425 -2.787,0.64 -4.778,0.64 -2.51,0 -4.79,-0.548 -6.777,-1.628 -1.99,-1.085 -3.555,-2.632 -4.651,-4.599 -1.094,-1.964 -1.648,-4.233 -1.648,-6.744 v -4.999 h -5.99 v -6.928 h 5.99 v -29.185 h 8.599 v 29.185 h 12.746 v -18.547 c 0,-7.637 3.603,-11.509 10.708,-11.509 1.168,0 2.398,0.137 3.652,0.406 1.278,0.275 2.147,0.55 2.659,0.843 l 0.113,0.065 v 6.995 l -0.35,-0.233 c -0.465,-0.312 -1.047,-0.566 -1.729,-0.755 -0.685,-0.192 -1.256,-0.288 -1.698,-0.288 -1.665,0 -2.897,0.448 -3.661,1.333 -0.773,0.893 -1.165,2.454 -1.165,4.641 v 17.049 z" /><path
             id="path46"
             style="fill:#fff;fill-opacity:1;fill-rule:nonzero;stroke:none"
             d="M 94.732,94.347 H 54.771 v 39.961 h 39.961 z" /><path
             id="path48"
             style="fill:#fff;fill-opacity:1;fill-rule:nonzero;stroke:none"
             d="m 138.853,94.348 h -39.96 v 39.96 h 39.96 z" /><path
             id="path50"
             style="fill:#fff;fill-opacity:1;fill-rule:nonzero;stroke:none"
             d="m 94.731,50.211 h -39.96 v 39.96 h 39.96 z" /><path
             id="path52"
             style="fill:#fff;fill-opacity:1;fill-rule:nonzero;stroke:none"
             d="m 138.853,50.211 h -39.96 v 39.96 h 39.96 z" /></g></g></g></g></svg>