<?xml version="1.0" encoding="UTF-8" standalone="no"?>
<svg
   xmlns:svg="http://www.w3.org/2000/svg"
   xmlns="http://www.w3.org/2000/svg"
   viewBox="0 0 567.97333 91.599998"
   height="91.599998"
   width="567.97333"
   version="1.1"><g
     transform="matrix(1.3333333,0,0,-1.3333333,0,91.6)"
     id="g10"><g
       transform="scale(0.1)"
       id="g12"><path
         id="path14"
         style="fill:#ffffff;fill-opacity:1;fill-rule:nonzero;stroke:none"
         d="m 0,489.723 h 74.5508 v -60.465 h 1.6562 c 19.0547,41.418 68.75,70.41 129.219,70.41 76.207,0 142.472,-45.563 142.472,-149.934 V 97.1016 h -74.55 V 329.031 c 0,73.719 -42.243,101.051 -89.461,101.051 -62.121,0 -109.3362,-39.754 -109.3362,-130.863 V 97.1016 H 0 V 489.723" /><path
         id="path16"
         style="fill:#ffffff;fill-opacity:1;fill-rule:nonzero;stroke:none"
         d="m 697.941,325.723 c -1.656,65.433 -38.105,114.304 -113.48,114.304 -73.719,0 -121.766,-62.129 -121.766,-114.304 z M 462.695,266.074 c 0,-68.75 63.782,-114.304 132.535,-114.304 45.555,0 78.692,23.191 107.68,58.804 l 56.324,-43.062 c -41.414,-53.84 -98.57,-80.344 -173.945,-80.344 -124.25,0 -202.109,89.453 -202.109,206.25 0,117.617 85.316,206.25 202.933,206.25 138.336,0 191.348,-106.023 191.348,-207.09 V 266.074 H 462.695" /><path
         id="path18"
         style="fill:#ffffff;fill-opacity:1;fill-rule:nonzero;stroke:none"
         d="m 920.426,306.672 -139.16,183.051 h 96.086 l 95.257,-139.157 93.601,139.157 h 90.29 L 1022.31,306.672 1181.34,97.1016 h -96.08 L 969.293,261.934 853.332,97.1016 H 761.387 L 920.426,306.672" /><path
         id="path20"
         style="fill:#ffffff;fill-opacity:1;fill-rule:nonzero;stroke:none"
         d="m 1201.21,489.723 h 69.58 V 428.43 h 1.65 c 7.46,23.191 55.5,71.238 125.91,71.238 57.98,0 97.74,-24.855 122.59,-72.895 25.68,48.04 77.03,72.895 124.25,72.895 120.94,0 149.1,-86.148 149.1,-173.945 V 97.1016 h -74.55 V 315.781 c 0,59.633 -12.42,114.301 -84.49,114.301 -72.07,0 -100.22,-48.867 -100.22,-118.449 V 97.1016 h -74.56 V 302.527 c 0,74.543 -10.76,127.555 -82.83,127.555 -53.84,0 -101.88,-40.586 -101.88,-129.215 V 97.1016 h -74.55 V 489.723" /><path
         id="path22"
         style="fill:#ffffff;fill-opacity:1;fill-rule:nonzero;stroke:none"
         d="m 2103.12,297.871 c 0,-26.426 -21.42,-47.844 -47.85,-47.844 -26.42,0 -47.84,21.418 -47.84,47.844 0,26.426 21.42,47.844 47.84,47.844 26.43,0 47.85,-21.418 47.85,-47.844" /><path
         id="path24"
         style="fill:#ffffff;fill-opacity:1;fill-rule:nonzero;stroke:none"
         d="m 2053.56,430.055 c 67.16,0 122.88,-48.395 134.58,-112.172 h -26.29 l 63.96,-62.903 64.16,62.903 h -32.07 c -12.26,102.004 -99.03,181.094 -204.34,181.094 -85.41,0 -158.67,-52.008 -189.85,-126.082 l 64.24,-25.161 c 21.11,48.442 69.39,82.321 125.61,82.321" /><path
         id="path26"
         style="fill:#ffffff;fill-opacity:1;fill-rule:nonzero;stroke:none"
         d="m 2053.56,156.094 c -65.89,0 -120.76,46.574 -133.87,108.554 h 29.02 l -63.97,62.903 -64.16,-62.903 h 29.09 c 13.85,-100.253 99.82,-177.48 203.89,-177.48 85.2,0 158.31,51.75 189.62,125.527 l -64.26,25.164 c -21.24,-48.14 -69.36,-81.765 -125.36,-81.765" /><path
         id="path28"
         style="fill:#ffffff;fill-opacity:1;fill-rule:nonzero;stroke:none"
         d="m 2330.36,451.176 h 8.5 c 7.58,0 10.41,3.941 10.41,8.668 0,5.199 -3.63,8.668 -9.78,8.668 h -9.13 z m 16.08,-6.621 13.7,-19.692 h -9.61 l -12.76,18.907 h -7.41 v -18.907 h -8.03 v 51.051 h 18.43 c 11.82,0 17.01,-6.93 17.01,-16.226 0,-8.36 -4.4,-13.239 -11.33,-15.133 z m 31.03,5.527 c 0,21.41 -16.7,39.074 -38.46,39.074 -22.04,0 -38.9,-17.812 -38.9,-39.246 0,-21.258 16.86,-39.07 38.75,-39.07 21.76,0 38.61,17.965 38.61,39.242 z m 9.3,0 c 0,-26.004 -21.12,-48.219 -47.91,-48.219 -26.78,0 -47.89,21.891 -47.89,48.219 0,26.141 21.11,48.356 48.04,48.356 26.8,0 47.76,-22.047 47.76,-48.356" /><path
         id="path30"
         style="fill:#ffffff;fill-opacity:1;fill-rule:nonzero;stroke:none"
         d="m 2826.33,482.984 h -75.21 v 16.707 h 169.26 v -16.707 h -75.2 V 343.938 h -18.85 v 139.046" /><path
         id="path32"
         style="fill:#ffffff;fill-opacity:1;fill-rule:nonzero;stroke:none"
         d="m 2936.6,499.691 h 17.36 v -59.988 c 11.78,10.285 27.2,19.723 47.13,19.723 13.93,0 46.28,-3.219 46.28,-41.578 v -73.91 h -17.36 v 70.488 c 0.43,26.57 -18.86,30.215 -31.06,30.215 -19.07,0 -34.93,-11.789 -44.99,-22.5 v -78.203 h -17.36 v 155.753" /><path
         id="path34"
         style="fill:#ffffff;fill-opacity:1;fill-rule:nonzero;stroke:none"
         d="m 3174.59,411.223 c -3.44,18.41 -19.28,33.418 -45.85,33.418 -25.5,0 -39.85,-12.864 -44.78,-33.418 z m 15.64,-43.926 c -11.57,-12.219 -22.71,-26.777 -60.84,-26.777 -37.71,0 -63.43,25.703 -63.43,59.988 0,35.562 26.79,58.918 61.28,58.918 35.77,0 67.06,-18.656 66.19,-62.988 h -110.12 c 1.72,-21.004 18.65,-41.133 47.78,-41.133 28.92,0 38.57,13.062 45.63,21.847 l 13.51,-9.855" /><path
         id="path36"
         style="fill:#f47216;fill-opacity:1;fill-rule:nonzero;stroke:none"
         d="m 3265.79,499.691 h 32.57 l 58.5,-124.257 59.54,124.257 h 32.57 L 3372.7,343.938 H 3341 l -75.21,155.753" /><path
         id="path38"
         style="fill:#f47216;fill-opacity:1;fill-rule:nonzero;stroke:none"
         d="m 3529.27,402.008 c 0,26.996 -17.35,38.133 -37.49,38.133 -20.35,0 -37.51,-11.137 -37.51,-38.133 0,-24.43 13.71,-39.215 37.51,-39.215 23.78,0 37.49,14.785 37.49,39.215 z m -101.98,-0.43 c 0,30.848 18.64,61.27 64.49,61.27 45.84,0 64.48,-30.422 64.48,-61.27 0,-45.855 -33.01,-61.488 -64.48,-61.488 -31.5,0 -64.49,15.633 -64.49,61.488" /><path
         id="path40"
         style="fill:#f47216;fill-opacity:1;fill-rule:nonzero;stroke:none"
         d="m 3568.86,458.98 h 26.12 v -14.339 c 8.37,8.14 19.71,18.207 43.07,18.207 23.99,0 45,-10.067 45,-45.207 v -73.703 h -26.57 v 63.839 c 0,22.727 -6.85,32.364 -24.63,32.364 -21.22,0 -29.8,-8.789 -36.44,-16.926 v -79.277 h -26.55 V 458.98" /><path
         id="path42"
         style="fill:#f47216;fill-opacity:1;fill-rule:nonzero;stroke:none"
         d="m 3794.85,402.008 c -15.42,-0.653 -28.92,-2.793 -41.35,-5.793 -16.49,-3.852 -24.2,-9.422 -24.43,-19.5 -0.2,-9.852 6.22,-16.07 19.28,-16.07 20.14,0 36.22,8.789 46.5,15.007 z m 26.56,-39.43 c 0,-7.726 0.43,-15.422 2.15,-18.64 h -27.2 c -0.87,3.855 -1.51,7.71 -1.51,11.57 -11.14,-6.426 -27.64,-15.418 -50.35,-15.418 -15.2,0 -44.56,6.426 -44.56,34.695 0,38.785 57.85,44.356 94.91,46.5 v 5.145 c 0,8.773 -7.93,14.992 -29.78,14.992 -24.43,0 -29.57,-8.996 -31.07,-15.211 h -27.63 c 6.42,31.273 37.06,36.637 58.48,36.637 55.48,0 56.56,-26.996 56.56,-42.852 v -57.418" /><path
         id="path44"
         style="fill:#f47216;fill-opacity:1;fill-rule:nonzero;stroke:none"
         d="m 3935.56,420.859 c 0,17.137 -17.58,22.282 -31.72,22.282 -14.56,0 -30.85,-5.145 -30.85,-22.5 0,-18.004 16.5,-22.5 30.64,-22.5 14.14,0 31.93,5.789 31.93,22.718 z m -51.2,-78.418 c -6.22,0 -15.22,-1.718 -15.22,-8.359 0,-9.426 12.42,-10.496 33.42,-10.496 20.78,0 43.06,2.352 43.06,11.559 0,7.941 -4.72,7.523 -34.07,7.296 z m 90.18,97.907 c -2.35,0.648 -6.64,2.148 -9.64,1.718 -2.99,0 -6.84,-1.296 -8.56,-2.144 1.72,-2.356 5.34,-9.215 5.34,-19.063 0,-31.289 -27.85,-42.425 -58.27,-42.425 -10.71,0 -19.05,1.718 -24.2,3.64 -3,-1.922 -7.29,-5.14 -7.29,-9.215 0,-4.07 2.57,-6.843 25.7,-6.636 h 36.21 c 25.93,-0.852 40.94,-8.352 40.94,-26.352 0,-27.43 -40.07,-35.351 -74.78,-35.351 -32.15,0 -59.99,6.425 -59.99,25.492 0,13.711 12.21,15.64 23.13,17.781 v 0.437 c -9.85,0.852 -17.34,6.204 -17.34,17.786 0,11.562 10.92,20.336 20.13,21.629 v 0.425 c -12.86,7.071 -19.07,18.434 -19.07,32.993 0,33.847 31.06,41.785 59.35,41.785 20.14,0 31.93,-5.145 39.85,-10.496 4.07,4.281 12.63,12.418 24.21,12.418 h 4.28 v -24.422" /><path
         id="path46"
         style="fill:#f47216;fill-opacity:1;fill-rule:nonzero;stroke:none"
         d="m 4085.91,414.645 c -4.07,19.488 -17.35,26.777 -36.42,26.777 -13.93,0 -30,-4.719 -35.36,-26.777 z m 26.14,-36.211 c -1.93,-9.418 -17.35,-38.344 -59.99,-38.344 -41.13,0 -65.78,25.703 -65.78,61.691 0,32.571 21.43,61.067 63.86,61.067 43.26,-0.426 64.04,-27.219 64.04,-68.782 h -100.9 c 1.08,-7.273 5.14,-31.273 37.91,-32.562 16.71,0 27.87,7.93 31.72,16.93 h 29.14" /><path
         id="path48"
         style="fill:#f47216;fill-opacity:1;fill-rule:nonzero;stroke:none"
         d="m 4139.24,452.309 h 8.27 c 5.02,0 9.02,0.582 9.02,6.089 0,5.348 -4.41,5.934 -9.02,5.934 h -8.27 z m 6.94,-4.516 h -6.94 v -16.879 h -5.02 v 37.93 h 15.06 c 8.51,0 12.27,-3.676 12.27,-10.524 0,-6.597 -4.43,-9.687 -9.53,-10.527 l 11.46,-16.879 h -6.18 z m 0.33,-24.832 c 14.89,0 26.91,11.957 26.91,26.84 0,14.879 -12.02,26.898 -26.91,26.898 -14.88,0 -26.83,-12.019 -26.83,-26.898 0,-14.883 11.95,-26.84 26.83,-26.84 z m 0,58.758 c 17.63,0 31.93,-14.199 31.93,-31.84 0,-17.645 -14.3,-31.918 -31.93,-31.918 -17.63,0 -31.84,14.273 -31.84,31.918 0,17.641 14.21,31.84 31.84,31.84" /><path
         id="path50"
         style="fill:#ffffff;fill-opacity:1;fill-rule:nonzero;stroke:none"
         d="m 2883.74,174.934 -41.78,83.765 -41.78,-83.765 z m -53.35,98.55 h 23.14 l 79.92,-155.75 h -21.21 l -20.15,40.489 h -100.48 l -20.35,-40.489 h -20.99 l 80.12,155.75" /><path
         id="path52"
         style="fill:#ffffff;fill-opacity:1;fill-rule:nonzero;stroke:none"
         d="m 2976.24,200.859 h 67.48 c 31.28,0 47.14,6.641 47.14,27.852 0,21.426 -15.86,28.066 -47.14,28.066 h -67.48 z m -18.86,72.625 h 91.26 c 31.5,0 60.22,-8.992 60.22,-44.558 0,-35.774 -28.72,-44.778 -60.22,-44.778 h -72.4 v -66.414 h -18.86 v 155.75" /><path
         id="path54"
         style="fill:#ffffff;fill-opacity:1;fill-rule:nonzero;stroke:none"
         d="m 3135.59,273.484 h 18.85 v -155.75 h -18.85 v 155.75" /><path
         id="path56"
         style="fill:#ffffff;fill-opacity:1;fill-rule:nonzero;stroke:none"
         d="m 3291.29,200.859 h 67.49 c 31.27,0 47.13,6.641 47.13,27.852 0,21.426 -15.86,28.066 -47.13,28.066 h -67.49 z m -18.86,72.625 h 91.27 c 31.5,0 60.22,-8.992 60.22,-44.558 0,-35.774 -28.72,-44.778 -60.22,-44.778 h -72.41 v -66.414 h -18.86 v 155.75" /><path
         id="path58"
         style="fill:#ffffff;fill-opacity:1;fill-rule:nonzero;stroke:none"
         d="m 3445.5,273.484 h 17.35 v -155.75 h -17.35 v 155.75" /><path
         id="path60"
         style="fill:#ffffff;fill-opacity:1;fill-rule:nonzero;stroke:none"
         d="m 3586.65,179.648 c -50.97,-4.921 -85.26,-9.636 -85.26,-31.269 0,-17.578 19.7,-19.934 28.27,-19.934 24.22,0 45.86,11.575 56.99,17.571 z m 17.36,-44.558 c 0,-6.645 0.85,-11.36 1.93,-17.356 h -17.36 c -0.85,3.426 -2.13,8.993 -2.13,13.496 -16.28,-10.5 -34.51,-16.914 -55.92,-16.914 -18.43,0 -45.65,5.137 -45.65,34.063 0,38.769 58.07,40.266 101.77,45.41 v 4.285 c 0,15.219 -18.2,20.989 -35.98,20.989 -29.78,0 -40.29,-12.415 -45.86,-18.836 l -13.06,8.992 c 6.42,7.922 18.63,24.004 57.64,24.004 25.47,0 54.62,-7.508 54.62,-36.211 V 135.09" /><path
         id="path62"
         style="fill:#ffffff;fill-opacity:1;fill-rule:nonzero;stroke:none"
         d="m 3709.16,215 h -44.56 v -67.695 c 0,-12.215 5.35,-18.211 22.93,-18.211 8.34,0 15.21,1.504 24.63,3.426 v -15 c -12.42,-1.934 -21.21,-3.204 -28.27,-3.204 -36.64,0 -36.64,22.278 -36.64,31.27 V 215 h -23.78 v 14.773 h 23.78 v 37.29 h 17.35 v -37.29 h 44.56 V 215" /><path
         id="path64"
         style="fill:#ffffff;fill-opacity:1;fill-rule:nonzero;stroke:none"
         d="m 3757.77,212.645 h -28.29 v 14.789 h 28.29 v 8.562 c 0,18.43 5.78,41.356 39.85,41.356 17.78,0 24.65,-1.922 29.14,-2.997 v -15.429 c -7.72,1.926 -15.22,3.64 -24,3.64 -24,0 -27.64,-11.355 -27.64,-27.847 v -7.285 h 46.07 v -14.789 h -46.07 v -94.911 h -17.35 v 94.911" /><path
         id="path66"
         style="fill:#ffffff;fill-opacity:1;fill-rule:nonzero;stroke:none"
         d="m 3941.77,173.652 c 0,20.364 -13.28,44.786 -47.13,44.786 -33.85,0 -47.35,-24.422 -47.35,-44.786 0,-26.777 18,-44.558 47.35,-44.558 29.35,0 47.13,17.781 47.13,44.558 z m -111.84,2.149 c 0,31.926 25.3,57.422 64.71,57.422 39.41,0 64.48,-25.496 64.48,-57.422 0,-39.641 -26.35,-61.485 -64.48,-61.485 -38.13,0 -64.71,21.844 -64.71,61.485" /><path
         id="path68"
         style="fill:#ffffff;fill-opacity:1;fill-rule:nonzero;stroke:none"
         d="m 3982,229.773 h 17.37 v -23.347 c 10.06,11.367 24.22,26.797 46.7,26.797 3.86,0 7.07,-0.227 10.29,-0.871 V 215 c -2.15,0.215 -6.43,1.516 -13.94,1.516 -24.63,0 -42.41,-28.496 -43.05,-31.719 V 117.734 H 3982 v 112.039" /><path
         id="path70"
         style="fill:#ffffff;fill-opacity:1;fill-rule:nonzero;stroke:none"
         d="m 4076.24,229.773 h 16.71 v -15.632 c 12.85,10.937 26.14,19.082 44.55,19.082 24.43,0 31.08,-11.785 35.57,-19.93 17.58,14.781 29.15,19.93 45.65,19.93 10.28,0 41.12,-2.149 41.12,-34.493 v -80.996 h -17.34 v 74.551 c 0,6.863 0,26.153 -24.65,26.153 -19.49,0 -33.84,-12.864 -41.13,-19.708 v -80.996 h -17.36 v 74.551 c 0,6.863 0,26.153 -24.2,26.153 -19.93,0 -34.28,-12.864 -41.57,-19.708 v -80.996 h -17.35 v 112.039" /><path
         id="path72"
         style="fill:#ffffff;fill-opacity:1;fill-rule:nonzero;stroke:none"
         d="m 2570.14,0 h -11.99 v 687.043 h 11.99 V 0" /></g></g></svg>