<?xml version="1.0" encoding="UTF-8" standalone="no"?>
<svg
   xmlns:svg="http://www.w3.org/2000/svg"
   xmlns="http://www.w3.org/2000/svg"
   viewBox="0 0 307.97333 91.599998"
   height="91.599998"
   width="307.97333"
   version="1.1"><g
     transform="matrix(1.3333333,0,0,-1.3333333,0,91.6)"
     id="g10"><g
       transform="scale(0.1)"
       id="g12"><path
         id="path14"
         style="fill:#fff;fill-opacity:1;fill-rule:nonzero;stroke:none"
         d="m 0,489.723 h 74.5508 v -60.465 h 1.6562 c 19.0547,41.418 68.75,70.41 129.219,70.41 76.207,0 142.472,-45.563 142.472,-149.934 V 97.1016 h -74.55 V 329.031 c 0,73.719 -42.243,101.051 -89.461,101.051 -62.121,0 -109.3362,-39.754 -109.3362,-130.863 V 97.1016 H 0 V 489.723" /><path
         id="path16"
         style="fill:#fff;fill-opacity:1;fill-rule:nonzero;stroke:none"
         d="m 697.941,325.723 c -1.656,65.433 -38.105,114.304 -113.48,114.304 -73.719,0 -121.766,-62.129 -121.766,-114.304 z M 462.695,266.074 c 0,-68.75 63.782,-114.304 132.535,-114.304 45.555,0 78.692,23.191 107.68,58.804 l 56.324,-43.062 c -41.414,-53.84 -98.57,-80.344 -173.945,-80.344 -124.25,0 -202.109,89.453 -202.109,206.25 0,117.617 85.316,206.25 202.933,206.25 138.336,0 191.348,-106.023 191.348,-207.09 V 266.074 H 462.695" /><path
         id="path18"
         style="fill:#fff;fill-opacity:1;fill-rule:nonzero;stroke:none"
         d="m 920.426,306.672 -139.16,183.051 h 96.086 l 95.257,-139.157 93.601,139.157 h 90.29 L 1022.31,306.672 1181.34,97.1016 h -96.08 L 969.293,261.934 853.332,97.1016 H 761.387 L 920.426,306.672" /><path
         id="path20"
         style="fill:#fff;fill-opacity:1;fill-rule:nonzero;stroke:none"
         d="m 1201.21,489.723 h 69.58 V 428.43 h 1.65 c 7.46,23.191 55.5,71.238 125.91,71.238 57.98,0 97.74,-24.855 122.59,-72.895 25.68,48.04 77.03,72.895 124.25,72.895 120.94,0 149.1,-86.148 149.1,-173.945 V 97.1016 h -74.55 V 315.781 c 0,59.633 -12.42,114.301 -84.49,114.301 -72.07,0 -100.22,-48.867 -100.22,-118.449 V 97.1016 h -74.56 V 302.527 c 0,74.543 -10.76,127.555 -82.83,127.555 -53.84,0 -101.88,-40.586 -101.88,-129.215 V 97.1016 h -74.55 V 489.723" /><path
         id="path22"
         style="fill:#fff;fill-opacity:1;fill-rule:nonzero;stroke:none"
         d="m 2103.12,297.871 c 0,-26.426 -21.42,-47.844 -47.85,-47.844 -26.42,0 -47.84,21.418 -47.84,47.844 0,26.426 21.42,47.844 47.84,47.844 26.43,0 47.85,-21.418 47.85,-47.844" /><path
         id="path24"
         style="fill:#fff;fill-opacity:1;fill-rule:nonzero;stroke:none"
         d="m 2053.56,430.055 c 67.16,0 122.88,-48.395 134.58,-112.172 h -26.29 l 63.96,-62.903 64.16,62.903 h -32.07 c -12.26,102.004 -99.03,181.094 -204.34,181.094 -85.41,0 -158.67,-52.008 -189.85,-126.082 l 64.24,-25.161 c 21.11,48.442 69.39,82.321 125.61,82.321" /><path
         id="path26"
         style="fill:#fff;fill-opacity:1;fill-rule:nonzero;stroke:none"
         d="m 2053.56,156.094 c -65.89,0 -120.76,46.574 -133.87,108.554 h 29.02 l -63.97,62.903 -64.16,-62.903 h 29.09 c 13.85,-100.253 99.82,-177.48 203.89,-177.48 85.2,0 158.31,51.75 189.62,125.527 l -64.26,25.164 c -21.24,-48.14 -69.36,-81.765 -125.36,-81.765" /><path
         id="path28"
         style="fill:#fff;fill-opacity:1;fill-rule:nonzero;stroke:none"
         d="m 2330.36,451.176 h 8.5 c 7.58,0 10.41,3.941 10.41,8.668 0,5.199 -3.63,8.668 -9.78,8.668 h -9.13 z m 16.08,-6.621 13.7,-19.692 h -9.61 l -12.76,18.907 h -7.41 v -18.907 h -8.03 v 51.051 h 18.43 c 11.82,0 17.01,-6.93 17.01,-16.226 0,-8.36 -4.4,-13.239 -11.33,-15.133 z m 31.03,5.527 c 0,21.41 -16.7,39.074 -38.46,39.074 -22.04,0 -38.9,-17.812 -38.9,-39.246 0,-21.258 16.86,-39.07 38.75,-39.07 21.76,0 38.61,17.965 38.61,39.242 z m 9.3,0 c 0,-26.004 -21.12,-48.219 -47.91,-48.219 -26.78,0 -47.89,21.891 -47.89,48.219 0,26.141 21.11,48.356 48.04,48.356 26.8,0 47.76,-22.047 47.76,-48.356" /></g></g></svg>