<?xml version="1.0" encoding="UTF-8" standalone="no"?>
<svg
   xmlns:svg="http://www.w3.org/2000/svg"
   xmlns="http://www.w3.org/2000/svg"
   viewBox="0 0 278.32001 65.333336"
   height="65.333336"
   width="278.32001"
   xml:space="preserve"
   id="svg2"
   version="1.1"><defs
     id="defs6" /><g
     transform="matrix(1.3333333,0,0,-1.3333333,0,65.333333)"
     id="g10"><g
       transform="scale(0.1)"
       id="g12"><path
         id="path14"
         style="fill:#fff;fill-opacity:1;fill-rule:nonzero;stroke:none"
         d="m 1453.98,490 c -135.31,0 -245,-109.691 -245,-245 0,-135.309 109.69,-245 245,-245 135.32,0 245,109.691 245,245 0,135.309 -109.68,245 -245,245 z m 0,-73.5 c 94.56,0 171.5,-76.934 171.5,-171.5 0,-94.566 -76.94,-171.5 -171.5,-171.5 -94.57,0 -171.5,76.934 -171.5,171.5 0,94.566 76.93,171.5 171.5,171.5" /><path
         id="path16"
         style="fill:#fff;fill-opacity:1;fill-rule:nonzero;stroke:none"
         d="M 1163.87,73.5 H 954.277 v 379.754 c 0,20.289 -16.457,36.746 -36.75,36.746 -20.3,0 -36.757,-16.457 -36.757,-36.746 V 38.0859 36.7461 35.4141 C 880.77,15.8555 896.629,0 916.191,0 h 247.679 c 19.55,0 35.41,15.8555 35.41,35.4141 v 2.6718 c 0,19.5586 -15.86,35.4141 -35.41,35.4141" /><path
         id="path18"
         style="fill:#fff;fill-opacity:1;fill-rule:nonzero;stroke:none"
         d="m 778.602,5.66797 c 0.175,0.11328 0.343,0.23437 0.519,0.34766 13.387,8.59377 19.609,24.92187 15.469,40.19527 -0.012,0.0235 -0.012,0.0508 -0.012,0.0743 -0.019,0.0586 -0.047,0.1171 -0.058,0.1796 -0.293,1.0235 -0.614,2.043 -0.997,3.0547 -0.144,0.4063 -0.32,0.8008 -0.488,1.2032 -0.195,0.4765 -0.359,0.9648 -0.586,1.4453 L 599.656,465.023 c -1.375,4 -3.418,7.754 -6.093,11.086 -0.196,0.239 -0.399,0.465 -0.594,0.704 -0.227,0.257 -0.442,0.523 -0.664,0.777 -0.11,0.125 -0.215,0.262 -0.332,0.39 -0.207,0.223 -0.422,0.442 -0.637,0.668 -0.32,0.332 -0.652,0.645 -0.984,0.961 -0.383,0.368 -0.754,0.739 -1.145,1.09 -0.098,0.086 -0.203,0.164 -0.301,0.254 -0.011,0.004 -0.011,0.008 -0.019,0.016 -0.371,0.32 -0.754,0.629 -1.145,0.937 -0.547,0.438 -1.094,0.867 -1.668,1.274 -0.422,0.297 -0.851,0.574 -1.281,0.855 -0.555,0.36 -1.113,0.715 -1.688,1.047 -0.539,0.309 -1.093,0.594 -1.652,0.875 -0.371,0.188 -0.711,0.402 -1.082,0.578 l -0.156,0.067 c -0.117,0.058 -0.246,0.097 -0.371,0.152 -0.528,0.238 -1.074,0.445 -1.614,0.66 -0.632,0.246 -1.257,0.508 -1.902,0.723 -0.265,0.086 -0.539,0.156 -0.812,0.238 -8.172,2.527 -16.707,2.035 -24.286,-0.988 -0.05,-0.024 -0.109,-0.047 -0.156,-0.067 -1.054,-0.425 -2.082,-0.898 -3.086,-1.422 -0.136,-0.066 -0.265,-0.14 -0.402,-0.21 -0.906,-0.489 -1.805,-1.016 -2.676,-1.575 -0.164,-0.109 -0.32,-0.215 -0.476,-0.324 -0.832,-0.551 -1.633,-1.137 -2.422,-1.762 -0.157,-0.129 -0.313,-0.254 -0.461,-0.386 -0.508,-0.411 -1.004,-0.809 -1.492,-1.25 -0.274,-0.254 -0.52,-0.528 -0.793,-0.786 -0.098,-0.093 -0.196,-0.195 -0.293,-0.289 -0.41,-0.406 -0.828,-0.804 -1.211,-1.226 -0.008,-0.008 -0.02,-0.012 -0.028,-0.024 -3.058,-3.316 -5.421,-7.148 -7.062,-11.269 L 339.266,55.7461 c -8.301,-13.8203 -6.485,-31.2188 3.808,-43.0508 0.215,-0.2539 0.43,-0.5156 0.656,-0.7656 0.438,-0.4805 0.918,-0.9336 1.387,-1.3945 0.438,-0.4297 0.867,-0.85551 1.328,-1.26567 0.36,-0.32031 0.743,-0.61328 1.114,-0.91406 0.593,-0.49609 1.199,-0.98438 1.836,-1.4375 0.097,-0.07031 0.183,-0.15625 0.293,-0.23047 0.273,-0.19531 0.566,-0.34375 0.847,-0.53125 0.637,-0.41797 1.27,-0.83984 1.945,-1.21875 0.508,-0.29297 1.024,-0.55078 1.532,-0.81641 0.422,-0.21484 0.812,-0.45312 1.23,-0.65234 l 0.156,-0.07031 c 0.137,-0.0625 0.274,-0.10547 0.411,-0.17188 0.48,-0.21484 0.968,-0.39453 1.457,-0.58984 0.722,-0.28906 1.445,-0.57422 2.168,-0.81641 0.203,-0.0664 0.398,-0.11718 0.605,-0.17578 15.184,-4.73047 31.699,0.9961 40.731,13.98437 0.019,0.0195 0.031,0.0391 0.05,0.0586 0.039,0.0547 0.059,0.1094 0.098,0.1641 0.605,0.8789 1.172,1.7812 1.707,2.7187 0.215,0.3789 0.402,0.7617 0.605,1.1485 0.235,0.4609 0.508,0.9023 0.723,1.3789 L 564.805,366.508 724.324,24.8828 c 5.254,-15.23827 19.746,-25.03905 35.422,-24.753894 0.34,0.003907 0.672,-0.007812 1.016,0.007813 0.652,0.03125 1.297,0.101562 1.953,0.167969 0.613,0.054687 1.219,0.109375 1.824,0.199218 0.481,0.070313 0.949,0.175782 1.418,0.261719 0.762,0.148438 1.523,0.292965 2.285,0.488285 0.117,0.03125 0.235,0.04687 0.36,0.07812 0.324,0.08985 0.636,0.21094 0.957,0.3086 0.734,0.21484 1.457,0.43359 2.179,0.70312 0.555,0.19922 1.082,0.42969 1.621,0.65234 0.418,0.1836 0.86,0.32422 1.278,0.52344 l 0.156,0.07031 c 0.137,0.0625 0.266,0.14454 0.402,0.21094 0.469,0.22656 0.918,0.48047 1.375,0.73047 0.696,0.36719 1.379,0.73438 2.032,1.13672" /><path
         id="path20"
         style="fill:#fff;fill-opacity:1;fill-rule:nonzero;stroke:none"
         d="M 171.504,490 H 36.7461 C 16.4648,490 0,473.535 0,453.254 c 0,-18.356 13.4766,-33.566 31.0625,-36.316 1.8359,-0.293 3.75,-0.438 5.6836,-0.438 H 171.504 c 54.121,0 97.996,-43.879 97.996,-98 0,-54.121 -43.875,-98.004 -97.996,-98.004 H 36.7461 c -1.9336,0 -3.8477,-0.144 -5.6836,-0.437 C 13.4766,217.313 0,202.102 0,183.75 V 36.7461 C 0,16.4648 16.4648,0 36.7461,0 57.0391,0 73.5039,16.4648 73.5039,36.7461 V 147.004 h 98.0001 c 94.715,0 171.492,76.781 171.492,171.496 0,94.719 -76.777,171.5 -171.492,171.5" /><path
         id="path22"
         style="fill:#fff;fill-opacity:1;fill-rule:nonzero;stroke:none"
         d="m 1812.3,490 h -3.5 c -9.18,0 -16.62,-8.832 -16.62,-19.727 V 264.727 c 0,-10.895 7.44,-19.727 16.62,-19.727 h 3.5 c 9.18,0 16.62,8.832 16.62,19.727 v 205.546 c 0,10.895 -7.44,19.727 -16.62,19.727" /><path
         id="path24"
         style="fill:#fff;fill-opacity:1;fill-rule:nonzero;stroke:none"
         d="m 2067.67,490 h -156.55 c -10.89,0 -19.72,-7.441 -19.72,-16.625 v -3.504 c 0,-9.176 8.83,-16.617 19.72,-16.617 h 57.45 V 264.727 c 0,-10.895 7.44,-19.727 16.63,-19.727 h 3.5 c 9.18,0 16.62,8.832 16.62,19.727 v 188.527 h 62.35 c 10.9,0 19.73,7.441 19.73,16.617 v 3.504 c 0,9.184 -8.83,16.625 -19.73,16.625" /></g></g></svg>