<svg class="logo" style="display: block;" viewBox="0 0 400 100" version="1.1" xmlns="http://www.w3.org/2000/svg" xmlns:xlink="http://www.w3.org/1999/xlink">
<path class="logo-path" d="M179.500 1.863 C 170.935 7.162,162.411 22.297,157.178 41.500 C 150.099 67.476,153.893 93.975,165.205 97.565 C 167.520 98.300,173.723 96.566,178.870 93.746 C 182.161 91.942,182.272 91.944,183.581 93.812 C 187.657 99.632,200.628 98.170,209.625 90.875 C 210.358 90.280,211.803 90.948,213.781 92.795 C 221.775 100.263,233.535 99.063,243.474 89.765 C 245.410 87.955,245.513 87.951,245.802 89.685 C 247.321 98.827,255.215 100.233,267.999 93.639 C 274.340 90.367,274.703 90.295,275.818 92.080 C 280.483 99.550,293.542 99.299,301.163 91.594 C 307.570 85.116,310.758 68.988,307.013 62.000 C 305.608 59.380,306.712 59.882,310.782 63.715 C 311.492 64.383,313.415 65.723,315.056 66.692 C 317.058 67.874,317.830 68.956,317.402 69.977 C 316.015 73.290,315.709 91.087,316.997 93.495 C 320.146 99.378,328.295 98.863,335.966 92.297 L 339.909 88.922 341.465 91.932 C 344.467 97.737,350.939 98.389,360.580 93.857 C 364.299 92.109,365.575 91.904,366.872 92.847 C 373.372 97.567,374.589 97.993,381.602 97.996 C 394.535 98.003,399.562 89.212,395.895 73.000 C 393.772 63.614,393.768 63.661,396.952 60.000 C 402.197 53.969,400.434 48.103,393.356 48.032 C 389.421 47.992,384.737 52.273,378.074 62.000 C 376.756 63.925,371.969 69.192,367.437 73.705 C 362.905 78.218,359.036 82.393,358.839 82.984 C 358.642 83.574,357.135 84.157,355.490 84.279 C 351.498 84.574,351.168 80.885,353.947 67.023 C 356.462 54.479,356.520 51.115,354.250 49.392 C 349.779 45.998,343.440 48.894,342.461 54.779 C 339.002 75.563,336.955 82.419,333.682 84.170 C 329.743 86.278,328.713 80.984,330.924 70.000 C 334.896 50.266,334.690 48.000,328.920 48.000 C 325.722 48.000,320.859 53.170,320.000 57.484 L 319.500 59.995 316.500 57.217 C 296.461 38.664,266.656 52.231,270.597 78.111 C 271.058 81.143,270.739 81.737,267.570 83.750 C 259.237 89.043,257.907 84.535,262.704 67.246 C 267.293 50.704,266.360 46.438,258.583 48.390 C 253.889 49.568,247.919 62.748,247.990 71.776 C 248.021 75.704,233.983 86.000,228.598 86.000 C 219.934 86.000,218.566 64.514,226.945 60.030 C 229.818 58.492,230.000 58.664,230.000 62.918 C 230.000 68.801,230.768 70.000,234.539 70.000 C 241.155 70.000,244.579 59.548,239.908 53.610 C 229.007 39.751,208.586 52.778,207.465 74.305 C 207.045 82.356,204.340 85.985,198.750 85.995 C 195.460 86.001,195.098 82.311,197.475 73.000 C 203.046 51.174,203.110 50.837,201.929 49.414 C 199.051 45.947,189.596 49.653,188.393 54.719 C 182.880 77.935,182.812 78.078,175.564 81.883 C 170.058 84.772,167.983 83.737,168.031 78.128 C 168.063 74.418,168.548 73.342,180.694 50.000 C 189.079 33.886,191.850 26.413,192.661 17.724 C 194.042 2.944,188.516 -3.714,179.500 1.863 M94.000 8.500 L 94.000 16.000 102.000 16.000 L 110.000 16.000 110.000 49.000 L 110.000 82.000 102.000 82.000 L 94.000 82.000 94.000 90.018 L 94.000 98.036 118.250 97.768 L 142.500 97.500 142.792 89.750 L 143.084 82.000 135.542 82.000 L 128.000 82.000 128.000 49.000 L 128.000 16.000 135.500 16.000 L 143.000 16.000 143.000 8.500 L 143.000 1.000 118.500 1.000 L 94.000 1.000 94.000 8.500 M0.000 32.486 C 0.000 67.933,0.906 73.840,8.067 85.074 C 19.561 103.107,54.602 105.358,69.369 89.014 C 78.799 78.575,80.000 72.295,80.000 33.419 L 80.000 2.000 71.000 2.000 L 62.000 2.000 62.000 25.776 C 62.000 72.014,58.116 82.000,40.133 82.000 C 22.240 82.000,19.123 73.981,19.044 27.750 L 19.000 2.000 9.500 2.000 L 0.000 2.000 0.000 32.486 M181.019 20.196 C 177.925 33.798,168.147 55.647,168.050 49.177 C 167.923 40.747,174.513 21.409,179.269 16.254 C 182.089 13.197,182.434 13.974,181.019 20.196 M194.636 28.636 C 188.202 35.071,192.394 43.527,201.645 42.773 C 207.936 42.259,210.097 40.315,210.743 34.587 C 211.672 26.342,200.907 22.365,194.636 28.636 M258.718 28.255 C 251.380 34.178,255.597 43.677,265.158 42.759 C 271.615 42.138,274.213 39.665,274.361 33.997 C 274.560 26.424,265.230 22.999,258.718 28.255 M295.389 60.532 C 300.711 65.854,296.427 85.048,289.745 85.817 C 285.308 86.327,283.614 83.746,283.721 76.636 C 283.890 65.318,290.732 55.875,295.389 60.532 M383.612 85.469 C 381.551 88.615,377.087 88.859,374.471 85.968 C 372.664 83.971,372.726 83.840,378.066 78.417 L 383.500 72.898 384.385 77.918 C 385.101 81.975,384.953 83.423,383.612 85.469 " stroke="none" fill="#FFFFFF" fill-rule="evenodd"></path>
</svg>