<?xml version="1.0" encoding="UTF-8"?>
<!DOCTYPE svg PUBLIC "-//W3C//DTD SVG 1.1//EN" "http://www.w3.org/Graphics/SVG/1.1/DTD/svg11.dtd">
<!-- Creator: CorelDRAW X6 -->
<svg xmlns="http://www.w3.org/2000/svg" xml:space="preserve" width="3.93055in" height="3.93055in" version="1.1" style="shape-rendering:geometricPrecision; text-rendering:geometricPrecision; image-rendering:optimizeQuality; fill-rule:evenodd; clip-rule:evenodd"
viewBox="0 0 3931 3931"
 xmlns:xlink="http://www.w3.org/1999/xlink">
 <defs>
  <style type="text/css">
   <![CDATA[
    .fil0 {fill:#9666AA}
    .fil1 {fill:#FFFFFF;fill-rule:nonzero}
   ]]>
  </style>
 </defs>
 <g id="Layer_x0020_1">
  <metadata id="CorelCorpID_0Corel-Layer"/>
  
  <polygon class="fil1" points="807,2515 807,2618 170,2618 615,2065 243,2065 243,1963 825,1963 382,2515 "/>
  <path class="fil1" d="M1026 2328c0,110 13,205 148,205 135,0 148,-95 148,-205l0 -365 111 0 0 377c0,174 -65,295 -259,295 -194,0 -259,-121 -259,-295l0 -377 111 0 0 365z"/>
  <path class="fil1" d="M1131 1613c0,42 -33,75 -75,75 -42,0 -75,-33 -75,-75 0,-42 33,-75 75,-75 42,0 75,33 75,75z"/>
  <path class="fil1" d="M1367 1613c0,42 -33,75 -75,75 -42,0 -75,-33 -75,-75 0,-42 33,-75 75,-75 42,0 75,33 75,75z"/>
  <path class="fil1" d="M1706 1542l0 498 3 3c46,-63 106,-98 187,-98 181,0 223,131 223,284l0 389 -111 0 0 -369c0,-106 -8,-201 -138,-201 -153,0 -163,142 -163,259l0 311 -111 0 0 -1076 111 0z"/>
  <polygon class="fil1" points="2282,2618 2394,2618 2394,1542 2282,1542 "/>
  <polygon class="fil1" points="2688,2205 2927,1963 3076,1963 2796,2242 3129,2618 2981,2618 2688,2286 2688,2618 2577,2618 2577,1542 2688,1542 "/>
  <path class="fil1" d="M3648 2409c-42,72 -101,124 -189,124 -124,0 -209,-97 -210,-219l504 0c11,-195 -98,-369 -304,-369 -201,0 -311,160 -311,354 0,188 123,337 314,337 127,0 225,-64 287,-174l-90 -53zm-198 -361c96,0 173,77 188,171l-383 0c14,-95 101,-171 195,-171z"/>
  <path class="fil1" d="M378 3149c-18,36 -49,56 -91,56 -77,0 -107,-66 -107,-134 0,-71 32,-134 110,-134 40,0 70,20 86,56 4,10 7,21 7,32 0,10 -5,14 -14,16l-151 22c2,45 23,102 76,102 34,0 55,-21 71,-48 3,-5 4,-10 12,-10 7,0 9,6 9,12 0,8 -5,22 -9,30zm-42 -128c-2,-28 -22,-56 -53,-56 -43,0 -61,36 -65,74l118 -19z"/>
  <path class="fil1" d="M754 3190c0,6 -1,9 -9,9l-26 0c-7,0 -9,-2 -9,-9l0 -161c0,-33 -5,-64 -47,-64 -19,0 -38,9 -46,28 -2,6 -2,17 -2,24l0 173c0,6 0,9 -8,9l-28 0c-5,0 -8,-3 -8,-8l0 -171c0,-32 -13,-56 -49,-56 -20,0 -37,8 -45,27 -3,7 -3,18 -3,26l0 173c0,7 -2,9 -9,9l-25 0c-7,0 -9,-2 -9,-9l0 -199c0,-14 0,-21 10,-32 14,-15 62,-22 82,-22 30,0 55,6 74,30 22,-24 46,-30 78,-30 52,0 80,22 80,74l0 179z"/>
  <path class="fil1" d="M911 3206c-21,0 -36,-6 -54,-18l0 120c0,5 -2,8 -8,8l-27 0c-6,0 -9,-1 -9,-9l0 -300c0,-12 -1,-28 6,-39 15,-23 67,-32 91,-32 76,0 115,50 115,123 0,67 -38,146 -115,146zm-10 -241c-33,0 -43,12 -43,44l0 151c15,9 32,16 50,16 55,0 73,-62 73,-107 0,-51 -22,-105 -80,-105z"/>
  <path class="fil1" d="M1172 3206c-75,0 -114,-67 -114,-135 0,-66 41,-134 114,-134 73,0 112,71 112,137 0,65 -41,132 -112,132zm65 -139c0,-39 -21,-102 -69,-102 -50,0 -64,60 -64,100 0,41 17,111 70,111 49,0 63,-61 63,-100l0 -9z"/>
  <path class="fil1" d="M1618 2958l-73 235c-1,4 -2,7 -7,7l-17 0c-7,0 -8,0 -10,-7l-49 -160 -49 160c-2,7 -2,7 -10,7l-14 0c-6,0 -8,-2 -10,-7l-75 -235c-1,-3 -2,-6 -2,-8 0,-4 3,-6 7,-6l27 0c8,0 9,1 12,9l55 183 54 -183c2,-10 1,-9 13,-9 5,0 5,3 6,8l56 186 52 -185c2,-7 2,-9 10,-9l18 0c3,0 8,0 8,5 0,3 -1,6 -2,9z"/>
  <path class="fil1" d="M1834 3149c-18,36 -49,56 -91,56 -77,0 -107,-66 -107,-134 0,-71 32,-134 111,-134 40,0 70,20 86,56 4,10 7,21 7,32 0,10 -5,14 -14,16l-151 22c2,45 23,102 76,102 34,0 55,-21 71,-48 3,-5 4,-10 12,-10 7,0 9,6 9,12 0,8 -5,22 -9,30zm-42 -128c-2,-28 -22,-56 -53,-56 -43,0 -61,36 -65,74l118 -19z"/>
  <path class="fil1" d="M2010 2987c-20,0 -20,-26 -50,-26 -23,0 -29,15 -29,35l0 195c0,5 -1,9 -7,9l-27 0c-7,0 -10,-1 -10,-9l0 -207c0,-10 0,-18 7,-26 14,-14 65,-21 85,-21 19,0 51,3 51,29 0,11 -8,21 -20,21z"/>
  <path class="fil1" d="M2084 2899c-15,0 -27,-10 -27,-26 0,-15 11,-27 27,-27 16,0 26,11 26,28 0,14 -12,25 -26,25zm22 291c0,7 -1,9 -8,9l-29 0c-5,0 -6,-2 -6,-7l0 -242c0,-6 2,-8 8,-8l26 0c8,0 9,1 9,9l0 238z"/>
  <path class="fil1" d="M2363 3190c0,5 -1,10 -8,10l-26 0c-7,0 -10,-1 -10,-9l0 -167c0,-10 0,-24 -4,-34 -10,-21 -32,-27 -54,-27 -17,0 -38,4 -48,19 -4,7 -5,17 -5,25l0 183c0,7 -1,10 -9,10l-27 0c-6,0 -8,-3 -8,-9l0 -200c0,-12 1,-21 10,-30 19,-18 71,-24 96,-24 36,0 73,7 89,43 4,11 5,27 5,39l0 171z"/>
  <path class="fil1" d="M2415 3280c1,-1 2,-3 4,-4 2,-2 3,-2 5,-2 19,1 34,13 57,13 51,0 83,-27 83,-82l0 -21c-25,11 -40,26 -67,26 -65,0 -95,-60 -95,-122 0,-75 44,-151 121,-151 22,0 84,11 84,46l0 230c0,68 -62,107 -121,107 -10,0 -29,-3 -45,-9 -16,-6 -27,-12 -27,-24l0 -4zm97 -107c10,0 53,-8 53,-21l0 -160c0,-23 -29,-29 -46,-29 -54,0 -73,66 -73,112 0,46 16,98 66,98z"/>
  <path class="fil1" d="M2797 2899c-15,0 -27,-10 -27,-26 0,-15 11,-27 27,-27 16,0 26,11 26,28 0,14 -12,25 -26,25zm22 291c0,7 -1,9 -8,9l-29 0c-5,0 -6,-2 -6,-7l0 -242c0,-6 2,-8 8,-8l26 0c8,0 9,1 9,9l0 238z"/>
  <path class="fil1" d="M3080 3151c0,10 -1,17 -7,25 -17,23 -64,30 -91,30 -77,0 -117,-52 -117,-126 0,-70 40,-142 117,-142 20,0 37,5 53,16l0 -123c0,-6 3,-9 9,-9l25 0c6,0 10,1 10,8l0 322zm-45 -169c-14,-12 -28,-18 -48,-18 -54,0 -78,58 -78,104 0,52 22,108 82,108 29,0 44,-9 44,-39l0 -155z"/>
  <path class="fil1" d="M3320 3149c-18,36 -49,56 -91,56 -77,0 -107,-66 -107,-134 0,-71 32,-134 110,-134 40,0 70,20 86,56 4,10 7,21 7,32 0,10 -5,14 -14,16l-151 22c3,45 23,102 76,102 34,0 54,-21 71,-48 3,-5 4,-10 12,-10 7,0 9,6 9,12 0,8 -5,22 -9,30zm-42 -128c-2,-28 -22,-56 -53,-56 -43,0 -61,36 -65,74l118 -19z"/>
  <path class="fil1" d="M3536 3150c0,10 -1,22 -7,31 -15,20 -60,25 -85,25 -44,0 -86,-17 -86,-67 0,-66 86,-82 135,-97l0 -25c0,-26 -4,-53 -37,-53 -21,0 -34,13 -42,32 -2,2 -1,4 -2,6 -4,9 -9,15 -20,15 -12,0 -20,-9 -20,-21 0,-42 57,-59 90,-59 54,0 74,28 74,79l0 133zm-43 -85c-34,10 -90,22 -90,67 0,30 20,47 50,47 25,0 40,-8 40,-36l0 -78z"/>
  <path class="fil1" d="M3664 3206c-27,0 -51,-6 -70,-26 -8,-8 -15,-19 -15,-30 0,-12 9,-22 21,-22 25,0 23,50 67,50 22,0 39,-14 39,-38 0,-64 -122,-48 -122,-134 0,-45 37,-69 78,-69 25,0 53,6 68,28 5,6 9,14 9,22 0,10 -8,19 -19,19 -27,0 -20,-44 -59,-44 -21,0 -38,14 -38,36 0,61 123,44 123,133 0,50 -37,74 -84,74z"/>
 </g>
</svg>
